<mxfile host="app.diagrams.net" modified="2023-04-13T14:19:54.985Z" agent="Mozilla/5.0 (Windows NT 10.0; Win64; x64) AppleWebKit/537.36 (KHTML, like Gecko) Chrome/112.0.0.0 Safari/537.36 Edg/112.0.1722.39" etag="cRtF4aL5amNzlhMVmJke" version="21.1.6" type="github">
  <diagram name="Page-1" id="NVli9GbHLBPybFQLphKn">
    <mxGraphModel dx="794" dy="470" grid="1" gridSize="10" guides="1" tooltips="1" connect="1" arrows="1" fold="1" page="1" pageScale="1" pageWidth="850" pageHeight="1100" math="0" shadow="0">
      <root>
        <mxCell id="0" />
        <mxCell id="1" parent="0" />
        <mxCell id="gXnHDSjm7eshs8PWAosT-3" value="" style="edgeStyle=orthogonalEdgeStyle;rounded=0;orthogonalLoop=1;jettySize=auto;html=1;" edge="1" parent="1" source="gXnHDSjm7eshs8PWAosT-1" target="gXnHDSjm7eshs8PWAosT-2">
          <mxGeometry relative="1" as="geometry" />
        </mxCell>
        <mxCell id="gXnHDSjm7eshs8PWAosT-19" value="" style="edgeStyle=orthogonalEdgeStyle;rounded=0;orthogonalLoop=1;jettySize=auto;html=1;" edge="1" parent="1" source="gXnHDSjm7eshs8PWAosT-1" target="gXnHDSjm7eshs8PWAosT-18">
          <mxGeometry relative="1" as="geometry" />
        </mxCell>
        <mxCell id="gXnHDSjm7eshs8PWAosT-1" value="CI" style="whiteSpace=wrap;html=1;aspect=fixed;" vertex="1" parent="1">
          <mxGeometry x="210" y="190" width="80" height="80" as="geometry" />
        </mxCell>
        <mxCell id="gXnHDSjm7eshs8PWAosT-5" value="" style="edgeStyle=orthogonalEdgeStyle;rounded=0;orthogonalLoop=1;jettySize=auto;html=1;" edge="1" parent="1" source="gXnHDSjm7eshs8PWAosT-2" target="gXnHDSjm7eshs8PWAosT-4">
          <mxGeometry relative="1" as="geometry" />
        </mxCell>
        <mxCell id="gXnHDSjm7eshs8PWAosT-7" value="" style="edgeStyle=orthogonalEdgeStyle;rounded=0;orthogonalLoop=1;jettySize=auto;html=1;" edge="1" parent="1" source="gXnHDSjm7eshs8PWAosT-2" target="gXnHDSjm7eshs8PWAosT-6">
          <mxGeometry relative="1" as="geometry" />
        </mxCell>
        <mxCell id="gXnHDSjm7eshs8PWAosT-13" value="" style="edgeStyle=orthogonalEdgeStyle;rounded=0;orthogonalLoop=1;jettySize=auto;html=1;" edge="1" parent="1" source="gXnHDSjm7eshs8PWAosT-2" target="gXnHDSjm7eshs8PWAosT-12">
          <mxGeometry relative="1" as="geometry" />
        </mxCell>
        <mxCell id="gXnHDSjm7eshs8PWAosT-2" value="最外层的package.json" style="whiteSpace=wrap;html=1;aspect=fixed;" vertex="1" parent="1">
          <mxGeometry x="370" y="190" width="80" height="80" as="geometry" />
        </mxCell>
        <mxCell id="gXnHDSjm7eshs8PWAosT-4" value="client package.json" style="whiteSpace=wrap;html=1;aspect=fixed;" vertex="1" parent="1">
          <mxGeometry x="680" y="50" width="80" height="80" as="geometry" />
        </mxCell>
        <mxCell id="gXnHDSjm7eshs8PWAosT-6" value="server&lt;br&gt;package.json" style="whiteSpace=wrap;html=1;aspect=fixed;" vertex="1" parent="1">
          <mxGeometry x="680" y="300" width="80" height="80" as="geometry" />
        </mxCell>
        <mxCell id="gXnHDSjm7eshs8PWAosT-16" value="" style="edgeStyle=orthogonalEdgeStyle;rounded=0;orthogonalLoop=1;jettySize=auto;html=1;" edge="1" parent="1" source="gXnHDSjm7eshs8PWAosT-11" target="gXnHDSjm7eshs8PWAosT-15">
          <mxGeometry relative="1" as="geometry" />
        </mxCell>
        <mxCell id="gXnHDSjm7eshs8PWAosT-11" value="通过最外层的npm run&lt;br&gt;调用 内层c/s的package.json" style="rounded=1;whiteSpace=wrap;html=1;" vertex="1" parent="1">
          <mxGeometry x="350" y="460" width="120" height="60" as="geometry" />
        </mxCell>
        <mxCell id="gXnHDSjm7eshs8PWAosT-14" value="" style="edgeStyle=orthogonalEdgeStyle;rounded=0;orthogonalLoop=1;jettySize=auto;html=1;" edge="1" parent="1" source="gXnHDSjm7eshs8PWAosT-12" target="gXnHDSjm7eshs8PWAosT-11">
          <mxGeometry relative="1" as="geometry" />
        </mxCell>
        <mxCell id="gXnHDSjm7eshs8PWAosT-12" value="" style="shape=image;verticalLabelPosition=bottom;labelBackgroundColor=default;verticalAlign=top;aspect=fixed;imageAspect=0;image=data:image/png,iVBORw0KGgoAAAANSUhEUgAAAmoAAADqCAYAAAAS/WmOAAAAAXNSR0IArs4c6QAAAARnQU1BAACxjwv8YQUAAAAJcEhZcwAADsMAAA7DAcdvqGQAAD8zSURBVHhe7d0PbBRXnifw39zdZqRhJMjJdnthBAZlEh0BmwTJSVAgcAqydwIGtBBO6IjJDIezRArSWMxEAeyxQ6JsWCIRKbkYkUkcRuhIsgsYkrVFtBCIHPDJF2wIUjKIGDQwbtvaBGmzuolO4t7vvVdVr/51V1d32+Xm+5EKd1VXV1e9qu769nuvih/dFqgEDb7XTsdnbqEdSyuJRj6il167Qg/9ehs9XqFngJKUPr2PXu6+pUbKF9ILzU9Qih9/2Unb+mto31ML5FMm6zXzN7bQ5vv1RIs8dvppxFwWDdMne/fTcTKnqWPu7ctTaaX3OLOWoUdd62WQ69F/j3huBh1/vosu6ukV9fo4NnmXSbPoV680UrUeU+uiRwL4tpXL5+A1PcLcy3PR750KKi9T1PkiyLY9XoH70kuvH81toM3iuPDuD78LdEDsl7SxP5x99gSlI6yjtV5ye6jBfTzKfUC63PkY66GKZs8+kOtsfpfpY3HUOk5Ijg/Vu7ff+35yfNQ5Dgu9Pt7395Wd53gLPMYZz9dd5pSvZx2d9a5U5VDu2QaAElByQU1+cDN+WWY4AUHJME+g8kQkxo+LMDbi2//+k6/FCnD+k0hwUJP0CSjsxOM9QZqs9yMywp5enit4WAHDfA+e1j2DdnhPUnrejGHJ91rr5B/yWYmyTBZ1vggCg0QgtT8p63tm2Ic5MI8zEo8P0PrgwOERLRgFrJ8sUyMYySAjAiBdo/TCkLAjZCu/wq6PClauMg2a7+B38jiff9nzOZPPmT8aQogfPCvL+8U68XqT3O8X8f0OJeg//k7Qj0tCquYx+pvH76O/GuinH/9tC+3YIMb/eoi6B6eJD/A22vR4lF/OMNl9P3Sezv75P9PiRffST8V4quphWiKPi3+h/9V1gf6q+mGaM4VPUPupWwSS/7b5UddxwSeu1z+vlMfMuipegunf6Orn/fQ1TbeXb6tYII+/H/5xP+37/N/oQc/z6YFP6Yt/D3idINf5yl9EKPstrZ2tJ4qT2o1PvqL09PtoibUeQ5/TPw4S/deGx+U2SFPupSU1ASfp7/9IZz//M/1UfC4e5BNkEN9rf0pzpvJn5hr9v78OeF2UZbKo80UgP9dB2+dTSQ8+7nk/PvG/1kXdn3xqDGL//bt47t//TGdd08OGIZoR8N3xU3Fc/Y3el7z/uru/tI+tTORxcPkr93sMckifJtaf30fsg0VT6UbXaTr7n4x9L8v0X+lnj/B7iFD6Wh+l/nY9VV3ppxvTFzrzyWD1Gu27MlWWm3w/uk8+5mP75U/cx2Zh1+d/0JIKDsyH6V91WaT/9z9T95VptHiVLsPRAbH8/0v3iddV3y/KUHxH/+M//Qv9H1527aPiM8Tf41kGsf7/Zm/XArGe1uc7eF8BTFYl2vTp/lXtrV2B0pdpn8vaA7vWNaCpMqv4tTHyvTPWqPEPiiw1frqmaiTKuset1cr0uqjLjPveNrXtVhNwLEHNzNnWS9fo+JpP9euc5uY4VI0PZa3B0oyaJ7mf5TromqnRTnpptE4cF6q587xZo+Z5navGLGD7XM9bYqyP3b1gZJgGLx+mt2WXgi1U1Z15/SRzWZmOaYN/vQM+LwCT3H/Qf0vQVKoq1w8BDNVPtdAL9VPVyNzHIp8UEqPiCdrxSgPNp1t0/LV22vY8D500qJ+Og094ajl6yDuQFMIC2vxKC+0LHbgMVL+v4OfF4AvEImQfFNvGzWaB4VE8331NNat5n5flHvAeYrCPJxnEgudRQ47NcvfX0cpysZ+7L+gJhvsbQ8PIYD9vwz00P+jYlsskutj9EaX1pMiyrI8dmCoqqXrpNlkuFw9yM/pUemhuluAky9cKaRy4PMekObwX8P7SAlop3nOkvz/3bQNIqNIKavyLTH6Q+Ve4cxKT/X5G++ll8fil08N6ZrhTcSiRfWLKxcn1cpc4RvILORPDCDEbZ4nxa/R2zO2QtRLyIggjUPx6Ibe6JgjXYub/+U2fPiw73vP3wfEv1TST9fz8+qg1pWq9VE0o7wuit70hgmuPxHfPgYD3y66SHt8o9sXlAbVvR8dEgJ5GFZl2jvgePH450zaIZdaLYyakDDLLbX1SS9fLUFhRvz7WD6KgEP6rufrJEKnyaXK9ENSgVJRWULN+8coTl/XLdov+otgiP+SoDr+D6SDPzZ58AtjRvE0HEg45++iTia9CiodrMuQx/x2NeLehYoY8WadHwwLOBerjZuCk1yx+2RNaK3PxoFHTYg4BtS6ppWKfy++FBiLrdXo+62IO/q6I0lTL8297nmuLjA7sYl+8MPNTESg/cmqEuHO9eM94zb+C/F6LXhM32J2pxlCzatX6w2qmMshhfWTwpYW0Gd+7ALGVbtNneZnr12SqHF8Ud5L0dX2LDmbVtHJzHvdZMk+a8qTjNCPGq/UYXxwQvOspm7oCazYqZReAke6ekNo29TxZNSSMa4AS0fRp0c2RYh+dv+wPnKFNn2Z/Kx+nRpKDFQcq15WHGaiApmvq2dwaV2jhMLiZrtBFfaz5m1+LSQXv7DWCulbN3O+FJo6jl7uJVm4cz+3XnwXPPgGYzEoyqKVHv9OP2DANcVMH3DFUU554IJt2dJ8kq4Y18KTJJ20Oa7NEaCl807h1YufBWi9uhufxOE15HARq+3VtjbXcUQ4FQbUc4oTczNvGtYbO/E7QC3iea4B8TZ9GnyEd4pyaLLPJNep80anmSLH/Ns4SgXO/XFZBArUO8DJwzW2QtZJq+SG1q7oJ027mFIOrGU4vj/eprLnbyLeMiL/dQeR3m+dHqJsKoJFq77gmNtc+cx5h6yOPee/FAkVzQzY/q2NMfxYyhnSAyaVkb3gLdyanv5W+Co3vx8Qn4YJ+cXO/pHhXfUJu+IQva2WME76aZtSYZmQ0S2p2kBcCa9A4cMmQmf2qWnNZYTcyVuFVX72q5wm/Oa5/fR36uPPd1FVNd11V6RL2OodrO1xyXx/XZzCs7IKu+nQxyiyI/kzL9/JerQpQYhDUoLSIE8ABajRqFLJ84QfI3vyFoDYu5Mncc3uImMxwF6V5U9KBzXVjYZdsASlcYMDwbq8c5yZfU1BwCloPfYzarQmZg1Oh1kcuh2u0sn0u5LKyB7WgGxeb64qgBncCBDUAAACAhCrh+6gBAAAATG4IagAAAAAJhaAGAAAAkFAIagAAAAAJhaAGAAAAkFAIagAAAAAJhaAGAAAAkFAIagAAAAAJhaAGAAAAkFAIagAAAAAJhaAGAAAAkFAIagAAAAAJhaAGAAAAkFAIagAAAAAJhaAGCTJMHzy7laY8sJX2DupJk8ngW3Ld7WHPgH7CI+p8AABwx0NQgzvcAO0VYWl917Aez0P1M/T9F2+KoYXeXaSnBYk6HwAA3PEQ1CBBKmndGxxg3qTmaj0JAADgDoagBgAAAJBQCGpZfU2vrjlCa7tHiS6dprvEY2t49ZKeRRju/lhMO03n9bhivFaT8/22j4b1c9ayzHncBmn33AX08y1dFDZHFH17dF+osR5ab/SPcvcFU82APC3d1Wb0o3qL+vQczFqWPY9nubn3L3P6pqmhjT4Y00+Z5Huo5+Q6WPM/20NpPYtDbUvYMp3t66AWMX6itd2YN6Ap1NuvzFMmAAAAxYCgFlFXx2d01y6is0fW0A9iuN70Y9q562N6f0TPkIuvb9DMNVeoqkMt64cX75bLN4OfbaCHOvnvZ910Jp+kxg510JTl31Cz7B/1Jl1tS1FLoz8UtTRupTk9D9NVux/VIC3zhqGho/TcV6vp+85qsdyjtL71HK09qfpctfTk2jneafKUy8soTZuWizB4X4ua/4smau89RnNcHfI5pIkAtqFJz8PDarre6mxDqqHVeb0YX9FmLU8Nhxsq1YyMA2LPI8bzukwQ1gAAoMgQ1KK6dwZdP7KUHtKjlQ+WUQP9hYbiBDVh94u/oCcr9Mi86bRb/On7U0ASq6mjRv77aD0tKZdT8pCid08+Q7XW2KKHaYWILtdv6gmWRavo6ht1Ym4mQlSTCE+95+iMGeh6idY+XaNHRPypa6J1ZXp0aNgd6gpNBDAnSNXQ4g3ij/meY8MyQLXXWevHaqjZ3qYcldXR4e3msnSZ0CCdnYxXpwIAwKSBoBbV7Gni9GyoqKUPj6yh38zT4zm5mx6L/Lpq2nn5Av1xfwPlndNEMFtihakMVoiA4wo002f7A51nWbVVrtIpKncAC1BWKcMo1wwW7TYfskwAAACKqzSD2mgX/ZL7dbmGPXRBPw2lroaa9a0vOKypPmUh/d4icvWJ42H5MTqhnwMAACiW0gxq5Q30e66Fcg3baYF+Gu4ERr+3k6tkjeCm5fHCGoe0ZYe42djqo2YtEwAAoLjQ9FlMl27STv0wvsJc9ZmPdO85OkHVtHiy3tuM+5jpsObrj0cpmrmI6MRXYb3qBujsIfFnw2qnDx4AAMA4QVArkMqf/UT8+y19al25ybfy2PWtHslDIa/6jGOsh55rTdOKttX2RQiJN/iW7/YaKmyKUDZdT7BV0qwq8efQ0ZDaNhXk6NDnzhWefKsONH0CAMA4QFArlHlL9S079L3R5K08HqU/3Kufj6ugV31G47qnmAgktZ2e21UUmnlvt0bu/a9uwSHHA++RlkX1M/Q6dTjbIIY5rSk69UVrYK1Y7Xbuz2a8pxicoMdNqHwLD74dh36+YzZdDWj6dPqxtdOmXjGBb4eiX2Ne1BB1PgAAgB/dFvRjuOOp+4/1tbUUN5gBAABAJKhRAwAAAEgoBDUAAACAhEJQAwAAAEgo9FEDAAAASCjUqAEAAAAkFIIaAAAAQEIhqAEAAAAkFIIaAAAAQEIhqAEAAAAkFIIaAAAAQEIhqAEAAAAkFIIaAAAAQEIhqAEAAAAkFIIaAAAAQEIhqAFkkT69jw58qUeCjHxELz2/jz4Z0eM5G6ZP9rbTtuc7aVBPgZgy7Yuc9tMFOvB8O710eliPuw2+J/bX3o8orcczyWVeny87adt7F/QIjLso5c/z4LMLRYT/6xMgCz7Rvn15Fv3qlUaq1tNcOAC81k9Uv4V2LK3UE6PjIPhy9y35uCLmMkCT++IKPfTrbfR4hZ5myfScV5Z55TExupBeaH6CUnpaqNDjg8NgF13UY6b5G1to8/38SM2Ttl8b/hqfcvf6qeNYj+Tgzj4mVXmTvT8E77HBQe0gOd8P3nGAPCGoAWTFNV776fzCDCcs/nLuLot24jYZJ/HNdFgENqKVUYIEkyeEa74T8uSgyvT4qB6lqSHbHXU+LVPAyhK+TDI8998TWq4Zg5q1XzLi7XiMhl7LEgLsaVbQG/YHhwBB6y/XmRpo31ML9BQtNFhEOO7vAOqH1DSnfLz7yFt+oeUJEA+aPgGyqqTH62fRSPdh+mRENYlt8w58Yh7tp5d9z2VqahPLEifgERG0NosTYWrpNvrV3Ft0/GDMZrJxwCetwjTziDJtbqF9r4hh4yw9LUjU+UzTqCJLEMtsmC723wrcn2FNoS73N4r13UIry7kWVq+7NfA2zBVh6ZXgsDjYLY6HuY+5n6t4gjbXT9UjATg45NX0Dpmklj5G8+k7GkH5wgQp2aAmTyh2vxDVByhjPyOATO6vEydefrCANntPvhmHsNob3YTlqQ2rfkqc4EkEhCj9kmQgEO8x6WrTimh0jELPp/K5CCHuyx46PuoNWQ3iZJ2LSqoov0Zvu/aj+B7qvkb89oFBXASu45eJ5i/01HgJHOLv5Fqt8Wf+IOOmZvED6jXx2D6n6HF+Xtaein1tzZ+1NhUgN6Vdo1Y+Q5/AhmnIbjoBiINrdrI3mUmyhiNTrVNwSFP4fURYG+1CJ/KiyF4zMtgvwlR9nbvZauSGPEGnys2wNEbH94bv5+r6hVRx+VOnpksHwJVPLQgM1rI2TRwTKzM0aZq4KVMGA66VNYJDpFo/yCLkBxl/XiueoB1Bz1lD5JpfgGhKto8af4kdn6n7Vnj7FABE5OqAzU1Wun8P19geoPWBtRzqNSF9qaz+S8ay7ODmmmb1zQq4iMHbB8r1OofdJ6n+huzjZOUFp6O6QX5GnHmIzPfV6ycfB/Gvo6vcWMg6SnJ7vsveNy/KfBnmUX2NbgVvv0WWwxitDCxzZ7nu7QvvN8fzqe+hoL5lqlzltHJV/injefM9nA79xmus5QR8v8ltDeqjZu6TiPwXE3iPhzz6FxrlWtFtrp9xTMl5rgXuN7VN3uPPu37e5/V6lfs/G862GvPwcYtzCEygkgtq2b+M/CcVgGzkcWV3xB4W44fFcXbL35FfBx7zhGuxjk3/CUefWALCTOZw4TmZeDifBeeYV8vzXLCg19l1VSJP655BOwLXx+hYHYDnOV6+zRMkxMkwLKxFCWAswnxWeQV9zq3nMl3FyGVm/8AzyNcawUeW7Sjv+4V0UYYRJ4Q45Z5ZRf1CSnWLcud9SyqM+AOt2sdOh34rqDUQHQwLz7NoZf13dLwoFxMEHati2t4btNL8HATMp8rfc+zpECbZ8+rjmqzPVtjnQ013rogVAo5ltT/M40EvXwZIIzx6AqFrn1tl9OsyOm4Eu2wy/igAiKjkmj6rn+LqZ+7Iqz4kTlU0f1B5PPwEAxBNpTjOtoljqYHmyw7nVvOXOAEcFF/ivuYrPjHoE7s4BnP54ua+Sfw+dLA9ZlMon4icYz419x6qoFvurgCy79ZUemiuEU64ecd7Qo+I19m1jWJZK+eKv5cHxudeU+WzaD73D3M1P+sLBISR/v7gPmLiZMwn9JV8gucTs9HHVb7W7kphUhc7yItAXlMd+tV3UPZhx9IZehkC9zf8NTeVRm3yztRXsjHH/nQ50E3A7n50Yl1cIY1DzqciRIrvXOMYSi1dL76XRTl1+7ePw7MTwirF8qfK41KV/wKqDTp+vhwQ7+E+bq3mY744x1L9FPcvvEbHfU3CfE4wQuP9NbLc0qNqvlT5NHsd0qPfif1fFtzsyftNfs4808WAkAaFUKJ91Nx90uwPmR4HKAw+WfKPAqsjMf9KF1/+npOWdTKP3+lfn5TjBKfye2h+SO2TTXw2OLxZQaMYUjMzXLVYQOnrHKhqRHBQJ+e3jbDF3wnzud/Y6BW6GLCd3Ddt/kYVatNiGfKiDg57I/10nmvM6sPLn8PZC/WU3xW7HAL4R6XZry0TDpNWB3Z7KPLVnxUqrF4UPxzCL87SwXZujedHMV9gIf6MqrBncvf9U2Hf/FEt+/uJ/dlnvCfvL/fxfYH6LotVXLjQ9/mrEu87ct0T1HznBPU5s2vn5OciQp/GoCt1AQqohC8mmCo/nADFZdWoqDFfJ/TJQNYScLAxrmTL6xYc3CRlhod23RxZbOpErWp7xEmXazq4xpNrqGTtyyyqXbqQHiq/Recv+zvcc9iyakBSFQvURR0cwrmpK0LgleHCCuOBIcoZQkOOvLo4eP2CWS0FYpA1O8Vm/ThRYU1tjzcc6h/KXDvo2e4oTcKBKni/iffst2rj9L6uN3786Nq+ke79nve1mjlzJEOpqn1WPwBUSOWmVHP5cpsCthUXdUChlFZQ4/4J8kPCfTeck448Seh7IuHDA4WlmzX5l3z5VHWSiPvfBU0oXWvHg+wq4G06jEr3J+K+e9byxPBCpvuAFYo8URs/0HQNVQXdoAPd3P+La3hUs1po86eLCOEbOfxMpZUb49SGGiHKHrLd5kPVOvlqf5j4fjtw+oZ4EOdH6DCNhIQn1UfMqhU2h7CAo2uIeXtkOPTWxqoaLNnnzLf9YohVs6ybQ63mTyt4u5rYVZCSzahB75tzjbTajvToBVl2FTONWj+9bfIHmnyswqt6b/UYoFBKK6hZ/QdcfdLMD5BRrQ2QL1lrwicz1T9lR/M2dey5+q1NQtxfSn6G/M0+st9OpuYgeQL11HSME9U/yVPzJbZlx8Ixumg0XcobmIp9dDzrfRVVn0OqXz/hzVryB8BrY1RFV0T5xrmhr6rlCgwxru9Lc4gQOPg7V4c1p7tJeBNnPtSNZ1Xzp2z2DGha5WAVGHJjsULzgNw2b/MswHgp3aZPT/8DfMggPl0bYbGatayr9FwdknWncFlDUeT+QgXCV7d5m+LkiTAoEFj92QI6hEvyebOJSjUVFb/pM6ApjHEtu9hPFa6wtUCEtql08WDmMD34ngjh5O6YXnxm860g+8fxAw5S+iIBV0AxasIyXY0YeB+4GMSx722VSF++Ii9GMWv5ZJ8yq9m5YNRFBRf7O0UZBfUZrJT/gwjXGhaq5UReGFJf5q6pBRhnJRnU5MUDNtzsFvJhXMovO3lfoAMc0KymvaDmFKuWoVwEHT2pkJw+MtZ6Oc1Zcf73De5bVdtvLVMN6grVgCukdXOiuwnNCDwBz/PtLnxNn3Y3BTHIpjejf5zZdBxxPnmVoe9qW7GvZP8yf9hSVyCKkBPYTG1cpRv7ApAcjBrbqG83YV8tyM158ljjfXFBBORbToiTvDVhxo8Gg6xt9DYVxiF+iPD/SavWVQ3qdi2e95WtGw00P6CpNZ//IaZ6IR9b18S+DukzqH8oka+fWr4/mvRxJ46XSfDbC0oM/lN2gFBWSFO1GakI9+GKR/fr8t0nCiLhMCcCmfvedUZfudCwFTRPlNepsJwxyHGtqwyWwdT9tdR7ZfsP1i1Z39PgugeYLh/XffJMcl3xn7K76DJzQpn6DuDykftB34/OeVxplBXdueUGRYGgBpBB+nSnCFCNTm2B7ws8u+w3vURQy4d54rREDzVm2ZN87LqBaoisyw8NP2Y4yyGoyeMu4H9MsBk1v5r9g4LXpbss2rpmCCigBB1vFnVTX9XMj5vdQqEgqAEAAAAkVAnfRw0AAABgckNQAwAAAEgoBDUAAACAhEJQAwAAAEgoBDUAAACAhEJQAwAAAEgoBDUAAACAhEJQAwAAAEgoBDUAAACAhEJQAwAAAEgoBDUAAACAhEJQAwAAAEgoBDUAAACAhEJQAwAAAEgoBDWAqAbfoikPbKUpz/ZQWk+aPIbpg2fFuvP6y6GNPhjTT7lEnQ8AAMYDghpAgqW72kRYeov69Hh8lbTujTfp+y/E0FmtpwWJOh8AAIwHBDWAqKqfUQHmjTpK6Ul3tLEeWm/XvKH2DQCgGBDUACB33Ay8/BhRW4sKr3JoImotRO0fAABYENSy+ppeXXOE1naPEl06TXeJx9bw6iU9izDc/bGYdprO63HFeK0m5/ttHw3r56xlmfO4DdLuuQvo51u6KGyOKPr2bKUpewZ8tSB7B/UM0gDt1dNUk5s1n/vkay3LnsezXPcyo1Dvu75r2OkHFrQs/R7e5cv1MfqNyfWS42q51rLk8uPwrJPc3gDRyljz1UaZZeys95xW3qpBWhY6ryLf25wnZB0LY5g+6BAbtWgVvd5QqacxbjZ9hmr1mCNCvzdZxmq6e1uMbdX7Iag81Wu85eLe//7n9XoF7LPYxwoAQIEhqEXU1fEZ3bWL6OyRNfSDGK43/Zh27vqY3h/RM+Ti6xs0c80VqupQy/rhxbvl8s3gZxvooU7++1k3ncknqbFDHTRl+TfUrGtArralqKXRf9JsaRQBoedhuirna6F3F4mg4O1AP3SUnvtqterHdOgorW89R2tP8rzi9T3xQsKJ1naa0kh0Ksv6RdJ7jOY8cJRmntS1PWI9efm5h0jBavKUZaGnhYlSxhwKvLVRJ2fTXjtc1bheL1bALhM1uMMQB9OzdcbzJ1fRCl6PooY1ofcbuqYfhuOw1E6bqprs9bvaRrRpedB+TYvpW2kZWfN6jr3qR6hd/PEfXwN09hDRirbVTrnI4NVBfUYZn9rAgdcfctU+4+NXl18+xwoAQIEhqEV17wy6fmQpPaRHKx8sowb6Cw3FCWrC7hd/QU9W6JF502m3+NP3p4AkVlNHIrsQPVpPS8rllDyk6N2Tzkk+tehhWiFOgddv6gmWRavoqt0Pq5LWNYkw1nuOzpgn1l6itU/X6BFxGq1ronVlenRo2B3qouL3NUJI6PpF1N7Z6qyTPsn3iXUrrghlfPMbOiHmW7vIqI0qq6PD263yzE2qoZWazX7/YlnNG8TfQ5/7Q0lB6GPCqunLEAjTXUephYOmsW2phiYRwEQoe8f/uhUcrOx5K2lJnTgK7UBYQ4uDtmvwc/Ee7vLse+cYnfDU+NVubxLHwCDt9dWWcRCeiGMFACA7BLWoZk8Tpw1DRS19eGQN/WaeHs/J3fRY5NdV087LF+iP+xso75wmQsMS62SUwYq6Gh3StOmz/WHDs6zaKlfpxCOW4XpfDi9fvOkOIZFV0+JYr8tTlDLW5Rlcq1QYs+5zlWThyVpGXcPINVIhTYtnekRk3/CIqwaQA9isKvEnINB7jyMOoWYNYu3Tq0TZDdJZo7arr4ebYc1y1zVs3uNYjM0U63viK8+7LppNs/RDRdVoHnY16wIATIzSDGqjXfRL7tflGvbQBf00wISSAZRrd1RTX3DIyYW3L5bVt63YvLfyUDVsTpOhCPe94o8d5JxhmQhSsZTV0FpX87oKZe1NxpW4Y8OyLGVTuut922kTrw8AwCRSmkGtvIF+z7VQrmE7LdBPA0w8px+aE3LihDUOaR3UIpuN9fLEoPq2jSNZw8bhU4SoDqs/o6rBog1O/zTXEOs2J7o51Gr+lM2entrTskpZAyebUYPeN2YTMwDAREDTZzFdukk79cP4CnPVZz7SvefoxEQ1JWalalQmNQ45Mqyl6ZqnKTRVxVHGP90mg4qnRikxwps485FqWC37mnHzp2z29DWthjRxAgBMQghqBVL5s5+If7+lT60rN/lWHru+1SN5KORVn3GM9dBzrWn3FXUTRdeUmM1esjZJj00WfJWm94pCGThEwJjl7d9m9WcL6HgvyefdV0LyrSqK2/Qpyj3gv9FSFw64Q6PsU8ZX4Bb0ClR1UUFLz1sipKfoXfuiFou+2OFQB26zAQCTHoJaocxbqm/Zoe+NJm/l8Sj94V79fFwFveozGlffnuXHqLYzKR2ra6jZuvWEXL8OIrFuxW7mc+7rpfs4GX2u4tzCgTvIL+6xlqmGZUPuK15t3J+Na9tc/byMJtKA5/fe1+IvE/M+YY280kb/ODN0RZpP7Ic2oues+fQwpzUlbyPivQJV9sdzrb8a8rn9RW0db/MgtYRdvMG1lOJYIV8/teJdwAEAUAw/ui3ox3DHUzVUfO8pXPEGAAAw8VCjBgAAAJBQCGoAAAAACYWgBgAAAJBQ6KMGAAAAkFCoUQMAAABIKAQ1AAAAgIRCUAMAAABIKAQ1AAAAgIRCUAMAAABIKAQ1AAAAgIRCUAMAAABIKAQ1AAAAgIRCUAMAAABIKAQ1AAAAgIRCUAPIIn16Hx34Uo8EGfmIXnp+H30yosdzNkyf7G2nbc930qCeEguvx96PKK1Hc3OBDjzfHridvP3bsi5Xb0PIfIPvFWD7IBDvn5dOD+uxYNH2IQAkEYIaQBbp67fo4sFsIeMWnb+c+WQZJn36MB0f5UfX6HiWE24m6ctXaGS0n15+74KekgkHq3zCpceXPWIbptLKjU9QSk9yXKC+y0QV9XVUraeEkqGXQ13EAeGDUnPvIeo+7N6XX3aK8gk/ZhHcACYP/KfsAFlxqNlP5xduoR1LK/U0Dz4xdpfRC81BQSUDDiav9RPVb6HNdJhe7iZa+ett9HiFfj5HfAKOtoxhGnzvML19+ZYIULxdw3Tg+S6ijVuoqnu/Do6Zzd/YQpvL1foH5T213Eq9Trf0VI/yhe4yk+VxhR6KUAZyuf335F7mFt5nB6/pEWFuA+17aoEeCWDN713nBOAay7dHjfWS60r0q1caZTj2llXeZQcA4wZBDSAKeeL7TgSgx2jotS66qCdnNzVDaOLmRrEs48TvO+H66NfosZx5w4gdMGfQcRnURPi6Xz+nZTypBwYrM9haAdC/3MBt1cE1ckVfQUKTWt/j5ckLatmPB02W2xit1MEMQQ2gdJRsUHN/Eakv4qF6/8kCIBo+hg6LwBG/tsvNH9KUbKFBvS4o+GQjT/oUsFwrgAiylqyAQU3WEoa8NjyojVONmi1iUJsAGYNaWKjlML5wwN6noRJYMwgAfqXdR618hv4SGqahCE05AOEq6fHmiCGNT6AZO86HhTTG77OFVo520bZIfc0svMzgiwFCyfVsVzVqrzTQfD25cPrpePctml+PMFAUFU/QjldaaJ934LB5f6N/ujG8UD9VLwQAkq5ka9T4l+jxmbpPUQ6/0gFMskbjsh4xmg25NucArQ/ss6ZeE9LkadVeuZogdXBzTdO1PKOz7OarTNR7zhLvWSfeM6QfnUHWRnVPM5Zt1NRl6Hdms0Jm4GfLqVGT5SO2+aXROl9ZyXX21vCF1RKFyVArpLbR6Rtn9Znzy1KjZtQ4St7mY1PWeZ1yXjlqrp+xn7OVgb3Nallpa7vkezvNnQBQGkouqLlOrIGinfgATO5Q4XTE9wUFfZJNhfXJEsemv3kxKKgpVtgIapK06XCQcZ6sjKB2Pz8eoNoon5MIQS0t1u+AWD9vmYQHtXybPq2Q6w7L6dOdoowbA5abJajZMs+n9pV5IUfQftXT+KE9XS+X/KFTllFY06dglqFdHvVj9LIZFjPK1IcSAJKgRGvU1Bef3ScNvzQhT4Ghwj7pWuE/7IQbfiJWgk7oJuv5x2jl6KeRrsjMJLxmSRsR73dQvF+UPlsZan/M91EhxqzBCyvTApCfd77wI2oAyRzAHJnmU/vIrt2y+NZF70tPwA8qH5YtqJlhNZ2pPPEdCDBplWhQU1+GVodr88ss6MsOIJvwUKFP3nZ4ilNjawWx3ENL5hN5eECUr8tY85ydDGJz+7PWqJnTzJBjlqkKKiG38IjIqlHMFm78MgUwU4b5wsKhr4Y1ONDFDWpmACOjPN2C9gcATBYlHNQ+pSr9pYmgBvkyQ0UQK/hkra0KFDOoyZN0hibPbM8H0usiHkXalghNnzZPmMlWpqbon+GoocuUf1DLFjSdfVDgoGaX/3qig1aZk1rPqPfCi3xsAMBEKK2rPvlLS96xnE80t+j4a+ru5fILlO/YLh5n+69WAHLDJ28d0sqn0kj3/nG647s44et+SBe7g95PP1++kFZGPRFzkNIhYt8rW+ihfs/d7vW2xt6++xvpV3Ot/8FhmEZEkKiYGRAE5XrE/e+mKsV+EH9Gb4zrXfdT5dPEv9zfK/gqy6KFoQq+sv0WDY2qK9tT5U55ctDm/bhSlId6rK7s5XBmPQaA5CutoGZdrr5xlhjhJij+QjK/qFpi1HYAhJCBgmsu1Al6R/M2dezJHwXF/n8tF9BmHQJeWHhF/gjZZv9/o1atmPgMRKpF5vnF60Wwc2rR+DYhfHPfTvrk9D75g4e3lft97sujZrr6qWyfQREGu0XAnFvjbz7WP7Zc/4WUHNz/FVZq5lQx7xW6GHrZZBGUl1GFDEx6vEDUtoxlCJ2VVCW+39L9A2KeqfIxAJSW0r2PmvjiNE8m5i9NgNyo2h+bDGgiIHCNFTdXvmI0+/H9q369UJy0r9Hbef1H7dGlloqAKEMbBysOLjqkZe0rpwOanJ9NpYfmmp8TDoM1NKSvOi1qzZBF/p+h4u/lAX/Q5Q74Opy6B3e/sNTSx2i+rFF3h2W+6rNo+0P8SFw5l+jiwcLuc1VTl+n/gOVALcLvQqIRmkYVRjkAQGkoyaCWHv1OP2K42S3kQ/dLkuHhU3ESdpoUZWgI6tPENbsc1sRJdrzOm9yXSQUurt3jWmQOimJa4E1zdROm3cwptkOGS4daHgcdVXNX28/jhew64G+qs5prK+obnPWP1czK62yUgR4OEN9jTs8iqG3kwdq/Xc68xo2Do87HtYUv1JPd5cIe8mkKF8Gfb04rm9SzLs/a5/16HABKQcne8BYgf1ZIU7VTKd1hPFIn+5zopspcLyZw3RojuAZNdkbnqzuzLdu1rPBO5maneTlPhP+UPZDnwoLgMtDT9Fg2hd8vCSfLUPVTlOxbfqjj1rywQD02/99VVbbWlfEAkFwIagAZ+G6S6gk0UWS/si6XoGaGlyjNm4oKbBnmlyf9GPfZsq86zHTVp1EraXCClXd+yE/m8rTDO252CzApIKgBAAAAJFRp/6fsAAAAAJMYghoAAABAQiGoAQAAACQUghoAAABAQiGoAQAAACQUghoAAABAQiGoAQAAACQUghoAAABAQiGoAQAAACQUghoAAABAQiGoAQAAACQUghoAAABAQiGoAQAAACQUghoAAABAQiGoAUQ1+BZNeWArTXm2h9J60uQxTB88K9ad118ObfTBmH7KJep8EY310Hp7WWLIVnb2/G9Rn54EAHAnQ1ADSLB0V1uBQkslrXvjTfr+CzF0VutpQaLOF1FZHR3mZYnh1AY9LWEKV8YAAIWHoAYQVfUzKsC8UUcpPelOp0KOUWOWb+Cxg90zVKsnAQDcyRDUACAG1UQ6p5Xo3ZO6Bk4Oj9DZPQN6HgAAyBeCWlZf06trjtDa7lGiS6fpLvHYGl69pGcRhrs/FtNO03k9rhiv1eR8v+0Tpzn1nLUscx63Qdo9dwH9fEsXhc0RRd+erTSFT6CePkN7B/UM0gDt1dPcNSXuWhJrWfY8nuW6lxmFet/1XcNOP7CgZen38C5fro/R90mulxxXy7WWJZcfh2ed5PYGiFbGmmcedxk76z2nlbdqkJaFzqvI9zbnCVnHQkl3ddCm3pQIaa20rkxPlGqoeXuNfpwDb3lk7Mvm3q+h5ZFxX+RexgAAEwFBLaKujs/orl1EZ4+soR/EcL3px7Rz18f0/oieIRdf36CZa65QVYda1g8v3i2XbwY/20APdfLfz7rpTD5JjR3qoCnLv6FmXftxtS1FLY3+zuItjeLk1fMwXZXztdC7i8RJzHviHDpKz321WvVjOnSU1reeo7UneV7x+p54IeFEaztNaSQ6lWX9Iuk9RnMeOEozrdoesZ68/NxDpGA1ecqy0NPCRCljDg/LjxG1tejliuHkbNprhysRdozXixWwy0QN7mZBDqZn64znT66iFbweRQtrw3SmRxwNix6mJa6Qloeofdlk8OqgPqPsTm3gkBUQrDLui9zKGABgoiCoRXXvDLp+ZCk9pEcrHyyjBvoLDcUJasLuF39BT1bokXnTabf40/engCRWU0ciuxA9Wk9LyuWUPHANiHMCSokT7QoRv67f1BMsi1bRVbsfViWtaxJhrPccnTHDRi/R2qetmhNx0q5rcmpWhoYz1IZkwO9rnCBD1y+i9k6jtqf6EWoXf/rEuhVXhDK++Q2dEPOtXVSpJwgcVOLURAmphlZqNvv9i2U1c9g59HlxaoXGBuhDsf9X1NWMe1+9vneO0QlxnLze4JRd7fYmsW8Haa+vxjTi8Q4AkGAIalHNniYii6Gilj48soZ+M0+P5+Rueizy66pp5+UL9Mf9DZR3TotYA+I7AU+f7T/BeZZVW+UqnXjEMlzvq2tZXCEksmpaXICLFnMWpYx1eW5anuetLzKYdd94R6jxMEBnDwUFxBTNXER04ivPz4OIxzsAQJKVZlAb7aJfcr8u17CHLuinASaUDKBcC8RhrRB9orx9tqx+VyVmbFiWkWwid21vO23qVbMAAJSa0gxq5Q30e66Fcg3baYF+GmDiOX2k1P3KQvpZZcUhrYNaZLOx08dK9bsqkrJK2Zx4omdARM1xpN93hdm3zxxiNh0DACQZmj6L6dJN2qkfxleYqz7zke49RycmqikxK9UcNqnxxQoyrKXpmqcpNFXFgcs/3Tb4ObWIP+1N43lvtxpazH3gvP0Wiy6kiTNPWcsYAGACIagVSOXPfiL+/ZY+ta7c5Ft57PpWj+ShkFd9xjHWQ8+1pmlF22q7U/aE0TUqzlWlujZJj00WfJWm7xYjPTwhRbO8faqs/mzvhFzBKZ93X2nLt6YodtOn6sAf1M9O7JOiXW2qL2w51BH/VitBspUxAMAEQlArlHlL9S079L3R5K08HqU/3Kufj6ugV31G4+oDtPwY1Xa+SYeNq+wmTg01W7eekOvXQSTWrajNfIJzjzLdF8p+/zj3jBNxrKGVFvdYy1TDsiH3Fa827s8mb4HivKerP1vA83vva/GXiXk/sUZeaaN/nHnrlajz6abbUxuM5+XwOS02miDN+/Et45pPedsUNW6GrajzydpHcQyQr59aHhdmZCtjAIAJ9KPbgn4MdzxVQ8X3qEpGMAMAALizoUYNAAAAIKEQ1AAAAAASCkENAAAAIKHQRw0AAAAgoVCjBgAAAJBQCGoAAAAACYWgBgAAAJBQCGoAAAAACYWgBgAAAJBQCGoAAAAACYWgBgAAAJBQCGoAAAAACYWgBgAAAJBQCGoAAAAACYWgBgAAAJBQCGoAAAAACYWgBpBF356tNOXZHkrr8YIZfIumPBC+bPm+/Lwe9g7qJyIo2jpPRlY528Nb1Kefslhlvb5rWE9JgmH64FlzvdvogzH9VJCxHlofsn0AMHkhqAEkVO32N+n7L8RwchWt0NMgRxzSGgdpRVuLKks5PEO1+ulkq6R1b+h17qzW0xJGh8NcfkQAQG4Q1AAmSvUz6iT8Rh2l9CQorL4eThDV1NxQqSaEsELx4SzzJVpZHR2eVEEUAKJAUAOA0rZoNs3SDwEAJhsEtay+plfXHKG13aNEl07TXeKxNbx6Sc8iDHd/LKadpvN6XDFeq8n5fttHw/o5a1nmPG6DtHvuAvr5li4KmyMK2Qdnz4DRj0UN7iaLAdqrp6W72ux5vH1erGXZ83iWm3sziHpf2T/I05/ItayQZhZvfyy5XnJcLddaVt79jzKWnX89pKB19vaZ4vLLk3t/baVlh/QTEyzyvpBlovpgWf3F1BDU38q9rHz6ZLnfK/jYdR3nhrDp0RVoOzzHZea+idn7vUXZZ3a5LT9GJ8R4S6MzHw9B5QgA8SCoRdTV8RndtYvo7JE19IMYrjf9mHbu+pjeH9Ez5OLrGzRzzRWq6lDL+uHFu+XyzeBnG+ihTv77WTedySepsUMd4ov1G2qWzSNv0tW2lPiC9X9R85funJ6H6aqcr4XeXTRIy7xf/kNH6bmvVqu+M4eO0vrWc7T2JM8rXt8T78R1orWdpjQSncqyfpH0HqM5DxylmSfVsng9efnxTyDn6LnlvI0FWDeryVOWrZ6WBz5pzmlN2eXGw6kN+skkkPuig6hTr1/ovkjTpuUiZFKTUT6eY0+Gkg7qM/qcndog5jFCjhlaZWCV7++ECDNwROkHmGpoVeUpjnN7f4v1eK5VrNUGsa7ba/TEHMhg2kEt/Hq9Hd9/8QidjRP67CbPbPudg1c7bapy3vNqG4kyDziOs3x+vOXWbu1bPTQntEsdwGSEoBbVvTPo+pGl9JAerXywjBroLzQUJ6gJu1/8BT1ZoUfmTafd4k/fnwKSWE0diexC9Gg9LSmXU/KQondPOv1XUoseFl+yabp+U0+wLFpFV+1+U5W0rkl86/aeozPml3kv0dqnrROUOGHVNdG6Mj06NOwOdVHx+xr9a0LXL6L2zlZnnaofoXbxp0+sWyy8vSed5aUaVovliWDxTv61YXkRgWGvCCPtncnul8QncvvkXb06NNDLTv928KmkJXXiKOz9hq7pKX3vHKMT4jh53ehLVru9SeyLQdqrAxgHKyswyOAijysnRMTph1a7nUOj2N+tHBqH6YNWtR5X44Q0fn2HSDy+kFdDzbGWF0266yi1UDWdMt4j1dCktivgOC7o5wcAYkNQi2r2NHHaMFTU0odH1tBv5unxnNxNj0V+XTXtvHyB/ri/gfLOaSL4LLG+eDNYUVfj7tw+fbY/MHmWVVtVgE7YYhmu99U1BfF+nVfT4kL+qveVXYpmcm1Y3FBaIGkRoE8UelsLzrt+lTSrSvwJKDvvcaRClxVCB+isCKW+41PvixNfFXNPiB8sbatohaxpaqdNveJHT1vMi0DGBuhDEfzbxXaMn2E60yPKZ8MjnkAfti+SfkwB3DlKM6iNdtEvuV+Xa9hDF/TTAPnTJ7hS5O1Dx0NAvydv/y4e8u4HmMnYsGzelE3krvfl4KRmKSrxw+H1NhXNVrQZNci5uvmNCNciXE7X4+NC/NDiMuLuD66yS05/RgAIVppBrbyBfs+1UK5hOy3QTwPkb5iuDYk/3lrAUmD3oTOGgFuI2P2UjKGot7coq5S1Qe57ohlDEZsNJRFg57SmqX1Dnv0dg2qoi07XALv6xBkDbhEDkFho+iymSzdpp34YX2Gu+sxHspvXVHPYuNPNVyvuy3x6U2VXPKkqfv80XTP7D+p+a8kV1oSZzXg0cYYZoL2Nql9Z83bdx64x5lWaOnDGvegmnvDm5rzobUHfNYDiQVArkMqf/UT8+y19al25ybfy2PWtHslDIa/6jENf3baibbWnb8sE8J3g+Cq2DmrRY+PH6UxudmqfxaHNuOiCrz7kGpiikp28zc7gokyWHyNalNz6kb49vM+y34TWT1/YcqijuE2sPnxLC7XOqiO+7q8mfkQti3Vrjhr679yE6tsOse8KcKuWMLVP6z52BX0PHZ5bj8a+RQoAZIagVijzlupbduh7o8lbeTxKf7hXPx9XQa/6jMbVB0ic9Gs7k3LH9hpq5tsB2P1s1C0f+FYZxVRbJ8KB6xYP+hYHnuYidRsHdYsJnk/d4oSvSHRz+nbpvlVGvyGnOY1DqJ7Pd68qsybHWybqlgqv1+mnE4Fvn2Gt+1ZaNuS+ujcn3Cwrtpd8/dTi3ColWhn37VH7yfVjxeqvxuUeI/jIiyT0LS+cbficFpvNt/JWJPo5rs3jQK6PLbPPYKbbkbiCoLw4RxyPxvFmDfFvW8P/zZW66tbcx/GXBwBeP7ot6Mdwx1M1VHyPqkn9X+lAYqhaRb7HW7JvHwIAkFSoUQMAAABIKAQ1AAAAgIRCUAMAAABIKPRRAwAAAEgo1KgBAAAAJBSCGgAAAEBCIagBAAAAJBSCGgAAAEBCIagBAAAAJBSCGgAAAEBCIagBAAAAJBSCGgAAAEBCIagBAAAAJBSCGgAAAEBCIagBAAAAJBSCGgAAAEBCIagBwOQ0+BZNeWCrMbxFffopmzXPsz2U1pMm3jB98Ky53m30wZh+KpAz/95BPQkA7hgIagBRjPXQ+gk4Uaa72sQJOiCA3Ok4gDUO0oq2Fvr+izf18AzV6qeTrZLWvaHXubNaT0uaAdorjvf1XcN6HAAmCoIaAEw6fT2cmKupuaFSTQhT/YwKRG/UUUpPmnycYNec1FwHAEWDoAYAk9Oi2TRLPwQAKFUIall9Ta+uOUJru0eJLp2mu8Rja3j1kp5FGO7+WEw7Tef1uGK8VpPz/baPhvVz1rLMedwGaffcBfTzLV0UNkcUfXu20pQ9A3YTntU/xt2Up5o7eJpqcrPmcze9Wcuy5/EsN/fmQaOZxdPvyLWskOZHuT5GHyS5XnJcLddaVpxmHLlsfv3yY3RCjLc0Osvjwb+t7vcMbbb07Af3fM4y5rTyVg3SstB5J0bkMpb7U/XBsssydBty7buVgbf/Gh+jHq7j1xA2PbpCbUcuy8k+b5R9Zm/7Ax3UIsZPtLbb83nnBYBxchuy+Or236/+p9t/JYdTt8/pqX/+54/E+Ee3D6fNced5Rb32b/95RI9b8/GynNfevnhKTvv7i3rcdOHV2/f8lxox/N3tD53F5Oz8q393+ycLePift8/racPHfifGf3f7/VE94faF2/8g5xHD1u7bw3Lan2+/v9Uc18va+rvbT7564fbtgf8pl/GkGH9/VM/L03NivG+m9Rvtvv2kmOcfBvS4ptbHWT/1Ol6W8Vq5nv7XRhby3i56nieP/VlPsMrd2SYpYD45LaDc1LZ4Xp8AThkbZRJUxnqaHOzt8x9T9jFglIF3/5vvGTS4ytOW+ZhU+8d/jOV+DGvW613bJtbhVXPcoD8/zmcwRMb5spcdc8rPmB76uVDLDC5TABhPqFGL6t4ZdP3IUnpIj1Y+WEYN9BcaGtETcrT7xV/QkxV6ZN502i3+9P0poM6spo4a+e+j9bSkXE7JQ4rePel0uE4tephWiN/X12/qCZZFq+iq3aenktY1VRP1nqMz5i/0XqK1T9fokTRRXROtK9OjQ8M8JXf8vkaH8ND1i6i9s9VZp+pHqF386RPrVix97xyjE2IbXjf6TdVubxLvO0h7zZqIm9/QCVG6axcZ/avK6ujwdqs8J4/2TqPfVPVqencRUUuPvyZKdvq3t6+SltSJo6v3G7qmp6S7jlILVdMpowxSDU1ieWna9I5aXqqhVV808Cad2iAmyONFd8oXw+Fs/dUC1G5vUe/RyjVNw/RBq9qHV2PuC+sYcD4/THyGthevj1yUsjON9+cCAPKDoBbV7Gni69ZQUUsfHllDv5mnx3NyNz0W+XXVtPPyBfrj/gbKO6eJ4LPE+oLOYEVdjfukMn22PzB5llVblftJ0kcsw/W+HF7ECTheB+pqWjyuHa8H6OyhgLITYzNFeDnxlRFddXluWp5H014ieMu4kmZViT8BQd17fKjQZYXyYTrTI16x4RHPVZvhyyscEaLaVtGK3mM054F22tQrfsy0xQ1VYcdAMeVaduP9uQCAfJVmUBvtol9yvy7XsIcu6KcBCm5sWPa58vbpmSJP/moWmwygXNPGYc2abxz6nXn7bfEQdH+xqPMVjPgRwGV0qMP3vstE8Ck6sT9eb1PRakWbUTOcK30MFORHS2QTXHYAUHSlGdTKG+j3XAvlGrbTAv00QMGVVcoaDfd9vYzB15RWQ83Wc/JeWnzBQJHDmnWrCnMIum1F1PkKRtU60oYm//sW/b0FEUz5oo32DdUyaOd+MYymj4HxbUac4LIDgKJD02cxXbpJO/XD+Apz1Wc+0r3n6ERim0xUc1PRZT0JBzRxRsXBSIa1NF3zNIWmqvg065+eTHGb/sajiTPMAO1tFMlMBJ3m7bqPXWPcwKyPgZ6BcdyOYpVdHsczABQUglqBVP7sJ+Lfb+lT65YdfCuPXd/qkTwM9FAn//2sm85MRFIb66HnWtO0om21pw/MBNBhyemszrcZULcRKD594mo9GnIS1xddHOrIegsDvgWC7xYj8gauKZrlbXaz+rMFdApPmr49vC8i3IQ2QO3Tup9Y7FtixMG3tFDrrDri6/5qXLsZaz2sC2+82yHeZ0/xmo6LU3Y6AB46Osn7UQJMfghqhTJvKV1v+jHt3KXvjbaL6OyRR+kP9+rn4yroVZ/RuPpZLT9GtZ3xrqgrvBpqPilOSnZ/nA4isW5Xdf+i4hIn4TfUFZzmPc1cgYtrxsT6ka+fmvuiAe5Iv7jHfH4rLRtyX/Fq4/5sXNvm6oM08fdRU9xlEboNUVj99gL6WsVpinTu2ab7CBrLtZbXt0c95/oRYvVX4/njBB99DDjHKA/iOH3aaII076HHtXkcxK2+imZfwKjzFbjsLPYVsXY/StxHDWAi/Ijv0aEfwx1P1VD1tbUkJJhBUnGt4JzWFJ2aNP+/JgDA5IQaNQAAAICEQlADAAAASCgENQAAAICEQh81AAAAgIRCjRoAAABAQiGoAQAAACQUghoAAABAQiGoAQAAACQUghoAAABAQiGoAQAAACQUghoAAABAQiGoAQAAACQUghoAAABAQiGoAQAAACQS0f8Hjmw/Zl595AgAAAAASUVORK5CYII=;" vertex="1" parent="1">
          <mxGeometry x="291.15000000000003" y="340" width="237.69" height="90" as="geometry" />
        </mxCell>
        <mxCell id="gXnHDSjm7eshs8PWAosT-15" value="" style="shape=image;verticalLabelPosition=bottom;labelBackgroundColor=default;verticalAlign=top;aspect=fixed;imageAspect=0;image=data:image/png,iVBORw0KGgoAAAANSUhEUgAAAuMAAAHaCAYAAACq4EdcAAAAAXNSR0IArs4c6QAAAARnQU1BAACxjwv8YQUAAAAJcEhZcwAADsMAAA7DAcdvqGQAAKewSURBVHhe7f1dbBRXvjf+/uZICRLcBMnQFomwjRLnTIJsiJQmWECC9CBz8rcMnoCjx0MCGf1P2iGPcmOZ7NEQOzbMyWDCTTQBPDraQMJmC8NgsJyEFltygpGD/UjB9kCeg5MNBg3EbVtibogEN33WW3Wteml39WuV7e9HKrerurpeVlV3/2rVb63+TZwhAF9M0Jn322lXaYQeNleqafk11b2bqv40QDv/c5j2FmaVAAAAAEn9P9QjQOFNj9DZAaKa50NqQp5N9dCHLBCnt75AIA4AAACBgGAcCibWc5TOTKsRZujYBeqlCmqqLVZT8mWa/v7uKnru1RaiP/8X/fTHCjUdAAAAwF9IU4ECUmkpA2qUBeJ91xoprMYAAAAA5hsE4wAAAAAAPkGaCgAAAACATxCMAwAAAAD4BME4AAAAAIBPEIwDAAAAAPgEwTgAAAAAgE8QjAMAAAAA+ATBOAAAAACATxCMAwAAAAD4BME4AAAAAIBPEIwDAAAAAPgEwTgAAAAAgE8QjAMAAAAA+CRFMD5GHXXd9GTdtzTIxiYufs3+Z+NHx+TTATF4lG9jN227OKWmBMEUdX3It+tr6ppko9e/lWX34RBNyBkKYJT2v7CKnuPDJ6NqGgAAAAAERVo148XPLBSPtaWLxeNcJAL7fATMSxdSLX8se4qKxYR8m6a/v/s2nXjrC/rpx2H66Y8VajoAAAAABEWKYHwxlZazh/KFVCInBNKaxjp63F1HZzcvUVOCYAmVlPFHVnZLxYTCmhqgr65U0V/+bwThAAAAAEGVXs64qt0NPxOkoHeWWPoUhdlDwe4q3L9J/epfAAAAAAim38QZ9X92JodoW+Qe9ahRXqve3/0arVFjJp5LfYV2JNLOF9DJztepPlF7rJ4ve5Ee/+5flmXWRtZZar95Ssn6qBph9u+roz0r1YhBbNc01bN1lJzT5i9/mu4eCMuUEce22+jzCjyX/gbtVWPOfcgEz+9+m06sa6eBv9VS1pc7Iwfpuf95m/7y3WF6A9dOAAAAAIGUm95UVDBLLFjm6SJi6FxIB+0NPfl8dSzQJhbcGvN1v0x0ziVHO3qDnhRBtJpv32Lq6bxCHdfV84yRnvK482mZj53UI9oRYYE4sQBfrPNF2j92j5Yb27c0TGfV9vRXs3EefKtxMbgF4tXGsvjwLI0fyjLPfCRKJ/jjlYt0OUjtUAEAAAAgb3IUjP9KPbSA6l/SqmB5gNvIE85Ng+fuUY+jlnkJ1Tfq4wZes67VNq9cRvvZw9A/M4xUefCc2J5yejuygAX890UvMWmZ/BcNsYf96/R9K6c9ln3KQGU17eSP6zbTBtRkAwAAAMwLuQnGRS45r31W3fi5GqPvokS1G8u8Ba2ORqMs4O3OvJGmNXg2eob5le4k3d4kVO733o+6LbX02augvbzXk1ykqDDDX/8HAnsAAACAgMtRMM7TPF6k/SodRPSnrfomT1A1yrO/8Se/KFhHJ1lszwNyua8zXYQU1vAnsl/x3tdzF9gDAAAAQH7kJhgXZM21yKHex3sMeUDr9YBc1ShnnGYSKEuo/oDaV5GvnuquQOGs+iMLwn8cppqvWVD+bg8h/RwAAAAguHIYjGtWvqYCcj0NRPZZ3tN3u4C/QJnc4JUH7PqhiDbYekApKV1ANMa2W42nxO8KqIB8PKtgXP1aZo4C6FWv/x6NQQEAAAACLifBOP+ZfHv+tAh2LT94s4Tq32IBut6LiTBFXUcL+RPxzPVvRReH+99yNrqUueQP6GCyn9Znr7X/7P7ED9OiAWtpNl0bojcVAAAAgHknZ/2M2/v8dvbNrTj69E7Szzjv/nDGHkrsfX3rtD7OXfsQn7lfcH5xsbzzkRpjbPvieD5pn+rpQD/jAAAAAPNN7n70J6hUMB52+0GguQzBOAAAAEDg5SdnHPy37Hlar/4FAAAAgGBCMD5XLSmlFTRA//b/HVUTAAAAACBoEIzPWfxHhL6gnV++Lfodf+4TBOUAAAAAQTP3c8YBAAAAAAIKNeMAAAAAAD5BMA4AAAAA4BME4wAAAAAAPkEwDgAAAADgEwTjAAAAAAA+QTAOAAAAAOATBOMAAAAAAD5BMA4AAAAA4BME4wAAAAAAPkEwDgAAAADgEwTjAAAAAAA+QTAOAAAAAOCTwgbj17+lJ+u66cmjY2xkiro+ZP+z8Y7r8mm7waPy+W0Xp9SUWWRyiLbxfTWGD4doQj1lYZSJMYiyyUKaywtqGU9c/FrbrjHqEPvzNXVNyufzY4QOrd5Ni1YfpSE2FutpY/+z8YMj8ulZZYLOvM/3ZTcdGlWTZpPRo7LsjSHZMfA633w1HaU39fJZ3UZnptVzhsQ88rwPiqGD+nanOo+Der4b26XK3Thf349STM4AAOBnzfgSKinjjwuodKmYEAgiOE0WOKdjaZjOdtfRYzb0V6tpbla+JuZ53L2OTparadnI9fLyIP0yXkylYl8WUkkBz5VQaUg81jwvHyEVeTHzZk/W7x6iikZ6eO0wG1roeJWa5sbrfPMRD7I3XaDehogqIz600vYi9XzAhZvVNl/aQjVqWrBkcL4vK5P7UlpM+FQBAENhg/GlC6mWPdSWLpbjKaxplMHs2c1L1BQwarITQ5YXDkEt4+JnForH8DOF3K4QLecBXVUZlcgJs1gxbf9cBjNNFWoSzCuxgavUy87p4+9UqilJFFXTaRGoN1JYTZp9gnq+F1NJKX8MUcksuQgCgMLzNWe8pHQB+1vY2s7ZS6ZqrI8upn5R862GJqIvZmMaT1rUXZRydq7ICYWharHCpcVyHGDWQRAYKEXF4oIHd9sAQPebOKP+Dwxe+7s+qkaY/fvqaM9KNZLAg9MbROy5t//5NS3vfKSm82D1NVqjxgz2ZdZG1pm1wTy/O3KPeuSYU/nTdPdAmBIhmWP+BXSy83WqT3JRIdZ927YMB55Df4V2lL1Ijxud+SVy+933zZ2X5akRxr2MFZ6H/tEDNcJU25YpymOa6lkZlJzTlquXW7plnJZR2v/C23RiXTsN/K2Whe75xXNZN1KEHr4zIdMA1PT2E9ZaOS/zGfPcev48rWiNEfGUAm1++zJT4zmq7bRrQI3ymtFLLqkJIoXhKm1jz5UcY9twSk2v2kK3Pq9mr7IS22nMw9S0tdDpWnm0eG692PYk9HkFI31CjSbdRkHtTykrl+aZani9zldAnsuYpzt00hAvp9LztGinmfTsPP4ejy8jj0uI+pLVeNuPg9uxT8xTYV1Osumeed8PY11h1/dCGsth7Oeq+7k58zFL+3wHAEiFB+OBFRuMv7H1XPzAP9S4xc34AfbcE3w4clNNm4yf3sPG9wzGf1FTuKtH+Hx98atqnLt65Kv46Zga0Yh5ba+3Yut1Xb778rjUy+TUtif2Raf21fW5ZGZanmbGMo7Hf/nmK9u+uWyLWgY/Fm98M6kmJt9mb+WRhuGO+LO/rWTDe/GzxurzaLDjvfjCVXw4Eh9U0yYufMzGP453TakJjDmfOd0+n5hn98fx+o7heHzkiHiuno13Tf0S79rNnuPTM6WWp29TwtTFeL3Ytvfi9ReMIzEc/5RPs61T7oe5r9xgh9ty5evN5blh8+y+GJ9QY5xcfpLtZGeJt3LIQXnlmlbG5na5lbGaJoaZzinnax3ziGNuLMtlSFI+8jy0HpcEtUzzuKqytp0TnhnlYlkfW2ZHkvWr+T8dUePJzHS+M47zWC3Xcr6m8b4wps98vgMApDb7uzbkNaqJWtoltGHjAqKxX+mOmsJriO/cZg/Vyyw1ymsak9dkz6yc9thqcNf87mmqpUfU9UOe0kWu36e97GH/OmcNd36N0Redj6g28rJWVmz/9y0miv7s7Nmk+kUt97ycXuUNV2//i3LQnG9mldW0kz+u20wbCpZizmvgzBrBUNUrVEMxuntfTUiw1tSFardSO5vv7IBWKgNE2xJ5vTFWjhGzZm98Ir+9LjREtFq8SlrfwB4s65ygO+PsoWGtpfYz3Jy89nFmldRkq30Nv8Mb6NnKZC7hdzsStfWVtKON7f2p7509l/DaV62W2X5OxXrOUwuvidZq/kO1ETpeFaNdx1QvMokGrYfpFl+PqLmW42LI5K4BWyZfVm9rp+gRJNbTSbsGrOd/OoaOXaBeRy18MW1vttXK59J0lA6d4ncatG0uqqbPxH6ddx6LlO8LAIDcmfXBeO3GshSpDSrfOHoj+24Dk1n6VEZfSoEnLgIWUP1LtghXNMR9ROO2YLzwFwuGCtr74zD9VIAUlQQWKG3wEow65pONRHtval/rtnkKmaPeXp0qOFMN0E515q/bQJVHO1fZy1j20hOjO/YuBu09bKiGlTI1Y4IuR9k5Y7soShyfPAeKiaB/026RolHTpl0wpmWE+llQXMPKJG+Bt4uYaMxaQettaS7JjkXq9wUAQO7M/ppxD3iPIXcjC2RArnohyaZfbaMPbHO4IWqu55qJf/7K/j6iHRF9X9kwU+43zDm8izlRy8oDct5HcpbdFyb6b08MndSinvMdzxm2bBsfXPrf9jpfzsToLs+L1o6BMei5/PlTTNvbVBeDVVvos0xzoqcnRBkVulH0HXHxO0obbWWn5+cDAPhlXgTjXPHm11UPJLL/7Z7OKxkF5DwQ541FeYPHRI8m3S/SfvV8XqguIfdeyVPNfhKye0HeOFXfV3NI2uAT5pxQbatKdZD9efe2tmcUkBuN33jDxETqxLUItavnfZfo5k8fXNIxvM6XM6rbTUuf4dpgb3iZcyN0iDfYbKig9oELtCLTuyTqLsjQeGFTkkpE7yW2lJ3EkGnKFQBAbsybYNy0hOoPqIB8XOshRBHdLVpyznVTdLnvkchTf7uQgejSMqrnGSDR+zQopxRGknSUbM1cxpngvamsoufe7WFHKOCmR+jswGy+Dc77c1YBuZ5qI7ik4FioVIuqLbQjrR5i5pah6Kj3NKeEwqSjJDN0kN+94PnqjSrnvTPDX7pU50h0pKD7kTQ1KCupzvcMTPXQH/hn2QsHaVhNAoC5bx4E42PUYf9hnMnb1DXm/uNDsjb4AR10rTVX+edj03TZCFDFz97nO02FXUA08UaiD2h93bfWgJytvyNf/YwvDVNzNdHej3L7M/Qzl3EGRqJ0gj9euUiXAx2NT9CZVtl4bfYEoyN0yP7T3eqCwtlXspFfft75k+uCen7gKl02nhfpHgFKU8m30aMiraQ9kn5Ntmjomk2tdIb43Qyxzarxo8wfJ2rZmUlaDruYi7CT37Ef7L1xMI8/EV+xVeW85zKVKNX5noH7N6lf/PMf9Fl3Tq8cACDAAtjPuOw/3D241fvZlvMN6f2FMzKNZKG1P26XPq5n6lfbSEVJsPSBrfrvTmSM8G1aRt/ZtsWxDI3ex7m9v2+dcxvt62Zs/XN7W57XMpZc90VfryrfsG17Z+pffeYyTpcP/YyP23qDEP0TW/tCtvfNLVh61rAtiwVqPIdV9i2t+k8me68TKajtMPvw1ug9WLhsLzfTvunLTN7/ub3fZ3u/y/bneerAWuo3+tlW87mWnaKv2+t8vnA9Fm79YMt+xlts54Y7Na8aM7jtq0wJSt7P+Ez9ZSeOmTonLecOl9g3fvwySM9xlI29XNz3U9LW6VrGin2bmZTvSbU8T+8LIdX5nq5p+vu7/4P+7QrR+j//F/17HfJnAOaDQP7oD8BckPwLHOaFJIEdwEymundT1Z8GaOd/DtNedOoCMC/Mw5xxAACAAJrqoQ9ZIE5vfYFAHGAeQTAOAADgK56esoqee7WF6M//RT/9EbdSAOYTBOMAAAC+KqI3/jZMP/04jDxxgHkIOeMAAAAAAD5BzTgAAAAAgE8QjAMAAAAA+ATBOAAAAACATxCMAwAAAAD4BME4AAAAAIBPEIwDAAAAAPgEwTgAAAAAgE8QjAMAAAAA+ATBOAAAAACATxCMAwAAAAD4BME4AAAAAIBPEIwDAAAAAPiksMH49W/pybpuevLoGBuZoq4P2f9svOO6fNpu8Kh8ftvFKTVlFpkcom18X43hwyGaUE9ZGGViDKJsYOLi16I85LEfow5RPl9T16R8Pj9G6NDq3bRo9VEaYmOxnjb2Pxs/OCKfnlUm6Mz7fF9206FRNWk2GT0qy94Ykh0Dr/PNV9NRelMvn9VtdGZaPWdIzCPPe8gl432oyt04X9+PUkzOAADgZ834Eiop448LqHSpmBAI4gIgWeCcjqVhOttdR4/Z0F+tprlZ+ZqY53H3OjpZrqaBzWIqFWWzkEoKeK6ESkPiseZ5+QipyIuZN3uyfvcQVTTSw2uH2dBCx6vUNDde55uPeJC96QL1NkRUGfGhlbYXqeeh8JaVUQ1/LC0mfKoAgKGwwfjShVTLHmpLF8vxFNY0ymD27OYlaso8Z69Fr/uWBtVTc03xMwvFY/iZQh77EC3nAV1VGZXICbNYMW3/XAZgTRVqEswrsYGr1MvO6ePvVKopSRRV02kRqDdSWE2CXCmmklL+GKISXAQBQBK+5oyXlC5gfwtb2zlbibSNjx7Q/n3yAkUOy+i7XNTiB566i1LOzhU5oTBULVa4tFiOA8w6CAIDpahYXPDgbhsA6H4TZ9T/gcFTRdZH1QjDA9A9K9VIAs8jvkHEnnv7n1/T8s5Havpi6u9+jdaoMYN9mbWRdWaNO8/vjtyjHjnmVP403T0QpkRI5ph/AZ3sfJ3qk1xUiHXfti3DgefQX6EdZS/S40Z7vorc173Vbs+5UfOrMWeZaOv63b8s+6KXiywzt/J03x5+wWAeB1sZC/J1Q3z6MzfExYXB/Rh7NUr7X3ibTqxrp4G/1bLQPb+GDu6mjRShh+9MyDQANb39hLUW2st8xjy3nj9PK1pjRDylQJvfvszUeI5qO+0aUKO8ZvSSS2qCSGG4StvYcyXH2DacUtOrttCtz6vZq6zEdhrzMDVtLXS6Vp7NPLdebHsS+ryCkT6hRpNuo6D2p5SVS/NMNbxe5ysgz2XM03s6aYiXU+l5WrTTTPJ3Hn+Px5eRxyVEfclqvO3Hwe3YJ+apsC4n2XSPHOcMP+/djhvPsdbKwzmfl7JTZUbJ949s56h9+xznsNiumCh7y7HNsDwAYJ7jwXhgxQbjb2w9Fz/wDzVucTN+gD33BB+O3FTTJuOn97DxPYPxX9QU7uoRPl9f/Koa564e+Sp+OqZGNGJe2+ut2Hpdl+++PC71Mjm17Yl90al9TbkMRpXZG99Mqglu+6/WJcpP2+5/9IlpifK2jxvEdOv+Otbhsh2WY6bN+8s3XzmWl5bhjvizv61kw3vxs/rq8mSw4734wlV8OBIfVNMmLnzMxj+Od02pCYw5nzndPp+YZ/fH8fqO4Xh85Ih4rp6Nd039Eu/azZ7j0zOllqdvU8LUxXi92Lb34vUXjLNqOP4pn2Zbp9wPc1+5wQ635crXm8tzw+bZfTE+ocY4ufwk28nOeG/lkIPyyjWtjM3tcitjNU0MM51Tztc65hHH3FiWy5CkfOR5aD0uCWqZ5nFVZW07J7xye6/waZ+OqBHFy/57LTu3dXJyuv3ctu2bOo6W81ov58T2qHJJVo4AAEnM/q4Nea11onZ2CW3YuIBo7Fe6o6bwWuA7t9lD9TJL7e6axuQ12TMrpz22Gu41v3uaaukRdf2Qr15fyuntCN+ve7Q80cOIu8Fz96iHlclftRrpNY0v0n56QAcdr+O13lo5rFzG5iMa+qeaT43vvWLt4WXwygO2SUW0wXjd5BAdjPLaba0GfWmY/sq2uafzhjOvnR8zrba9+KUiUX7jmfaUUllNO/njus20Id/V4gm8RtKsAQtVvUI1FKO799WEBGvNZah2K7Wz+c4OaMlFA0TbEnm9MXauRsyazvGJ/Pa60BDRavwqaX0De7Csc4LujLOHhrWW2r5wc6YNASupyVY7GX5niyg7S5nMJZba3Era0cb2/tT3zp5LeM20VqtqP6diPeephde8ajXDodoIHa+K0a5jqheZRIPWw3SLr0fU1BqNN9mQyV0Dtky+rN7WTtEjSKynk3YNWM//dNy5yc4utm8btPMnVNtquwMwQidbY1TTpr0X+Llzgs106ryzR5gUZWeMW8+xCbocZduin9vTUTp0iteqa/tWVE2fif0/7zhmvMbcLNNi2lDNynzgtvb9AwCQ2qwPxms3ls2Q+sGpfOPojfx1G7j0qYy+lNJRvPl1etzNg2piAe4V2YDTkS8+Rt+xoNhZJrI3kp5xMy1EcORgswsNS4NZdREQva8F1M51TPwwTT1sHa/a0kxkI0x2YWQPssuesm6f6nkm8zSVCtr74zD9VIAUlQRbMJGUYz7ZSLSXByQG2zyFzFFvr04VnKkGaKc689dtoMqjnavsZSx76YnRHXtAae9hQzWsNFItHIGjoI5Pni/aEkH/pt0ifcMaJKenhOdLD1ygFTN17zf6PbvwCNG2Ktt7QbTjcLnonbHs5HgTu9DsjY6Y65weYcG59fjERKPXClpvuTBIfszs71V+UYGGsACQrtlfM+4B75XlrggqWUCueiLJpu9yow9sc9Dzs/NJBsu88abYH1FTrvW9PfkvUXOTCNYTwxXakeF1iKy1fkDfGX3BX7/P9nUxNWs173fGeZ74A1pvWScbtJxwmL3CzaqWlQfkqr/qbLovTPTfnhg6WeAVEDyH2LJtfHDpf9vrfDnDAlCeJ64dA2PQc/nzp5i2t/E7GEzVFvpMz59OkwhYeQ03D8iN/bBd6MXGecgsg3/L/lraGqQnXM3XeZUuq4BaBN5sX3ZogbeotadR2qivkw963joAQI7Ni2CckzXLPJCV/XnzgDWTgNxopGjt1UTWWBeS2J9OmR6z45yKtFUNPW84aW6bNmiNLT1bWkb17GVGqopIUbGl/MhecXjKi8s69TQYmLVkjR9PdZD9efe2tmcUkBsN43jjukTqxLUItavnfZfo5k8fXGo6vc6XM6rbTZ7y4lgvG1wa3ebWCB3igXBDBbXzIDrbuyRaOk0fT42y3XmRNdE8Fca2n2qwprR4VLFWSxGTdxpqqist5SZq7e2pPYkh09QsAICZzZtg3LSE6g+ogNyetsGIwNKSc66bost9j4jnPL+dcUpFPiVJR8kKK6+3FqtUFZmisn+dNahPmo5SMLw3lVX03Ls97AgFnMut8dmF91+uAnI91UZwScGxUKkWttrI+WYoOuo9zSmhMOkoyQwd5HcveL56o8p578zZL7vyOy8iINf3LVk6SlZkvr5IVRHvQ2caTNIUokKZ6qE/8M+yFw7SsJoEAHPfPAjGx6jDnls9eZu6xsj1x4dkYOnW2JFT+edj03Q5kRrCf/Y+z2kqfB0u+e6isSbvVvF3RnBsBM43skrDcRANOR/Qd0fv0163C5GVL7KLm0e0I+LTjxCNROkEf7xykS4HOhqfoDOtFxy3xoNthA7Zc3vVBYWzr2Qjv9ylgZ2gntdSBWS6R4DSVPJt9KhIK2mPpF+TLRq65qJWOk38bobYZtWoUeaPE7XszCQth3czaH/dCPXzVBs971vleLfsdPn5/iyIhpzs/Dt57Cr1Nmx11nRXbFW58flMOZrB/ZvUL/75D/qs268rAgAotAAG47wvapVzrPq/3vuRkYecSbBXTnuaiP6XsUy13PC+JL/sufI1kY9tybvWgvk1jbxWnQeexrJ+pWaXNBU9r1z0b656QuHjeqAsfn5fTFd53Vpee4eRp80bOK67n5huDKLvcnsaCP95/c6niRx541puedrK6dVqdhyiD5I0mOV3G/jP/rvkjeer0azOl95UPNLzYlerfrDzmVKg5zKLPFct73amBnNJVVJTG9EHiX1gw6YLFD5x2NrvshJu5rXm1lxfPZ3F8fym29TkkqbC+zWXr1d9amu50nqNrNf5/NSy09hGNoi+qTNMsxCpMaysXPLGM9lXPXdf5J1r52rimLGLB9HftuUC0sgf57nV6Qat/M7KWupX65GD7Cfc3tOLbKtAzrzxjM5jpaiStrHzr+VULMndKfnLtX0NLnnjhbgIqnyH/rJO/Q8A80Ygf/QHYC4QP5Qz7vJDIzA/8AsjdeGSUfAN89JU926q+tMA7fzPYdo7W7PZACAt8zBnHAAAIICmeuhDFojTW18gEAeYRxCMAwAA+Gqa/v7uKnru1RaiP/8X/fRH3EoBmE8QjAMAAPiqiN742zD99OMw/Xsd+k8EmG+QMw4AAAAA4BPUjAMAAAAA+ATBOAAAAACATxCMAwAAAAD4BME4AAAAAIBPEIwDAAAAAPgEwTgAAAAAgE8QjAMAAAAA+ATBOAAAAACATxCMAwAAAAD4BME4AAAAAIBPEIwDAAAAAPgEwTgAAAAAgE8KG4xf/5aerOumJ4+OsZEp6vqQ/c/GO67Lp2cyeJTN++EQTahxyFIWxyIbsZ42WrR6N73Zw4/kCB1i/y9a3UZnpuXz4KcJOvM+Ox4HR9Q45I4qW3G+y0G+B3TmPIdG1STIGXz2AEBQ+VgzvoRKyvjjAipdKiaAb/w6FiFaXiUfS4rEBIA5iAfZ7bRroIL6rh2mh2o4XVusnofCw2cPAARHYYPxpQuplj3Uli6W4+Afn45FqDQkHsOlCERgnpgeobMDRDVtWymsJrkrpu2fy0C9qUJNgpzBZw8ABJWvOeMlpQvY34VUgppx3/lzLIrZetlDVRmVyAkAcxaCwCDBZw8ABEg8oH755qv4E1vPWYc9g/Ff1PMJ/+izznPkpnqCm4yf3pPkdbHB+Bts/je+mVQTpKtHtGW5PC+p5Sbm+yp+OqaeMojtktOty+yLX1WzGNt+4B9qXCNfo80r3IwfSCzH7Xmj3Ph02za6lUEaJs+9F3/2t5XxfcNqQgBMXPg4vnD3xfhEfDj+6ar34gvVUH/Buqee5hs5wqYdiQ9OXYzXi+fZ/6zEunar+TvS33GxXvty+CC2xSC3yXWbxWsNcr5PR4znjOXp86RvsEPbLmNw2VfrOm3bq8rMvg+cfN3H8a4pNcEXXstOHSe+/4nzwGV/DeKcMedJeo6oZfH1u7OdH67lZZy79ueSTffKeP1M6+bs8znPO/OcTX6+y/PN7ZxVy7eXYcoyTvOYAQAEUCCDcbdAVEyzBZQy8NQDYRWsagG5cx7JDFpN7uu1v9bjOvSLhMS89osD57IkOd1yIeBy8eC2vXJb5HrNeZOtx6up+Nn/d6UIxp/9/ySNKArODKy0AEJ9eeuBjx6AJabb5xPjH8frd/NAQQYG9bvZOPtCN4OM9OjrNQMDe9Ch1mULHJzr1IKhxGtVIGIJ7r1ye60W2GgcAZQj+E62He7LKzyt7BLbOMP+i3m9nFN64Op+XOWy3IYk55M6D10DYiPY1MpTHptkAXQq9m3m2DT7cXQcb/eg2tP57lKWgst+py5jzvsxAwAIquB1bTg5RAejRPv3vUZr1CR3Y/RF5yOqjbxM9YnUinLas28xUfRn6pqUU4pfKqJaekRdP0zJCcIUXe57RFS9TFvHFN25zR4s04jWNL6uLZ9o4uLPtJcWU39juZrC1rH5ZTpZ/oh2nOM9k1jVRtbR48S8S2jDxgVs03+lO2K8nF6tZg/R+zQoxpXr99k6FlD9S0vUBKLBc/eop/xp+utmc9qaxhdpPz2ggxf1fZP276ujs4l51Xpu/yvD3miKaMP/S7R2op2vBy+Ztf1EK203GmFVrKV29jA07tzT9hNaLm7FVjrOdqklqvccEmPH38zr7aVX6LNEI7sY3cmw1wW+XrOxXiWtb2APbPvY2tJXtYVuNVeqkWLaUB0iGritzqc0jJ6nXQMhOt5WTTKTNonpKB06xfeh0cx3Lqqmz9pC1Nt6nobEBGM7rtJlvYxUrnR7tbG9PuNl97mxv8W0PcJOBvs2C7yh5Uzn1AidbI1RTVvEnIcd16YTbHmnzqveOdi40Vjz0haqYVP4eWA03nx4TStPr1i5nxbr6JS9rYwepY3i2Gjbmo7pCXH8rMeHbXeijKShYxeol5Wd+V4gCjdHWJmM0iFHjzByP5Oe76osre87to4o26GqV2hDYj+8lLEu1TEDAAiuwAXjEz9MUw8Ldl9dqSYk4xKwCqJh4iMaV8E4LQ1TMwtEe/pum4Ho5G3qYnHz/nVmQJ3oUSR6Q3X358YtiOfUa12C3fAz1u0r3vw6Pe42LzTW/O5ptr0P6DutS8HBKw9Y/MwC4MRFwBh9xy5QajeWsRBCt5hK2S70jLP5LZy9oqxprKPHB8K213u3pO4w/fTjMO0NSFxlqqD1RoA9I/t8KmfUEhSHaFuVVkKlxTMHqp6EaPky9a8SbmbBmC3g8aqGBU7Zb5Nb8OMuxoLVXpcylo3hzAuUUO1WFvzEWPBtvgOSvdYvjrJbVsaC5Bjdva/GDY48YhlYJwLM0e+phS3Jcq5wyZaXSxWN1MeC25adu2nRTnYMGyKZN/YsKhYXBHxZybtSHKF+FvA7zzvZG0nvTfslZarzvZJ2sAs5OvW9upDjXNaRbhmnOmYAAAEWvJpxjyb++Sv7+4h2RGT/2Ikhco8F81Zr1i1m8ew0XVYBugj4y5+mt20BPw9Y70YWyIBcLW+bpdb5AY3zOF173hjWs2A5I0vLqJ4F1HuvGBcAMvDe/5YWOE/+S3xx9XResa33Cu1Idt0AkAN3RLA1ShtV39iJgQeCFrIGtDc6wkIlboIuR3nNZqoeRJJx9svNB2fQ6HW+3ImN8z2M0a5NtvVuusAuPvJP1kpzFdSXuEuSCR6wtsg7RDy4F/th63db1Z73trZb93U176pRzpKuELsIrGHnVL9xjETgXUFNWuDsdxkDABTSrA3Gi59ZyP4uoJOddfS42zns0QPtlctofyJVRdZuO2uZJVlzzZexjk7yWmcWAJsBuayJpuoXLetKDBnVPKvUFSNVRdT42+4MLH1KBDQi5cVtvVrKDEAulTzP6yqt/WObgzU9IlxdYaZ9iBQVl5pNz8xu/vTBWQvsdb7ckXcFQnT8knO9+V63vPjopJaqCmqvYhdJ70fVxU+mtPIT6TQ8ANYCclV7XtPW4thPMWRyMVBUyc4LM1VF3KVpWGu5aPO3jAEACitwwbgMsn+lO0aaCafyyC3s6SgzKqe3IwtkqopIUXFJb3FYQvUHVECeSANJno6SjeLNz4rcb56qIlJUHGkwydJRCmeqezc998Iq2j9nfpwx2e33IJC1yvkkgmx7rrnII1f/K/Z0lBmJPHyZqiJSVDykwfgp4zSaQqSjJBHr6VS5/o3UJHLeL9AHLnnbGeE56SogN/ctWTpKNlS+vkhVke9DR7sCH8tYmqa/v7tqjn3mAUBQBa9mXNVim40hx6gjco/F07wfbI3KBd/70deJxpozEQ05x6bpi3PT1FP9rKVRpsTWY/+5fZVbrv8wjsjxHrtHy5PmlWdCNrDce+Vb+i66gE7+zl7TzS4M3uINU2/Y0mYKZZoufyOjtBNf5/H+fwENHex03Br3hwp2tPQO+WuNYiRvjFSBRAO86Si9uTNGNWxbLFSAvWvTUS3HNxnZkLM3ep5OsouJ9khmefEFwfb3A9FAMIM0Gha0Nom87QL/lProUVqhN2pU+eO9rZ2ZbQdbnv0n+eUFip73bQTOnS4/358F0cBylPoPfk8tVVtoh/2CyK8yTrhP/+eK/O/E5z3kx6cuAMwfAUxTKac9nSzgTeRl/0ylnXX0143qaY3M8SZn3rg9qOZEbvYj2ht9ZGu4aWDrbSL6X/py2EVA2NIrCcMuAs52v0j7XfLGO7RGmOkSee3RB7TX0nBTs/I1eszKhRx5494uRrIT7N5UvLHmPW8c30K3MunRIud4mkCE2gcu0Aqxbe10trqFHvJeI/JJ9cyRyAXedJuarrVSE2/UaiHTGPoaXPLGDzqrDEWQPzBKLQPBabhpsOQ9b7pAYUuvH+nhjRJvtZEzpzmTtBF+IWS8XuTia7nSxvLExRJ/znoBKfPHbaklXrFg/jPqtGz/itaQtVcSjs3HU1jIkTeeTaAs2xi0nBpNencqp2WctgqK/Nl+ZQoAkB+/4f0bqv8B5qRYT5sKMoIQfEPhjdCh1Z001NaC3jXAu6ke+sOrLdT/1hf00x9nayUEAMwGs7YBJwAAQH5M09//xAJx+j2dQSAOAHmGYBwAAECRjdX/B/0btdPAj820Sk0HAMgXBOMAAACK8QNnP/2tllL1uQUAkAvIGQcAAAAA8AlqxgEAAAAAfIJgHAAAAADAJwjGAQAAAAB8gmAcAAAAAMAnCMYBAAAAAHyCYBwAAAAAwCcIxgEAAAAAfIJgHAAAAADAJwjGAQAAAAB8gmAcAAAAAMAnCMYBAAAAAHyCYBwAAAAAwCeFDcavf0tP1nXTk0fH2MgUdX3I/mfjHdfl0/PTGHXwMqn7lgbZ2MTFr7UyyqPRo7Ro9W5adHCEjUzQmffZ/2z80Kh8GgC8GToo3zuJQbyndHh/5RU+ywBglvOxZnwJlZTxxwVUulRMAKb4mYXisbZ0sXgsjGIqKeWPIVq+TEyAgIr1tLFA4ygNqfHCGKFDLLh5s2dCjYOBB+IbT4Xo+KXD9PCaGpor1bNQePgsA4DZp7DB+NKFVMseChtoBt1iKi1nD+ULqUROKIxlZVTDHmqeD8lxAEjTCPWfYg8NW2l7kZzirpi2fy4D9aYKNQlyB59lADDL+ZozXlK6gP1lQShqxk3qgiX8zBI5XiAl4ossRCUzBhUAYIcgMFjwWQYAs81v4oz6P1B47vTyzkdqjKl+kR438ipkG56H/tEDNcI45uM52TdoKLKOzj5zwzLv/n11tGcl/4/nr1+hHfQ03T0QpmLxrDI5RNsi94j46zcbAbKaP5HWvYBOdr5O9fpFhdiuX8X0knPdtD6qptNi6u9+jdaosbRN9dAfXm2h/re+oJ/+GJBqtukovbnpKm271Eolx/htezW9agvd+ryafS0qnubjOZ/tdLa6hZputot5atpa6HTpeVq0kyeB8pSA1hQ1kTY8p3RnTLzOsl6qoL5rjRRWYyLlYNxtmy9Q+IRZqynmowg9fGdCPNcrJ1O7Nk+6ePrJitaYGmMa2PIT6Q48TaSTWtSYk3U/jDLcNaBGGVGGtfqZLZc5ZClbydgPxzbZOJdZeN6OhSqPUud8rvsgzhct4dhyLHRaGbqWg/04uJ+7MtXFuS3JpntjP2eSvW9Sb6M8D0LsHNtKd/R59fetKjO394DcD9s5mrKM0zxmAACzGQ/Gg+aXb76KP7H1q/jpmJrA8GkH/qFGFOd8N+MHtp6LP3Hkphrn1DQx9MWvqqn217qtk5PTzde5rcP1tf/oY9PUehPzTsZP72Hjewbjv6gp6Zo891782d9WsqEjfk1N893UxXj9qvfiC9lQf8HYs+H4p3xax7AaZ7T5zOn2+X6Jd+1my9n9sVjWxIWP4wv5/6uOxAfVvOY6PBo5Itfpsp6Fuy/GJ9SUwQ7ruKC2+dMRNc6I+cTy+DZJYjtXfRzvmlIT0uD2Wj5NX6dBzmuu181gh2071P5by02Vu6f9yLDcC8A8FuY2O/dBHWvbfEa56OXsfK37+SmX5TbYy04R60ryXGKZ2nF1PWZe2beZY9Ps57bLfG7HX06T+2duj/21buvk5HR9P1KXMef9mAEAzHaB7NrwzvgjovIi2qDVNBdvfl3VYhvG6IvOR1QbeVmrkS6nPfsWE0V/pq5JNclQ/jTd1Wqki18qolp6RONqPmO864cpOUGYost9bFuqlyVeN3HxZ9rLa7e12vfizS/TyfJHtOOcsweU2sg6raZ+CW3YuIBt+q90R01J15J1m2k9/+etalolpgRIQ0Srsaqk9Q3sYXyCHHWrllqwStrRFiI69b2lUWLvQIiajGUNxCh8wqxV672ZvLZ2JrxGzVxvMW2oZusduJ3hseA1iOY2hapeoRq2p3fvqwlpuMP3h71+g1YbGaptzbiWPdxsqwGt2ErHq1i5RUecx4LXbmo1ltnsh3+stbmh2q3Uzvbh7IC9wSmvndXKpmItm49oiJ2j0gidbI2x8ySilV8lNZ1gB+LUeTozzcfN/O+H1yLi9eK8Mhpv6sv3jC+TL2uUNooeQUboEK81tryf0jA9Id5L7dV6TTPbD/2ODxPrOU8tvEy0GulQbYSdKzHadczeI4y825D8/a3Gbe9jGv2erSNE26qM13kpY12qYwYAMPsFMhgXueRj92j5h0OU9CP3+n0WFC+g+pdsudUi59oMshPKnrKmnywN09luI01FjjdXE/X03TbXOXmbulh8vX+dEUw7g3NJ9Qxz+1+O7bXnfvOLisfZpKksqaV//3E4OCkqGuuXf3L2+UKlPESI0R39i7hhrZZ2kZueEcKl1sCGB7wPLekdabAFz9kQOa4DF2jF+1FnsJwTRg8TLliZ6AEaFVXT6dnW0NBxLNj5wi8+7BdtVWW2RtIsCGT7mggwHYGjIhoI5vsCxQhIO2mRSC+xBslpKSoW53TLzpm695ugy1FWPpb3GafOFcdFtPM9GG5mFx9agB9+Zwsrp1Hq19Y5FGUj+vFJt4xTHTMAgDkgkMG4CFh5DTcPyEUf3M5+tyf++Sv7+4h2RNTzxhC5Rz1ylrStWcfXOU2XVSA/8cM09ZQ/TW8nauQf0DjfjOgN6zrZYOaEA6RHXBTwQIwH5Ly/5ESfyRniee7GctRg5sn7j+cQ69vGB2e3iTxn2DlfPvuOjo3z8DNGuzbZ1qvlK+dVRSP18dplpl27E5Q+HrC2iLshPCCX+9Fmq3VmgS/P/RbBv7avbMj4XCmqZEE2W2fUOHdlbzPtETNg972MAQACKJDBuLDyNXrcXSeG/mo2zgNgLSCX/XHzhpNyHvtgTWnxaOUy2p9IVZG14LUby7QaddUNIW8k6rLOx/bGnwBesUDMSHUQARkPkjIJyFWD016eCqSWl1hmQIgaVW3b+OCs6dTTQcwhnzX28g4NT3lxrjff6+Z4Q0neZ3l7Q4gF0fbgOV1a+V3iNdY8ANaXKe8eiJQx236KwZbS4o1K/TJSVUQteAWt18rN7zIGAAii4AbjmjWNKiDX00CSpaNkpZzejiyQqSoiRcWeBpM8HaVgeG8qL6yi5z7JYxVhgTluZQdIbOBqwWvseLAqgmeXfHvXlB6N3F4W7LyTYYqDqyRpH0E1PUJnB7ynTSUUJB0lCXYR9YHKpW5qljnvu1pzlLbEU49UQG7uW7J0lOzIfH2ZqiLe1/Y0GD/LWJimv7/LPj/ZZ+j+LG4+AQDkUgCDcd5toPxpeNMYfcfTQPS8b5Xjvfejr52NNbMgGnKOTdMX56app/pZa3eFzJrfPc2ev0fL8/1z9UlMXblI/fyfL6M0LKbMcqNHxW1x/Va2X2Tu9lW6rALdVF375QZPx7D/oqb6MRl7Pjenghm3BnacEaybjRdlukd2aSoqcHNtYBc0bH9bL1Bv1RbakW4tKwtam9hFUPa10ukaoUP8bgbb5s/EHQKVPz5wgT7I5FdP2XvKnvZjXKTped8ix5unRmWTEuUgG3K2RI+yc9jlotC3Mjbcp/9zRf534vMe9m0DAOC/AAbjS6j+wDL6zpKTLfsJt/czzmvM70bImTc+U8PPVJaWUX35I9obfaQ13NSIhp8v0n6XvPGO62qePAp0byoemXmsbBD9fwfj9jTP3e5rMPNZV0RfoVuqx4z84ekEa6nfKA8xyL6rXfu25rWciYZ+xvxaMF/RSLfaQtTb2q6ea2fvkezTVMLNPAfZmusbmJ/H13Pt2f6KvqkzSrOQdyVutZEzpzmTxrV67r7oU1srv8Ty+MWS7A/cckGq8sf5cUy7nNlrPyNrLrjsJ9zW04torMvOb5e88Wxy88PV/PwcpZYkd7tyWsZpq6DIn3l+DgBAcAT2R39gDnL5AR2AbIgflLH/UBPATIL4w2kAMK/NipxxAACA7E3T3//EAnH6PZ1BIA4AAYFgHAAA5ryp7t303Av/g/6N2mngx+ZZm+YHAHMPgnEAAJjzltQdpp/4D6b9rZZsPxUHAOAr5IwDAAAAAPgENeMAAAAAAD5BMA4AAAAA4BME4wAAAAAAPkEwDgAAAADgEwTjAAAAAAA+QTAOAAAAAOATBOMAAAAAAD5BMA4AAAAA4BME4wAAAAAAPkEwDgAAAADgEwTjAAAAAAA+QTAOAAAAAOCTwgbj17+lJ+u66cmjY2xkiro+ZP+z8Y7r8ul0DR6VrzeGmZeT/fryY4w6xPZ/S4NsbOLi13J/RBnl0ehRWrR6Ny06OMJGJujM++x/Nn5oVD4NMN8NHZTvicQg3itWxjxv9kyoKQEwHaU39e1+P0ox9ZSrxPxHaUhNCgR8RgHAPOFjzfgSKinjjwuodKmYkLY1jXX0uJsNnU9TrZoWLDLQ3nZxSo2nVvzMQvFYW7pYPBZGMZWU8scQLV8mJkCBxXrafAmGRDCZKlibh3i5bDwVouOXDtPDa2porlTPBlxRNZ1W29zXoKYFTPrnOz6jAGDuKmwwvnShCJoLG2gallD9ARm871mpJgXCYiotZw/lC6lETiiMZWVUwx5qng/JcQBQRqj/FHto2Erbi+SUZMLNMug9XVuspsxCieC9kcJqUiDgMwoA5glfc8ZLShewvywIzbBmfE5SFyzhZ5bI8QIpEV94ISpJEXwAzBcIAoMFn1EAMFf9Js6o/wOG53hfoR2J1OkFdLLzdap3C9wnh2hb5B6F97nVeqexHIbnbC/vfKTGiGoj6+jsZjMwFs/3FdHdA0/RF3U3aK+ars9nX4adfZlpmeqhP7zaQv1vfUE//bFCTcyXETq0upPoxGHaMd5GK1qNZIYK6tNr0XjO6aartO1SK5Uc47f31fSqLXTr82r29cnxnM92OlvdQk0328U8NW0tdLr0PC3ayZNAeUpAa8qaSAueU7ozJl5nWa9t+/gt8RWtIes2q30b4tugajVFagJF6OE7E2x/LlCvmErUzva/KdOiFmVjLsu6bXIbWsT/bmzlzMj0CTXCNbDttaRPaPuVKFspsR+ObbKxHDd/eD0W5rHdSnfY+bVrQD3htg/ifNESjh1lZ3CeG3b24+B2jhjziPNcW06y6Z553g+1rvEkx9N+Hsx43O3napJzc8Zjlv75DgAwL/BgPHBig/E3tp6LP7FnMP6LmhSPT8ZPH9HHNWr+A/9Q48n8oy/+xNav4qdjatzm6hG2zq198atq3FjuG99Mqgnx+C/ffMXm4fNpyxHLdVv/zfgB2+uzNXnuvfizv61kQ0f8mpqWP8PxT1e9F1/Ih45hNe2XeNduNr77YnxCTYlPXYzXO+ZTr7W9rn73x/H6C7/EJy58zJbB/l91JD6o5uXT0zJyRK7TZT369ol1ifXonOsc7FDL0uaVr/043jWlJqRDlYtlv/i0xLaa3LfRis/z6Yga4YxytyxPO2Ye9kPss34sA8I8FuY2u+2DnCbnNcvZfu65vdb9/DSW5RySnAPqGFiOS4KxTO24qnM27XNdMcrFsj62TPf1ez++M87nch7L7bCer+YxS33eyekzn+8AAPNFILs2HDx3j3rKn6a7B8Jk1hstofpGfTzHJofoYJRo/77XaI2aREvD9NfIAurpvCF6OtHt36fVrq9cRvvZw9A/vTfUzNSSdZtpPf/nrWpaJaYUAK8xS9S8FdOG6hDRwG26o6YkWGroKmlHG5vv1PeWRlq9AyFqMmoDB2IUPmHWhPXezKwZIa9hNNc7w/Z5wmvozW0KVb1CNRSju/fVhHTcv029bHnbqrSzlufnJqnFTCVU22qtfWXLauIN9GxlLPBjptUyZrUfvrHeLQnVbqV2tg9nB5w9l/DaV7OWuZLW83IZn1ANU0foZGuMnScR7c5LJTWdYIV56jydmebjxbT9c9VQ81qErUedV6oh5MNrad61Efgy+bJGaaPoEWSEDvEabfY+yahGfDpKh0651MJXNDpq5XNp6NgF6mXn02faNoeb5X4dcvQik8P3DwDAPBHAYHyMvmNBce3GsvwF3i4mfpimHlpMr9rSXGTvJr/SnUk5LjnnK5gltfTvPw4XIEXFVFNdmeTWtVU7m08XKuWvitEdEewoDWu129C56RkhXGo9U3jQmnFjNBY8bMhVTqpogBajXZvaVMCXezKP1gUrE8szqpFePoO2nHMcC3a+VLldtDnPI9Gw0ki5GP2eWth/losiTh2f/AaKRtDfSYtEikYF9WV4MRYbuMou7ipofUGPoWzM6vwMSHIscvn+AQCYJ4IXjE/+S9TyFboB451xnuP9gNaLPr+14aMHcgaAdIkAmNcg8oBc9pGcXfeFPOfWWI4czDx+//GcYX3b+ODW/7bX+XIlNs7LSD8Gapgpbz6XKhoTXQy2a3eC0nWHB75VZYXtdWl6Qpyvva3t1rJbreXnAwBAVoIXjC99SnxZFSLlQyd7dllM/bzfcseQvMEnwMwqqclIdeA1pDxlIaOAXDV+E+knRurEYbrFU4ECwujmTx/c0jG8zpcr8g6Nrc9wbcj33QLeyJT3Wd7eEKKWnZnfJRF3QTJOv8pQUbH4PLam7GhDhrX8AABgCmCaiux3u6fvNhXyN+3c01GypfZlPIe167w3lRdW0XOfaL0pBNRQlG1jUG9bi9SFAqtoVAG5LXWHcU3p0antbY/ktpcTXwK8TE2P0NkBZzpUSgVJR0liOkofqHz1pmaZ876rNbMfWZLnyCj1F/Stnyw1KDspz/cMDH/CPhfZZ+MfuvOUEwYAkCcBDMaXUP1bi4nG7tFyy0/CT1HX0aH8BegrX6ST5Y9oR0T+LH1uqF8Zjf5MXTkK8qeuXKR+/s+XURoWUwJq9Kjovi3XwWMmHEGMvWu4POE1ovaf7hYXKKxEHH0lG/nlx5w/uS6oH0BpiZrP83SPbNNUjLJxNsQLmgk60yobEu5ItyZbNXTNplY6MyN0iKfCJBo/qvzxgQv0QSblXbGVjrPA2LEf7HzO30/EF9P2CNvmU525TSVKdb6nbZr++7b8r/9Px4L92QgAYBPAYJxZ+Zr8ifvoDS1/+38T/U7vTUX+1Lx4LnKPetiUvR8Z82oBNe+D3JhP5H/zgFuNf6gH9/IXOvurXfLGLRcF6VnTuE4F+eby0vl5fDtfelPxqGWnllMq+v8OSIPBikaRzpHYvp1EfddaRGCTT7wh6fqoViZsEH0+uzUu5fnliYZ+xvxaOovL84eeb8k+TUWVjSUnOCg/j8+C1hXGNvEc5dKI2SgzTTw15lYbOfPGM9pXLXdf5Z2b575xzHi/+rJPbcsFqcof5+WdfnAre3zpa7Dlv0fXWt5n8qfm5XOiL3StHPV1ep1P3NG5tIXIkTeexcVNqvM9bUX0xvu/V/8DAMwuAf7RH5g11I+HhF1++AQgEzP+WA2Aq1Ha/8LbdGJdOw38rZYK2wUAAEDmglkzDgAAkIbhT1ggTlX0lz8jEAeA2QXBOAAAzF4jB0XDze1f/p7O/HiY3kAkDgCzDIJxAACYvSqb6Sf+Q2g/NgeuHQ0AgBfIGQcAAAAA8AlqxgEAAAAAfIJgHAAAAADAJwjGAQAAAAB8gmAcAAAAAMAnCMYBAAAAAHyCYBwAAAAAwCcIxgEAAAAAfIJgHAAAAADAJwjGAQAAAAB8gmAcAAAAAMAnCMYBAAAAAHyCYBwAAAAAwCeFDcavf0tP1nXTk0fH2MgUdX3I/mfjHdfl07PBxMWv2TZ/S4NqPDlj/76mrkk2auz7h0M0IWfIkxE6tHo3LVp9lIbYWKynjf3Pxg+OyKehcEaPyrI3hiTHYOigNg8bDo2qJyA1n8o4/8dsgs68z5aN920wTUfpTe34L3o/SjH1lKvE/PJzOTCM9484z9Q5x8bxGQRQWD7WjC+hkjL+uIBKl4oJeTV4tBCB8AyWLqRa/lj2FBWLCYURKg2Jx5rn5SMUUEUjPbx2mA0tdLxKTXMRbubzsOHSFqpR08Ajn8oYx2yeK6qm0+K8O0x9DWpa0KgLAO+BdTGVlPLHEC1fJiYAQIEUNhhXAWlt6WI5PqcZFxsLqaQAFxsm9kHKg5KqMiqREwAAwE+J4L2RwmpSICwrExeTqKwB8JevOeMlpQvY30IHqz5Z+pT4EC74hYj6sA2XFrI+HgAAZpsSEZSHqKRIjgNAYRS4ZjxMZ7vr6OzmJWK0ePPr9Lj7NVojxpjJIdo2Qw65W762SD/hudjGIPLRFbU8Pn19lI2P3aPl+ryuaStj1KHPkzQ/3DrftotTarppTWOdtn/ltEfbd6dR2v/CKnru3R5yLikdxbT988P08PNq9pHKqBqZpgrxpCLzyvnty0ROuRjs+Yxe5pN5hm/2TCTyaPn/Zi5vG52ZVrN6JtdrXY4c9Fuucpvct1m8VhHziZxOI59e285M2XOVg5YLmiviVrc8hpY8abccWXserduxF+Xmsjy38vOrjO3rLVDetrU82mnXgHrCwszrlYOtjNUxcDu35fvFfkys74nk71f7fM5jYb4fbduonStyH92Oo1q+vaxTHgvt/W6bN7u859T764n9PTFjbnnqdYry42VgW66+r4nzaNMF6mXjLTvN+ezzGt8Pp2tlZU2otjV4tfcA80E8UG7GD2w9F3/jm0k1bvXLN1/Fn9gzGP9FGz/wDzXCxQbjb7DXP3HkpppgunqETdde6+offfEnHK9n26SNi23g87AhsW7xuq/ip2NqPBPDHfFnf1vJhvfiZ913P4eG45+uei++kA8dw2raL/Gu3Wx898X4hJpimS8x3T6fHK/f/XG8/sIv8YkLH7Pn2P+rjsQH1ev59PRo6xXLkcSyV30c75rSx83nJec65Xx8WeZr4yNHxLRPR9R4OqYuxusT5capMnFsi0E9b3mNC77cTLcpX9Q2Wc8VdXws+8OmWc6deHywg79OK3NOlbt1eS7nnk9lbD/H3PdVk5Nj5rL/rvvj3Bbn9roti/O2PLfjaOyj/p6Sx9Z6LMz3mT6vbR3J3ndiuvVc8XYs1DQxJP+sSItxjtrXYxk3ibJwlLfTjPN5LGM5zTo96b7m5NwEgELwNU3FaTGVlqt/OdEDieqNhLkz/sjSAJLXrO9ZqUa4pWFqrmaP0fseejuxm6KuLx8QVb9Ijxv1jSinPZZxaf++OnPdK5fRfnpEXT9kUaddWU07+eO6zbQhWeV5rlVtoVvNlWqkmDZUh4gGbtMdNSWBz2fUtPOa90gFm+8qXdZq0HoHQtSkaldoIEbhE2btSu/NGfsZSI6vV6ulCVW9QjUUo7v31YQ0tZ9ope3G7deKtdTOHobGM6gd57VJiXLjVJnQKPVnVRsXYA0RepjY50ra0cbOhlPfazV3ldSUOEek8Du8cWOMzg44y7imrUVbnsu550sZj9DJ1hjbtoh5nvD9OsHWe+p8khrjHBg9T7vY++d4m7X87GI956mFKqhPK5dQbYSOV8Vo1zGjxtgoS+v7k6ZH2HFg74FqrUynJ8Txs0xzOY5Dxy5QL3svfma8v5lwc4S9f0bpkEsNfPsJs6aVL289b+DI3mfiU0C971qi1hruoSg7qOz9vSFR7mkei5x9VkzQmU62LZbznWPrtoznVnplzM6VS7n7XAQA/wUsGJeNHnvGWVDMTPzzV/bXCHKn6M5tMXlGMg89A5O3qWuMBdnrnIG302J6Vb8IyIkK2vvjMP30t1pWCoVRw76EZ/ryNzjmE3notg//hrXarc0ctcYvLbau1zXlxqsKWp/R6zxSuflzlTVgY0dY9NITozszBahFxdo5YWVvw+Dp9ni+y3j0exbshmhblXXbXM/3HHIGom4m6HKUhbOW9xmnesAwgl0mVLuVBXHWi6AYC8577e8BdXx4GkPylI4R6j/l9lkhG4o7L7Sd733R80wiwHe7kHNZR7rHIlefFW4XLXmXZhmnPFcAYLYJWDCugunb/2JfPVN0uY/oZGRxIjjnrA0g7fnd3bS885F6Lk2Tv1JPgbpZnNccecBsSNVHb8HY83Hl4BaoWPN72aDyMwPBaxnn+FhY2xXwoZMFVJkrdBnHxvmex2jXpsKu1xsWgPIc8lOd1m1jw0YWyFnJ2uje6Ig6ljKQr2nbagvkK6lJdQlp5hXbc9Bl7Xlva7tlnclz2lOTNbnaHQ4ReFeYd9YY347F/dts+TmqTPAqD2UMALNL4IJxYexXukMPaJyKaMNLC6lWpJ2w8TGi8DNGvTEPxG/Q3vKn6W43bygph7uRDGvGRbeLj2hcpcRAniT6hdYG221x/6jGr7bts9eu8SBx4yl+q1ibL0j9TXst4xweCx6Ir2iNiRQFc3n8Nntm/ChjWdtvW6c2ZHZHJldkLalIn3DZNvtxC1ezjTVSVURtr0sts6Cd86J8eQCsBeSq9lykFdnXyYdMUjeKKtm2mKkq4s6Arcbft2OR57sgrvJRxgAwqwQuGC9+ZqH85/p92svzw5eWUX35A/pO9LCi1Vzz59nD/rfC7OskNVHjLoL8JFTXg3uvaL2xFFSuelPJv5jbLe+gELVs+SRvKVPDVi2Xdf6xplaoFIqqLbQjJ+eET2XsRyDGiO7k7G01RB65+l9wpqPMqGKryCXnqSri/eoltYGndqiA3CyDZOko2VD5/yJVRR5rR1qIT8cikbpjy2nPr3yUMaP2JaN2MUkMf8K+o9j31B+6Z8pPA4B0Ba9mXNRQP6D1Hz1Q+dtLaMPGBbT3oxss+Nb6JFc/IKQHz7ybw2RpKjLIf0AHXboglMrpbV6rHr1h66ZwjDr07hLzZSRKJ/jjlYt0OcjR+HSUPhANq+y3vAtP1p7pt7uP0qKdLjklOaVqKPWcV77eIKWp5BvbX54a0R4xamNVoKg3GhRdr2WapuJTGbNgtKmBp2wk694vP4y0jURDPV52O9l7jJeBRjSIHbhAKzx1tSgbcvZGz9NJdqFkHisNK1N7F4jyQpuVfyJNwwicO7PrCtRONORk792D7OLZ7SLOp2Nh5rTb93eEDuWti8s8lbF6H/W2njffR1mZpv9W7bb6/3SMhuW/AJADAQzGZQ213kiy+KUi+VPy5SwYF1MY3mf5vsUieDbyxQ+WrkueprLyNfFcT+cVM8fc1s+46PecLdMyT919etWlN5Wc86M3FY8suYwsIApbekvwUUUj3WJfnIl8V1aAfSl+Fj17/La+7OVgo1EmnWV0yyWFwsx5VrmfWr6vmYeu9S2sgk0zfzfDvo3zwNJXMQsUefqAnioQbublruX4brpNTRmnqfhXxryx4a02cuYqW3Lpc3zMeI30iQrzfSbKrpWaxE+Ta0SjRFYu2j4ag1u7BhHkD4xSy0CSu1js/fMZWZe1ojXE3kNar0McT2diZU+OnOZsAmWZ195yajRpQ3JvxyL3RGNi/XiI4Xtar6WL6O0jRM4+v0hS43pA7XW+/JSxy/uIDckb66ZSRG+8/3v1PwDk0m94/4bqfwAbHnR00lBbSzCCbyg8XkurLsD8zZkGAP/xdMq36cS6dhooYM9fAHNdMBtwAgAAQKAMf8ICcaqiv/wZgThALiEYBwAAgORGDoqGm9u//D2d+fEwvYFIHCCnEIwDAABAcpXN9BP/Ubofm2mVmgQAuYOccQAAAAAAn6BmHAAAAADAJwjGAQAAAAB8gmAcAAAAAMAnCMYBAAAAAHyCYBwAAAAAwCcIxgEAAAAAfIJgHAAAAADAJwjGAQAAAAB8gmAcAAAAAMAnCMYBAAAAAHyCYBwAAAAAwCcIxgEAAAAAfFLYYPz6t/RkXTc9eXSMjUxR14fsfzbecV0+LY1RB5u27eKUGs+VZOszmM/L4WvqmlRPpTI5RNscyzWWp5Zj7PuHQzQhZ8iTETq0ejctWn2UhthYrKeN/c/GD47IpyFrQwdZeb4fpZgazxWxXHas3uxxP0OM543h0Kh6IqUJOvM+ew3OAcFejm7lkupY+GI6Sm/q253qHEzMLz8LAmP0qFbu6txk497PZwCAucXHmvElVFLGHxdQ6VIxwWdLqP5AHT3uZsO+xWpaDi1dSLX8sewpKhYTCiNUGhKPNc/LR5i9ws2H6eE1NlzaQjVqGqSHB9kbT4Xo+CVVlnxorlTPBlxRNZ1W29zXoKYFjboA8B5YF1NJKX8M0fJlYgIAwLxT2GBcBaS1pXkIdlMyg+09K9WkvDIuNhZSSUEvNtiXWhV7qCqjEjkBZgkj2D5dW8jLtflkhPpPsYeGrbS9SE5JZk4ci0Tw3khhNSkQlpWJi0lUEAAASL7mjJeULmB/Cx2s+mTpU+ILseAXIuqLL1yKAA+AQxAYLCXieISoJMUFEgDAXFXgmvEwne2uo7Obl4jR4s2v0+Pu12iNGHOauPi1lsP9LQ2q6ZJ7brl8jT5vFrngScl1J5YZuUc96hndmkZeE2/sXznt0fbdaZT2v7CKnnu3h21xNopp++eH6eHn1ezrjVG1Y00V4klF5pXzW8mJnHIx2HNLvcwncz55bq0lz9bIC13dRmem1ayeyfValyMH/fa33Cb3bdZzfcV8Ir/WyKfXtjMbthxe+615UR72vF6X2/j2HGb7cjJhXWY77RpQT/jM67Ewj62ZUywG1zxp67KyyZH2ciwS7wVbrnmy6d7laD/Syi23la/L+1WUCd+nGc73RLltukC9bLxlpzmffV7jM8m46xCqbQ1e7T0AQAH5WjM+o77/Tcv7iuguz+HuXkcnyx/Q+owaP+Y4F1w01rxBQ5F1cpl86Hxa5oNnYyRKJ/jjlYt0OddtV5PgX5grbm4Vt+MfXmuh41WjtNHli1vMF32Fbs00X7STDj3fQrfaQtTL/n9zJzuE1yLUzuY6O5BZ0Nvb2k6LxHJkygBfdsvOTIJ7ZuACrVh9npYbucInKsTyMw98r9IHm67SNrW8bLYtt7ngMrjaOL5FHS8+8GOmng4CcSw6iU6o7Ut6LNh5xi4kzla3qP1g5xN/rR7sigCxk4bajHl4PjV/nRHI6sFmJ7WwKeK8SgSK1mPm5Vjw4FHkbJ86b76WbccHrewd0RDJLAddXHSy7eOvV/vx8Npa6s8ksPecW86Df3ahVmqu81Yb0a5NLufxqU4WaN+mpsR81vPdXm7txrFVg7UyAAAAdIENxnuIBeIHwqqxIwuo32KB9Ng9+sK1J5TCGTx3j3rKn6a/Jq3hzlBlNbG4k2jdZtqQ40UnVcUCtkTgUEwbqkMsULpNd9SUBD6fUdPOa94j7Jt14Cpd1r6wewdC1GTk1w7EKHzCrOnqvZm8Xm5GfL1ajVmo6hX2RR+ju/fVhDS1n2g1c4Ur1rILBaKh8QxrxweIBeLm8kK1W8WFx65jmdaK5sjoedrFjsXxNuN4BRMP1hIBWsVWcbHQEnWWHZ/PzNuupPU8uGTHzDijho5doF52nnym5XaHm/lF4CgdErXt6k6RCAr5dKIaLXB/eE07J9IQbuYXOOx4t/KLUhbwt8rtMN9P6WCv72RXIo5AvpKa8ti4NNZznl2cVFCfto5QbUTul+M85o1ec/deBAAAU2CD8dqNZSoQV1Tjz6F/Fqja2NUYfRd12bacqKC9Pw7TT3+rZZcehVFTXekpYHPMJ/LQbV/EDWu128w56hmhtNi6XteUG68qaH0ua+dYMLLBEsSphrNaoOiHoSgL6hzbFjT2Y6F61HCUnfM8EjWwiQtD2SDTeR7LY5HxRaAnLMhv20I1opafpwFlcQE0PUJn2cVdO9uPwpmgy1FWPpb3LZfkWAT+nAIAmL2Cm6ZipxpAAgST0UXbHGTL2xeDSzqTPd+aD1nn5c9kekKkoljTTvhQoBx5dnH4WZsMv2vaIhnVsAv3b1Ovy4VHfrGLaV5GPP3EUna860c5BwAAFMbsCcYn/yW+eMPPFKreGCAdE3RnnD3Ya/PngopGLa1DDYnaaVMib1gb8to1YFGxuEC3pp1oQx5TPAR2kbKiNUbtDVm2P3C705R36k6OJUddG1yOLwAA5MesCcYnfpimnpQ/EDRFl/seqf/zYTGVlhP1jD9Q45LII1f/Zy5XvankX2zgKvXmOu0jV0a/F430Ck6lGqTqNk+WXf6IbuLsef8ij1z9H0jJ0k1SKUQ6SjIjdGinzPNualY57zsz7P1EXVS45cznT7LUoCypfcm4LYaL4U/Y5yL7bPxDt71VKQDA3DA7gvHJIfpfnY+oNvIy1SeCcRUY990m+bHPuzC8Qjv4L+3nzRLasHEBUfTnRPeIvCvF9bcXzMreVDKieo2oadvqe9qQ/HXRUeo3aiR5OgUPkArObMCnNySUgbHZ0JV3fcdrUvNJNqwzGi8yvLeRnex48VrQgBo6yHs5qTAbAHumGhOf6sxvOowD76FFbrNs/Kjyx1m5b8yoW8NK2sHTXRz7wQL+jLtJTC38jsp5z+k61AVS6/nMLkwcpum/b8v/+v90jIblvwAAc0oAg/FyerWaBdmdVyz9eIf32fvo5l0Wvkj7x+7RcjHfFerauM7ZfaHoilAt5yNeo/2IdkTUuN5Vosf5eN/o/dXmc8vHn6XHB57NPjD1ozcVjyw5uZsuUNjSw4WPKhpVF2tq20Q3iPnvxi9czQJA0XBPrdfoHs52a192gRejXZvkfLJ7SNmjh0nrW9rRR7Ne0+pxPt7IVXUVKOfl3dG1UlOg8tl514PGthvdMGbYzzRPobm0hciRN55JN5PeynjooMxJt1yQGvnjPAc7g+BW9LWtHzcxfE/rtVSbRD/mbBB53do5qAfxXueTDaLZ+eiSN555l5+89xrZm41+jDNfXhG98f7v1f8AAHPTb+KM+h/Ahgcnsg/nWf2z4BAY8u5AiF004UdewCuewvc2nVjXTgMF7G0KAKBQZk8DTgAAmHeGP2GBOFXRX/6MQBwA5iYE4wAAEDwjB0XDze1f/p7O/HiY3kAkDgBzFIJxAAAInspm+on/ENqPzbRKTQIAmIuQMw4AAAAA4BPUjAMAAAAA+ATBOAAAAACATxCMAwAAAAD4BME4AAAAAIBPEIwDAAAAAPgEwTgAAAAAgE8QjAMAAAAA+ATBOAAAAACATxCMAwAAAAD4BME4AAAAAIBPEIwDAAAAAPgEwTgAAAAAgE8KG4xf/5aerOumJ4+OsZEp6vqQ/c/GO67Lp2cyeJTN++EQTajxfJi4+LXYnm0Xp9jYGHXwba37mrom5fP5MUFn3t9Ni1a30ZlpNjp6lP3Pxt+PUkzOAJBnxjloDm/22N9p5jyHRtUkyJlYT5tW7iN0SBwH9ZkAAABzmo8140uopIw/LqDSpWJCwCym0nL+uJBKCrl9y8qohj+WFlNITJh7hg6yQKPgFxsywHEGmfMdD7LbaddABfVdO0wP1XC6tlg9D4UXouVV8rGkSEwAAIA5rLDB+NKFVMseaksXy/GAKX5moXgMP7NEPBZGMZWU8kd88YIPpkfo7ABRTdtWCqtJ7opp++cyUG+qUJMgZ0Kl8tI7zC7CAQBgfvE1Z7ykdAH7W+CaZ89UzX052z45oTCKikVQVPP8XK0XhyBCEBgk6gK9qqywnz0AAOCL38QZ9X+g8Pzt5Z2P1JhS/jTdPRBmX1Uanof+0QM1wlS/SI8bRX6JNDlE2yLTVN/5OpWc66b1UTXdbVlpGaX9L7xNJ9a108Dfalnonl88tWMjRejhOxP05qYL1Kumt5+w1lR6mc+Y59bz52lFa4yowTq/fZleieWeUiNMTVuLme4wHbVsj0PVFrr1ebWWmmOkT6hRxrI8jufX74zR8UutVHJMXzdPuWgUFzU8F1fsYxKOZRYcT5/pJGJlvmNc31ZzHyRVHqXOY+u2D/b9Trqf6riEkx5z+3EIifLebrmLI/ehxfFcsukeOc4Ze5kYjPUYMis7ef66rUMtn79PmivVNEacf1oCvf159bohvo7S85Z5M32PAQDAHMSD8aC5euRc/ImtffGrapwT0/YMxn9R49wv33zF5vsqfjqmJsRvxg9sZfMduanGmdhg/A0+zTLdZb50DXfEn/1tJRvei5+dVNPyaLDjvfjCVXw4Eh9U0yYufMzGP453TakJjDmfOd0+n5hn98fx+o7heHzkiHiuno13Tf0S79rNnuPT0yTXa24bN9hh3TaDXP/F+IQad+N4rdjO9+L1F7QzQE0TQ2Kb1T44lj8c/9T++kCQ2yX2IbHNbvugpol5tbJRZfDpiBpnHMdi6mK83rLv2jpdB+txTFDnitsxNdahnztyO5LMn4pjmxk+zX5uusznPBc9lp1LWQou++1876kytWyfXs4zv28BAGD+Cl7XhpNDdDBKtH/fa7RGTXI3Rl90PqLayMtUn0hzKac9+xYTRX929oBiqTEvp7cjC9h892lQTUlbZTXt5I/rNtOGgqWY8xpGs9YuVPUK1VCM7t5XExKsNZGh2q3UzuY7O6A1Xhwg2vaOUYsXY+UTMWsuxyfSbFw5QXfG2UPDWkuNYrg5g9pQxfHaiq10vIqoNzri2DZeu2nWSBbThuoQ27/bdEdNmRUsdwaKaXukgu3DVbrs6E2D19xqZVOxlh1boiF2zITpKB06xWtetdrdomr6rC1Eva3naUhMqKQmo7HmpS2iwTCvqTUabz50rX1Oga3j9Am2zac6ZW8ro0fFnYr2ExmeA/dvUy8rjW1VWm0+X4el5pnt97EL1MvK7jOt1j/cHGFlMkqHHI11U5SdGm9h55huKMp2iL3XNiT2Y4ROtsbYeae9Z3iZiv0/7+wBhR9brUyTv28BAGA+ClwwPvHDNPXQYnp1pZqQzPX7tJcWUP1LtkhYNBJ9ROO2YHz/Oi11hZGNNX+lOxl3W1hBe38cpp8KkKKSYAkIZuCYT/bO0HtTC2Nt82SXM6xyXFkgtuigNZDJHaOhq5N920O1rZkFlD6qqa5UgbgietVxCdgcecQysDZSLWIsgO9l5+Z6WwqEbCAYozv57CqvopH6Glgwu3O3TMloiGSeiqH2f9emmbr3G6F+FvA7ys7tfOdSlB0f38EuWujU9+qihXNZx+j3IvXGcqHAJTtm9p6R+EUFWy/SVAAAgAtezbhHE//8lf19RDsisq/yxBC5x4J5KLRw82G6JQIZFpCLPpKz7EaQ5wur5RiDno/uL56DbN02Pjj73/Y6X+7cEQHoKG20rdOS25xHslaaq6A+Wy12WkTAypfFA3JjP45qQTIzPSHGe1vbrfu62trWIB2y1nqU+o3iEoF3BTVpNe+xcV7G+napYaY2EQAAAEnM2mBc1mwvoJOddfS42znsSVWzDjkna6R5mkOLTClhQVJGAbnRcI83iBPLkwOvdQ0Gs5s/fXDWdHqdL3dKRC88PB3Dud6HeopGXvCLj05qqaqg9ip2QZB1X/JaOg1PAREXGVpAbvQ8xNOULPuphkwuBooqaRs7d41UFZGiYku/kncZeCqYyzrZgBpvAABIR+CCcdf0EZVHbpEkHcWrwSsPiMqLaEPG3Sry3lRW0XPv9hD/vc5AU31Jt1dnUVOZFh6EqoDcnirAiIBxhpxumWrBgp1ETnsuJEldCKhk6SapFCQdJYlYTyftGmDHra2RmkTO+wX6IFc/slTRqAJyfd/ycUxVvr5IVZEpKo73TbJ0lEKZ6qE/8M+eFw7SsJoEAACzV/Bqxlcuo/08/eQc/8l8bow6IvdY4Mz7JNcsDVNzNdHejzL4ufrr34ouDve/lUXXhiNROsEfr1yky4GOxifoTKts5LYjbzV2I3TIXgtq/JiMS3/pMmB0a2AnGQGl2eBUpntkl6Zi5LW7NLALmukofSAaCKb6IR4XoqErT6GwpXTk2+hR0ZViolGjyh/vbe3MqLx514z2dB5RS80CcPPHsYzAuTO3v6wqGnKOUv/B76nF7X1TVE1NIjfep5+rv3+T+sU//0GfdQf9ZAYAgFQCmKZSTns6n6ba6A2VB/4zlXbW0V83qqc1axrr6G6EnHnjHw6x8M1q70fa8x/9KtJbskpl8aU3FY8GLtAKPX+W969s6cM71yqpqY3oA1v+LO+72rVvaxao8fxyS66vHsw7nm9nxzn7NJVwM6+tt+b6BuXn8S1lMVPZpSRTY/oaXPLGM2lcq+fui7xzrfyMY8bnEc9Zc6tl/jifP/2glac8rY+q9ahh47i1VxKB15hf2kLkyBvPJlCupPU82D416tI4VJJtJMiZN551ao4Hle/QX9ap/wEAYNYL7I/+5Iz40Z97FN43P/LIxQ+X8KAlr8E35I72wzAZBd8wH01176aqPw3Qzv8cpr2Fyj4DAIC8mLUNOAEA5qWpHvqQBeL01hcIxAEA5gAE4wAAs8I0/f3dVfTcqy1Ef/4v+umPeWsEAgAABYRgHABgViiiN/42TD/9OEz/XpfXPioBAKCA5n7OOAAAAABAQKFmHAAAAADAJwjGAQAAAAB8gmAcAAAAAMAnCMYBAAAAAHyCYBwAAAAAwCcIxgEAAAAAfIJgHAAAAADAJwjGAQAAAAB8gmAcAAAAAMAnCMYBAAAAAHyCYBwAAAAAwCcIxgEAAAAAfFLYYPz6t/RkXTc9eXSMjUxR14fsfzbecV0+PZPBo2zeD4doQo3nnrk9cviauibVU3k1Rh1ifd/SIBubuPi1XL8oozwaPUqLVu+mRQdH2MgEnXmf/c/GD43Kp6Fwhg7KsjeGZMfA63zg5E8Zm+8rObTRmWn1VAZiPW1sGUdpSI3nzHSU3hTbl2TZxmeFMYjPDI/Ea7Pb7/lhhA5px0Ae6zTLGgBmLR9rxpdQSRl/XEClS8UEny2h+gN19LibDfsWq2mFV/zMQvFYW1rIbSimklL+GKLly8QEKKBw82F6eI0Nl7ZQjZrmxut84ORPGRfT9s/V8k5UqGmzUEWj3IdrLXS8Sk2DvAqVhsRjzfPyEQDmtsIG40sXUi17KGygGXSLqbScPZQvpBI5oTCWlYlgAx/2APNcUTWdFsF2I4XVJCi0EC3nFzpVZYX9HgCAQPA1Z7ykdAH7y4LQQNSMB4S6YAk/s0SOF0iJCMpDVFIkxwEAwCeqsiRcWizHAWBOK3DNeJjOdtfR2c0y0Cze/Do97n6N1ogxq0TutBrWR9UTdkYeujHYc60nh2ibyv8WeefGfFnlnxt53sZgyy9X27Tt4pSaYJLbIPPDJZUecyBM4mNXldGeleJJp6ke+sMLq+i5T7JMGFa1Yadr5Yd9qLbVpWZM5jHyvNlEDqOW15ggck5lXqgl5/b9KMXULEb+7Js9E4l5+P9mPmoGeaVaPqo119e6fe65tnLfxDYoYhk8RzORQyuHrPKG7fm2yfJyZzlRxuJ4G7mvctDLN8FWvm7H3jxmtrxryzml+FXG9vUWLL935jL2er47joNb2abLvsyd2X1OWT932JCkjO3zOc87bf9tx818f6tzza0c1H5Zl+uhTYDHz6hEStPn1STuVarP56ZZnN0EAN75WjOeDA9Yl3cupH6ev62G/mr1pEYE7B/9Sic7jflepP3RGy6NHx/RjggL6OlFc76xe7Q8k0aSItC+QUORdWpZdXQ3QmL5iYaoK1+kk+VEPX23bQH/GH3HLyqql7legHgxdeUi9fN/vozSsJiSfy07d9OKm1u1vNFR2uj4worRrk27aSNF1HwRah+4QCvsX57RTjr0fAvdagtRL/v/zZ1EfXxe9vqzA/YvUC/s6022fR6d6qRFm25Tk1jWYbGdLTszuFDg+Bd4dK3aLm3b5mhATvx4r+4kOqH290QF9ba22y5mWFDUSvRZokwOU18DP4ZuZczLqp3OVreoeV3OKZ/KWAR/O2N0/JKxXrZt/NzJd0BeFWNBZaoy9iiRnsKPgZqWDR54brpAYWPb1PZlipfxCnaumGXM3o/Pn3fsKw9yV7SG2OeImu/SFiJWJs6AnERZLRKfOWp5lvd3MW2oZqHwwFW6bDsXY2xaL1VQk6q8kMF9O+0qNT53+LIoyXmc488oAJhzgheMTw7RQRaw7t/nXmNuGqMvOh9RbeRlqk+kuZTTHt74MvqzsyeUahaIN/LkbK6c3o4sYPPd12qovZiiri8fiGUZtftc8eaXRfC990ujtn0JbdjIlj82TZctNeb3aS8toJO/M7YjfUvWbWYXFcxb1bRKTCmAqi10q7lSjRhfWLfpjpqS0MC+bBLzVdIO9kVHp763BEW9AyHzC20gxr64zdr43puZfTXVtLFgzcv2eRJiX/7mNoWqXqEa9pV5976akA4e7CS2iyum7REenIxSf3YVhoHVzgKxRG1exVYWdLCLuageoFZSk1H7p4Tf4Y0l3S/G+PKMuzf8tet50Dg+YQYxvpTxCJ1sjbHzLkLbE2ldbL944HnqfGYXbl6J94xLGXf6HdhN0JlOVuDsMyBXtbl3+OcBe/9t0FLn+B08y/LZxdihU/w80e7qsXPiM36x33reeUHGP8u0O4D297cxbj0XJ+hylG1Lw9rE62I956mFBed92rkXqo2wY8EC72POC7LcfkYBwFwTuGB84odp6qHF9GqyNA2DCmzrX7LlVouc60c0bgvG96+zBsCy15Jf6Y49aJ/J5G3qGnNrgGoE32x5akrxS0ViO7p+MFNVBq+wQL68iDZkkyO/pJb+/cdh+umPOfrG86CmutISPCXTzubTyR4BYnRHD060LzQ2R056b7HnVbqn3Hhk+/LPOZULOjdV0HrLaal66dGDZzdFxUmOlfP8EL2d2IJ5h3yX8ej3LBAL0bYq63kn15vhhZtnScrY78BueoQFsM7PgGyIdiz8TsgMNchGjbW1TJJ89nDss8Jy7tjTQdh4E7vg62UXkIl1OvbNGZxLyc/3nH5GAcCcE8g0FS8m/vkr+yvTT8zcbTZE7rFgPr+SN67UgvulYWqu1lNVZIrK/rdUbjjMzJEHzIbA3Na154rKwS1VwJonyoZNF1jwEBAey9ixD2xwSwHwypEHvLqTBbeZK3QZx8Z5CcnUg0KuNxnZ+HruEQErv9sg0p9UGdvSgETtuUhn0o4DH7LIVQ9X83WaqSoi4K/aQjsSAT+74GLBuUhps6134yk5BwBAOmZtMC5rthdo+eLWIWkDyLyy9gyzZt1iM1VF1OR7qPEHKdG3sTakqhEtGK3/aG2w357nQeLGUzztRZsvSH2EeyzjRN/b2mCmjqRH5gHHRPqJuTzeZiAzfpSxrHW1rVMbcpWm4ZVM55ijXeJp56jIa7fl5csLkQozX9wytGppRGmoWKu1YZG14Na7g6obQp6W57bewHxOAcBsEbhg3DV9ROWRWyRJR/Eqo5SRpWVUz3PDr9gbfk7R5b5HzoaZoiGnTFUR68ui4WZCrnpTKYChKNvGfKd9ZEqkGuTTCPXzWrKGrZkFBHOCLAMzkFG39y21jNnwqYwLko7ilSoDe/qFXb7Pd5VqNDRuzbUWeeQ5wi8KRUCupYEkTUfJimzvIlJVRIqKPSXJY/pVPo0cpOf498C7PezbBwBmu+DVjK9cRvt5+sk5I+Ado47IPRY48z7JNSoNZO9HGfxs/fVvRVeJ6aeMLKH6t3gD0RuWn/CfuPi/aceYW8NMmUve03mFrS+7hpsGP3pTycjoUXHLtj3ify2R/MLWGvTx9Iwsu1xLTdWe6Q1YVW8TgUlTybOhgzz9RO+Bwshv1nqrEF3GZZqm4lMZq7zijHvZySGjjC0NCX0532XjWr3R5NDBdtrFjlFmdyl4Kpize0bHhYdowMpThnLbe45oyMnO05PHrlKvy8WeaHTs1ltUgUzdui3/udJCnf5sAgDkUADTVMppT+fTVMu7KBR54D9TaWcd/XWjelqzptHsVtCSN+7Sh/jej7TnVXeIllQW0R+58fwDNkHLR9eXt/I18XP5+vJkN4yva726mGRDTibbhpuKL72peMS7QEzkT6pu3wp9y95VRaPqwszYNt61Ge9eTD2fFzyVhadfaPmsnWV0y5FCofUZrYJIsxz1AMPrfH6y5u5uHLf2XMGFm3m5a/nWohvJTNNU/CtjXksru7IznleDnnOv+qYW00UwrO13Bu0fZE8fqcvY6/mu5+6LXGctN1tvE2Dm5LPg2pYrrbeTkMfW3D7ehenDtlfUs+nix3Yt9atlyaGThiy9knAyZayvwVouYsgmUC6qpG3sPG05FXNvlCoafqruLG3rzaibyTQtqWskdlgBYI74TZxR/89NPMiO3KPwPp/yyNX6KbLO0h3inMKDDha8WLpcg3lF5oLzvp7RQwRAIQx/soq2f1lFf/nuML0xR79aAOaLWduAc7YwumpsnquBOAAAFNbIQRaIE63/czsCcYA5AMF4Pl3/lpZ3PvLwA0YAAACpjNJ+3nDzf/4H7fzPYfr3unnbOhxgTkEwngfiZ/pV7vl+v9JjAABgjqmgvfxH39iwN3e/rwQAPpv7OeMAAAAAAAGFmnEAAAAAAJ8gGAcAAAAA8AmCcQAAAAAAnyAYBwAAAADwCYJxAAAAAACfIBgHAAAAAPAJgnEAAAAAAJ8gGAcAAAAA8AmCcQAAAAAAnyAYBwAAAADwCYJxAAAAAACfIBgHAAAAAPBJYYPx69/Sk3Xd9OTRMTYyRV0fsv/ZeMd1+fRMBo+yeT8cogk1nnvm9sjha+qaVE/NJkYZG4Mo67nKOGbqWBn7ntfzhBuhQ6t306LVR2mIjcV62tj/bPzgiHwaCmf0qCx7Y0hyDIYOavOw4dCoegJS81jGnufzKKfHbDpKb2a7DDdqucZngUPieTW8H6WYeiolUZ5tdGZajUN2sjkWs5DxvfRmD/82NL6zcD4FlY8140uopIw/LqDSpWKCz5ZQ/YE6etzNhn2L1bRZaOVrch+619HJcjWtQPJ/wZTC0oVUyx/LnqJiMaEwQqUh8VjzvHyEAqpopIfXDrOhhY5XqWkuws18HjZc2kI1ahp45LGMPc/n0Zw4ZkXVdFqUyWHqa1DTwB8+HgsZGCe5YCuIEC0X78kQlRSJCRAwhQ3GVbBUWzqLg10IEOOCbiGVFPSCTn2wVZVRiZwAAPNRIsBrpLCaBP5I3KFMDH4Gv/4zKonCpYWsmoJM+ZozXlK6gP0tdCAFc9bSp8QXYsEv9paViZo7fOgBABTaBJ15fzetaCU6fkndTRHDWupH6qBSzOIt9oAKpMAqcM14mM5219HZzUvEaPHm1+lx92u0RoxZTVz82pL7vD6qnrBLlSM9OUTbVE6xSKMw5ssqnWKMOvR12vPL1TZtuzilJpjkNnxLg2o8XfZycVtHanL77a+Vy3Zum32dljIW5Suni2M0do+W6/O6lHPqfdC2z3Z87e0L1jTylBzjHCqnPdr55TRK+19YRc+920OZlJqpmLZ/zj7sP68mUfegaseaKsSTCSLnlX8Z2HIVrXmrMpePT7PW7FhrdYxlWfLTteWmnwsr1yvyCW25vvqy3G+vaq9VxHwiB9PITZSDPk/a7DnIc7WmSxxHmctpyZN2y2m157265YBqucbWvGuX8vOyvHzIcX55OmYsY1Ue9veTeI0+r73ccpF/bF/mzrTf1FaOY5vk/ZPyWMhg1+2zzHx/q3lmOGftnwX2mmzHZ4XH8zjW00m7BkIsEG+l7ZYUjEpqaq5U/3vnONac2gfH5+yMZWx+Fq5o5UsbpY1J51VyciwUlTZmfC+JtC/jOwsCx9ea8WR4wLq8cyH1i9xnOfRXqyc1Iqj76Fc62WnM9yLtj95wabT4iHZEWLBIL5rz8aAxk8aNIji8QUORdWpZdXQ3QmL5iUBx5YsiX7un77YtEB2j73jAWr3M9QJkZrKx4vJO0va3jv5KN/La0JSXsX2dd0t/NvdVXWDx6eIYlT9Nd9W4GA6ELfnbjmPb+TRR5xXXi4oeNv3Jjygx793IAtr7URYNa0eidII/XrlIl7OLxr071UmLNt2mJlVbc6stRC07nQFPy072gR19hW6J+XjOLfvgtn8hjJ+nD25upYcn2KfrqfP0ZutV2nZJ5ue2RDMLZnpb29mXPlFfiu3zZOACrVh9npYbtVNsO/ny079QYPgXTXStXI5eJskCilkvRrs27aaNFFH7G6F2Xp6WL2P25d5K9FmiTHjuK3+d2/GyL8/tnEpnebkjgrCdMa0Wk+0rf584Ao9cC9FQZ6oy9ijX+cc8CNt0gcInjDJhA3+fZ4q/f9jyqK3FXN6lMjpk29e0joX4LOOfOWpey/u7mDZUszBv4Cpdtp07MTatlyqoqdb8JuAB74rWUOJzh7cLILYs58V7qvN4gi5H2X9Vr9CGQudCpyxjdjGgpvPPVRYdm/srBmtqU+6OBcxGwQvGJ4foIAtY9+9zrzE3jdEXnY+oNvIy1SfSXMppD298Gf3ZGbBVs0C80WjRWE5vs8COovfTrKFmAfGXD8Sy9NrX4s0vi+B775dGLfAS2rCRLX9smi5baszv015aQCd/l0HLyus3aMcYe23n69r+8nW/ZhnPtTvjj1hxFdEGyzpfpz0r1Ug63I4tC+b/yo5FT+cN57EQgb05b/FLRVTLLqzGMw3GK6uJxZ1E6zbThmSV5znHa2zMD90Q+9KoYV8jd++rCYaqLXQrUWtRTNsj7IvY/sU2QLTtHaOmh30BVUfMmqDxCS3ISgNfr/alkHT7PGo/odVOVayldvYwxLYtbTzYsdRqqTKhUeqfq184DSzgSOxzJe3gX+CnvtcuPtiXu61mK/wOb9wYo7MDzjKu4UFCYnlGsHSb7qgp6S4vN0boZGuMbZt27vLtUBeY+bwI4O+Z3lK3Ms73elOZoDOd7KRmx99+dy1j92+zADhE26q0qhDHeyrdY8GDyeTvb+Ozw3ruqGC5Ya0ZeLIg9tAp/lmhBaNs2z5jx6K39bzjYnvG83h6hK2PzVNdaTmPC8JTGXuV22MBs0/ggvGJH6aphxbTq6mCPRXY1r9ki6pEI1FnwLZ/nTUALn5mIfv7K91JJ7CbvE1dY245yUbwzZanphiBY9cPZhXs4BUWyNsCW6+yeW02RF4/v4uQg15Skh3bpMfC3iuKqoXP6EJAqKC9Pw7TT3+rZUesQDzW2Di+TEQeui0oti0rJznqbBmW9aoav8yCggpan6tgwo3KzZ+r2tk5oJMNsGJ0Z6ZAsajYUrums58fodpWR22cwwzLy4nR76nFHsBwbud7HiQr43yvd0YqoLRvW1ZUec54lyPdY+HIN2bBIvusOG3UeLPPjqYGot7oCHu14rJvRk25/bMi2fme0XlcCF7K2KtcHwuYdQKZpuLFxD9/ZX9l+omeU/xk5B4L+PIr/EyyUE4LKFng2Fytp6rIFJX9b1nTNpz9m8vBmhs9RXdus4cCd9nHibx+frdBzwXPsO9yUctOD2i9tp9i+IhdaEDu2PMO+eCWy+kTa/6nHJy3p13m23SBfYkHhC1fUw4eckD5kMWxsOfZLlrdyb7EM5fr5aUSG+d7LlMPLOv169iKYGcOEhfVEWq3lLUt1zoPxyJczSJs7Y6eCLyrttAOLfC+c5Ov154/zYZsc+QLzUMZexW49wUU3KwNxmVtKk/bULnHtiHz2tNsWHuGWbOOB7EqVUXU5LvV+Gv9myfdftWF3+1/ZV07nZFE3+UqL9w1Lz812XvOYktbAHOwpt9AFhL9PWtDgBruJPqP1gZ7jQ4PxDee4ik+2nxB6m9a3UHQ98G1ti6Hx4IHzrwhWLueVyyCgczkenleyNpP23HVhpylaXilUg2WL1Pjc4qsLRVly9MdRABsBot5ORYiXcJIVZEpKva7fiXi9xjs+dPGYG+EmYK6k2OpjS+omcvYq8C9L6DgAheMu6YsqFxjiyTpKF5llPaxtIzqeW74FXsgOkWX+x45G2aKhpwyVUWsL6OGm5JMF7HloOeU2ocUeO8lIiB3uTCQ22im6thllBqUU7nqTSX/kt3KDQRxSzWfRqj/FHto2JreF/McMxQd1VKTjIZq1lrGzOV6eR4lu+3uE1HGLAia+YdQ1PmYLyqgtOb7qjzyXOEXhSJY1NJA8nIsZB6+CI5Fiooz9SJZOkpmKmk9b0Brb1+TY/LzOAW3MlZS7rPv74tp+vu77LuRfT/uz6A9M2QveDXjK5fRfp5+cs4IeMeoI3KPBc68VlWj0kAy6l3j+reiGz5nykgqS6j+Ld5A9IYljWTi4v+WjSsdDTNlLjnvFWR9NMOGm0rx5mdluUSsXQ9OXPw2g95FFlMp2xQzhYanylxh+yBGNHy6vatD1SOMS8qMDLYf0MFk3S2qixP7PhSMH72pZGI6Sh+Ixjxbfc+LlF8iWqNJnnaR99vJ6keV9MaLqreJeXPLlu3vRt7ILWI26hX9BOtBh0iVyTStJNfL80jlFWfcY08uGWVsaUgoA2OzdyLePV2ey0QFlHrjxaGD7bSLHflM7wTxux6O7hntFx55OhaiISc7r04eYwGs2wV1xVY6XsVTMjJL6bALNxupIvb9YMcug55yRM299r4w7iDZeSpjgwq2dx1Lsj2+vy/u0/+5Iv878XnwK6vmot/EGfV/cPC+qxO537IHkQ0/fE3L+4rorq2rPNn1nq1Gl/fCYcxnWZbB2SuJ+3yKvjyOd29oyXPmqRdJen8xlmtfRkacQXNtZJ2lZxfedWCyPtn379PTX3hf3jdorxoTy3nmhupKUN8X63ycfZ06x/Fw2W/XbbT0dqPWaZmWC7xm/G06sa6dBgrQiFOkWozrvaQwPOBhQSXvwkzeenT/suepA/qtScuyVEAs5+H9zvIvbtt6UlLrtfTg4c76ZcRvL2+lO2ydZ6tbEuklch7eVZmeqiHXMdRmzuedrVx4ry9tRB9Yyk6VS5JaS7MM3ctY4vvjc2MwdU5YLzT4LWv7LXt1rAfUqNj2tdRvL2PL+SEnufO2PG9l7H0+zjXA4cc4cQ7n+pjZ95VzK2PGdjz4tu8YZ9vLux5V25csQON47x/W90Xq+ezbJ56rGmHbwbuvSzN1Q3EcD0v5mlIfi3Q/Y8x9mekcdD1f9M8jz+ex5Fye9TzxfixsyxJlUUwn2flItm3xWsaC2h+T8zzO/bHwbqp7N1X9iR20An0/glUwg/FcUsFw2BKIFpBaP80QwMJ8lk3ACnOC4wINAKDApnroD6+2UP9bX9BPf8QHUaHN2gacs4XRnV8zAnEAAAAInGn6+59YIE6/pzMIxH2BYDyfrn8rUjZS/4ARAAAAQGHx9JTnXvgf9G/UTgM/NtMqNR0KC8F4Hoif6Vf9Z1vztAEAAACCYUndYfqp0D+GBw5zP2ccAAAAACCgUDMOAAAAAOATBOMAAAAAAD5BMA4AAAAA4BME4wAAAAAAPkEwDgAAAADgEwTjAAAAAAA+QTAOAAAAAOATBOMAAAAAAD5BMA4AAAAA4BME4wAAAAAAPkEwDgAAAADgEwTjAAAAAAA+KWwwfv1berKum548OsZGpqjrQ/Y/G++4Lp+GGRhlZwyiDOeuiYtfi/3cdnGKjY1Rh9jvr6lrUj6fHyN0aPVuWrT6KA2xsVhPG/ufjR8ckU9D4YwelWVvDDgGc9LQQe0YJznOxjxv9kyoKZAzxvtMlPsEnXlflvWhUfk0ABSGjzXjS6ikjD8uoNKlYgLMZOVr9Li7jg3r6GS5mlYgMjD+lgbVeOEtplKxzwuppIDnSqg0JB5rnpePUEAVjfTw2mE2tNDxKjWtQORFmLwgg/zhQfbGUyE6fokfZzU0V6pnofCKqaSUP4Zo+TIxAQAKpLDB+NKFVMseaksXy3FIGDyq1Xrz4cMhms/1QMXPLBSP4WeWiMfCYF9CPPCrKqMSOQEA8mKE+k+xh4attL1ITkkm3CwD9dO1xWoK5MyyMqphD6hwAPCXrznjJaUL2N/C1nYGj0zBWB9dTP2i5lsNTURfiBQNSNxFKWfnipxQGOqLKlyKIAAgHxAEBkuJOB4hKklxgQQAufWbOKP+DxSeGrG885EaY6pfpMeNLvkZPJf6owdqhHHMx4PdGzQUWUdnn7lhmXf/vjras5L/x/PXr9AOepruHgiTJfSaHKJtkXtE/PWbjVpaNX8ibXsBnex8ner1iwqxXb+K6SXneLCtphMPul+jNWqM14jLQNycNjO17jL38hDLu23bD7UP4cT+SjOXsSy3vWrMybnN9uXVWsqM83IsMjFK+194m06sa6eBv9Wy0D2/xO11itDDdybozU0XqFdNbz9xmJoq1AjjZT5jnlvPn6cVrTGiBuv89mWmxvPeO2morYVOl56nRTvN5E/LsqajYh1ht20e30K3Pq9mX8mMmO8qbbvUSiXHeFqBmI2oSpsnEzxXVds2sd+uKQo8j7WddpW6P+/YXi7JvvH0E1HGBss6Zbm1qDGnCuq71khhNSak3AePx8Inojyir7CyK6aT2r7X8O3VaqFluYXY/m+lO/xYDKgnXM8Bezm6lJuglU2SGm9xbI3zjXErM2Me+zYnm+6Vfd3uy1HnplEerCSOs/eJpaZfnCMxMd3y/tHLRZ1HyffPXoapyzi9YwYAvuPBeND88s1X8Se2fhU/HVMTGD7twD/UiOKc72b8wNZz8SeO3FTjnJomhr74VTXV/lq3dXJyuvk6t3W4vvYffWyaWm9i3sn46T1sfM9g/Bcx7ra9qahlJHnN1SP68pXYYPwNth69/Ny2mU+zlzHnLAMnsV59HrXON76ZVBM4b8cibcMd8Wd/W8mG9+Jn9dXlyWDHe/GFq/hwJD6opk1c+JiNfxzvmlITGHM+c7p9PjHP7o/j9R3D8fjIEfFcPRvvmvol3rWbPcenp2U4/qlYJx9m2L6pi/F6Ns+nI2pckdtzMT6hxo35+PLqLxhnlVpH2tsmGeViWTfbd/u2SDOXg2N7OZd9czs+fJrbOuW8Ztm5cS7PrUw8HgufyO2Q25coB3EOupWdnG/Gc0CVuzmPcayNfVfHUi3LOSQpkyTnqmQsUzteah/07UiHdZulwQ77tjn33/W4qm0RQ2Jetc2J8zbZ+0lOt+xHyjKWPB8zAAiEQHZteGf8EVF5EW3QapqLN79uqzkdoy86H1Ft5GWtRrqc9uxbTBT92dnrRvnTdFeryS1+qYhq6RGNq/mM8a4f9NSQKbrcx7alelnidRMXf6a9vFZYq5Uu3vwynSx/RDvOOXs44bXDZm3zEtqwcQHb9F/pDh+9fl/UPO9f56zhzjdvZezR5BAdjPLaba2mfGmY/hpZQD2dN5wNP1Mci7RVVtNO/rhuM20oWIo5rwUza6NCVa9QDcXo7n01IcFaWxaq3UrtbL6zA1qLgAGibe8YNaoxdr5FzNq18Qk+JX28BkyrLUu+fR41RLSawUpa38AeMtm26SgdOuVSy1nRmNea4js32ZayMtig1VqGalszXOcInWyNUU2bdpxYmTSdYAs7dZ7OTKtJhlwfixyzHIuKraLBbEvU2asJn2+mc2Do2AXqZfv6mVaDHG6OsPN9lA6JnlCKafvnRmNNPl3WOCcab16z1Sp7wpcp17FR9AgyQof4HQjL+ZqOCfbZyB4a1lpqmsPN1m2L9ZynFl4jrd0JCdVGWNnFaNcxZ9mJ/UzMW0wbqkPsfX9bfg8YZXnqe2uj4dHv2TpCtK3K3I/UZWyV6pgBQDAEMhgXueRj92j5TI0YRSC7gOpfskVfopGoS2BX9pQ1/YQFi2e7tdQINt5cTdTTd9tc5+Rt6mLxtRksO4NzSeU03/6XY3vtDRB5wPvYc0pK/ngqY48mfpimHnaB8qotkJeNMNmFR7rHIm0VtPfHYfqpACkqCbbALinHfLKRaC8PDg22eXKSo86WYbkVXVRNp1nAk2nA216tp19kLjZwlXrZ8Vqfx8DbjciFHbhAK96PZh+IuARJgmhj4BJk5/hY5Jb9WKgeNRwBm7OHDdGwMpHyIBtk1rDzxLKv/HX28z3njAuhTlok0jesQXJ61P7zZSXtTnOCLkfZ/tgC9uRl53xP8wvBh9oFWvidLezcGaV+LetpKMpGLJ8N6ZZxqmMGAEERyGBcBKy8hpsHi0bvIrZ+tSf++Sv7+4h2RLQeSPgQuccCw8ysWcfXOU2XVfAogszyp+ntRJD4gMb5ZkRvWNfJBjMnfHbwUsZeiVp2VjbrtfIQg57LD8DIGurC91Yjgh8esPGAfIY+rb2IjfOgJ0a7NqnlGIPWLiBfeA6xZZ1scOt/2+t8OTM9IWp1e1vbbevVc6rzqKKR+nitL9N+wpo/nS4esN5qY+GqCO7dyo5dcPF90p43Bj3PPC1FleziTr8jIQPv9ojeFsLnMgaAvAlkMC4k+tWuo/5qNs4DYC1YlLWuvOGk1gOJNmRUy7pyGe1PpKrIWvDajWVaLa7q75o3dHRZ52N7489UVFePe69kFgRnLUUZeyV7xbH1BpMYbA1bYV6TNdTG7fkCS/RdflgGbjPWfiYn+5+39Y+tDfms8Ta6+dMHt3QMr/PlTFGxCICtaSfakHFNtTe8wSLvs7y9IUQtO9ucqUJpkjXXfNtlP/c8ADYDclkTLRrs2veTDxnVPKvUFSNVRdx9sd218LmMASB/ghuMa9Y0qmBRTwNJlo6SlXJ6m+c581QVkaJiT4NJno6SkaVlVM+D++j9vP6gjkwjmZlrGStJ002UVM/nH+9NZRU9924Pu4QKuOkROjuQu7SP3FJ9P+eRDGStt+NzTabCzIwHqyIgd0kpkNsYozvJArpk6ShzQrJUiFQKkY6SxHSUPlA5/E3Nsk3GrtYcpCMJPCddBeSJfUuejpIN2Z5EvjdEioojDcbHMlaGP2Gfs+yz9g/dWV7tAIBFAINx3nWf/dcex+g7ngai5xqrHO+9H+X2J9JFY8KxafriHAtgq5911Oqu+d3T7Pl7tDwnP0e/hOqb2PJEiodtnyeHqCODfsZlLriWamPvvlDwWMYGdeHj1kBVWPmibMAa8elXOkeidII/XrlIlwMdjU/QmVbZAGtHHmtPPVG1bPpt8Zm79ssRo4GgvfZy9GhGP8Eta9qv0mW1LEf3hQLvgs7+i5rqwsOez82pYNutIZ5QVE1NLJDPRQ1s0AwdlDnXTWnXorOgNSLztgv7s/XsvOXpQYlGjSp/fOACfZDRdrDl2dsVqAtovU90kePNU54yTHVyJxtYtkSPsnMzRMcTjboNfpWxYZr++7b8r/9Px2hY/gsAORDAYJwFqAeW0XeW/GPZN7W9X21em3s3Qs688WwaJYra6ke0N/rIvZcT0djwRdrvkjfecV3Nkw6xPP4T97ac60NEb2t9dJu/0Kn6N9fWr6+X54L3V5u59Mv7iugu3171vOS9jAW+jaKXGn2f9cCbL4/XrLvkjefkoiUFX3pT8UjPUea5nby/7EA0oGJByyUWUCTyXjuJTqhc2bySPWr0NdhyrqNrLekdZs6zyofV8nP1oJ2nE+jLEv1mq546THyda6lfvV4Oso9r11v7vIFlokGgMb81mJd5xeTMG89FA9GCGqWN2vaLPtttfVZ7xtOA2DlFjpzmTC5a+MWher3KxW/ZaSzPOBb8IkteQFpyq1X+uDW1xCv2vmDH9YPEtsv18z7rLWk+ohEuO88s54gcMrmoNISr+Xk3Si3JGojntIzTVURvvP979T8A5FJgf/QHYLYTP9hh/0EagIAwfxgmuwaPMJ8U9gfWAOaLWZEzDgAAAP4a/oQF4lRFf/kzAnGAXEIwDgAAAMmNHBQNN7d/+Xs68+NhegOROEBOIRgHAACA5Cqb6Sf+w2o/NtMqNQkAcgc54wAAAAAAPkHNOAAAAACATxCMAwAAAAD4BME4AAAAAIBPEIwDAAAAAPgEwTgAAAAAgE8QjAMAAAAA+ATBOAAAAACATxCMAwAAAAD4BME4AAAAAIBPEIwDAAAAAPgEwTgAAAAAgE8QjAMAAAAA+KSwwfj1b+nJum568ugYG5mirg/Z/2y847p8GgLIp2MW62mjRat305s9E2xshA6x/xetbqMz0/J5gEwNHeTnkjYcHFHPmIx55PkHOTV6VCv3CTrzvizrQ6PyaQCA+cbHmvElVFLGHxdQ6VIxwWLi4tcs6PuWBtV4oQweZcHmh0PsKwKcZj5m+ROi5VXysaRITJg9pqP0pg+Bhggm349STI2DxMtl46kQHb90mB5eU0NzpXoWCq+YSkr5I3uPLxMTAADmncIG40sXUi17qC1dLMdnq8kh2sZrixPD19Q1qZ6ba3w6ZqHSkHgMlxaLR4DsjVD/KfbQsJW2p7ioCzfLQP10Lc6/nFtWRjXsoeZ5+R4HAJjvfM0ZLyldwP4upJKC1rJmiadtRO4RRdbR4+46NbxMdKjwtfh+8OeYqdqzqjIqkRMAMoYgMFhKxPGYhXe9AABy5DdxRv0fAGPUUXeD9qoxp8XU3/0arVFjAg+OP3qgRpjqF+lxY7kaMfH0k/VRNcLUsmD67OYlcoTXdLMAu0eOOZU/TXcPhFlIyHOmr9AOMsZTUfPzdGthAZ3sfJ3qtUCWp+Ms71zI9utFuqPPm1gno/Zx/7462rNSPJsg98teLvZytD+vtquMldXv/mXZd0u5ZGD4k1W0/csq+st3h+mNzBfjCc8rXxF9hW59XkwnV3dSi5pe09ZiqdH0NB/PY91J1HepjA5tukC9VEF917bSnffbadcAe74hklY6g0yHUCMu2k8cpqYKNcKJ9Wu5LEnWJ/alVUs+0efjKTFi25Oo2sLKoJqFPf5J65i1hqzHgHPdB96mwFwWiWPXSGE1ZpLzDdnWpbMfN8dxYhLHwHaMkk33yr5ue5lIPMdaKw9WEscvtVpr+sW5FBPTS47py9TKRZ0r5LIOuR9kW27qMk7vmAEAQAIPxoPol2++ij+xtS9+VY27kfN8FT8dUxPiN+MHtp6LP3HkphqXrh5h02zLunpEf51JzLtnMP6LGreajJ/e41yWO+e2OLfXmMaXeS7+xjeTaqr9te77ZUw3X8fEBuNv2KY599/YDz5o2/OPPjHtwD/UeNpG4vt+Wxl/lg3vnJtS0/Jn4sLH8YWr3mPDx/EuY3UjR8S0T0fUOGPOp023zyfGP47X7z4SH4wPxz9lz9XvZuMXflGv59MzMHUxXm/bHju5fG0f1PoXdgyrcck5n5zmtuzBDvb63RfjE2o8KDwdC0afjx8DyaVcVPma86h9TxyvX+Jdu+Vy3AdreSakOG5yHdpr1fz2Y+aVdZulwQ77tjn33+2cMMpTDIl5VTkkzgn7uEFNT6uMJc/HDAAALGZx14Zj9EXnI6qNvKzVNJfTnn2LiaI/azncU3TnNnuoXmapUV/TaK2h9mYJ1b/Fc6cf0PpEDyPuJi7+THt5jbRWS1+8+WU6Wf6Idpxzvo7Xeps10uX0ajV7uP0v1ZBUjUfvW1Nhrt9n61hA9S+ZVdCD5+5RT/nT9FetdntN44u0n23zwYtTaoqB15hr5bByGZuPaOif9vm8qqCat/hjFf1f6wp3z7n9hFaDV7GW2tnD0LizCa6llrNiKx2vImqJ6j1pxNh5sjVR29dLr9BniVrDGN3JS08uI3SyNUY1bRGtFrKSmk6wDT113tJ7zJ2bbPuqXqENWtGGalsdNbezQepjIfH5zJrbSlrfwB7YsTXuDQwdu0C9VVu048TzvSPsHBilQ6InlGLa/rnRWJNPlzXOicab12y1yh6Fm1vYNsdoVytvJDtBZ1rldtzKoEac13bfGWcPDWstNc3hZuu2xXrOUwuvkdbWEaqNyO045iw7sZ+JeYtpQ3WIaOA23bGMX6XL+nk9PUJnB1i5V5vrSF3GVqmOGQAAWM3eYNwlEBVEg8NHNJ4IxlUPINEbMwbPnq18jR53r2NBNfufL1M04LTni0/R5b5HjguAxLYkgmyDs3eSNY119FhLhVnzu6fZfj2g77QuBQevPGBxehFtSLx2jL6LEtVuLEu8TlpMpWx7e8a1dB6ufKEtB5tdzHTrFwXpW/XHYfrpx/ynqJgqaL2nYNQ+n8pDtwQJIdpWpZVcaXH+b62Pfs8CLNt6OdHILUZ376txRuTWDlygFbO+lxQvx4Jz9rAhGlYmUh5kg8waFjhaj5PsfaeXX7zkDQvy27ZQDT8eq3lKRoiOt2WaiqH2/1SnazeL0gRdjrL9sQXsycuOlZWt8TO/cHuopZaEareygDrGgm/z0yjGgnOeomUen3TLONUxAwAAu1kbjE/881f29xHtiOi9mrDBJfebB7Z3Iwu04LmbtjlqidOxhOoPqMabvCZe1ZSbfW8/oHEe92vrMwY9bz0tS8uongXUe68YFxQy8N7/lpa7PvkvGmIPPZ1XbOvV89YhSGLjPJiJ0a5Nsq/lxOCS+y2CKV5jLgJANV/S4C2HjH6h9cHlgkB0p2ibL6/9dE9PiPO9t7Xdtl49pzqPiqrpszYZYlrvbKSPB6y3+LJ4QO5aduzCjO+T9rwxzNQ2YWay1ro3OqKOpQz4a9rMu0O+lzEAwDwwa4Px4mcWsr+8QaTRo4l1sDd0LN78unpO1mrzgDW7gFwRNeU8DYQFyl8a/ZPLmmjRmNS2XWLw1PjTbglt2MgvKFSqirgzsJhe1fdz6VPiS5Q3wnRdr0vDVvCX7MLR1u+1NjhSUCoaE8/18dv/M9am5oi2zsTgUtNpdAeoD8kaSuZEUbE4361pJ9qQUcpIGthFCm+w2d5QIYLVbPuSlzXXfNt5CowMgM2AXNZEi8ah9v3kQ4Y1z+FqfnGnUlVEiortLo3fZQwAMA8ENhiXwfavdCdZ/92OdBSveK22CsjtaRuM6LpvjK1XjWcmWTpKdoo3Pytyv3mqikhRcaTBJElHKSDem8pzL+ymv+fgOie/kt1+zzEVzLjlsAsu6She8eBXBOQuKQoypcXIDw66TI9FIdJRkhmhQ7z3GxYcNzWrnPedR0UtcvZ4nrsKyBP7ljwdJSsiX1+mqogUFVubBH/LWJKfKavoD934+V0AmJuCWzOugm23xo7C0jA1VxPt/SjVD+6MUYf9FzUnb1MXW6zbD9nIiwC3xo6cy7IY2VjTmjIicrzH7tHyXOSpJ8iGnHuvfEvfRRfQyd/Za7pVA9PojdzU+qdtlHq/5I8D9NWVYH9xDh3k3bRVUFM+a24FFcy0nncP1IqqqYkF1C07U/3UP+/Szh7sqR+xccltlzXu7g3sgibzY8GC1kiFuDtQ2J+t58dCbrNsTKnyx1l5b8zoLgUL7O1pP6ohpd4nevgdlaOe0zshsiFnb/Q8nYzGqD1ir2H3q4wN0/TfvAE+0/+nYzQs/wUAmFMCHIyH6azoGUXPu7Y2lJS54OTMG7cEzOW0p4nof+nPR+5R2NJ7iWblayK/3JJ3nViey7LYIPsJt6XG8O3n6SsueeNmbnn61qzjZfKA9loabmp42kzn00SOvPFC/EqoP72peMMCJS3ndeP4Frrl2hd1rvFaTtnzhL5+PaVB5guTM2/cEqDx5aylfv151We2a6pARaPIQbbk+gam4WcOjwVPobm0hciR05zq4sYN70tbvV7l7LfsNJZnXggNHZT50pbcaiN/PKO0oUpqYsf/g8S2y/WHLb2SMGwdp3mPMC5549mkyISqXmFB/ii1DCRpDJ3TMk5XEb3x/u/V/wAAc1PAfvQHIPfMHyMpRPANM8GxgPSN0v4X3qYT69pp4G+1VLCOmgAACmTWNuAEAIC5b/gTFohTFf3lzwjEAWBuQjAOAADBM3JQNNzc/uXv6UxBf7sAAKCwEIwDAEDwVDbTTz/yHxFrplVqEgDAXISccQAAAAAAn6BmHAAAAADAJwjGAQAAAAB8gmAcAAAAAMAnCMYBAAAAAHyCYBwAAAAAwCcIxgEAAAAAfIJgHAAAAADAJwjGAQAAAAB8gmAcAAAAAMAnCMYBAAAAAHyCYBwAAAAAwCcIxgEAAAAAfFLYYPz6t/RkXTc9eXSMjUxR14fsfzbecV0+PadMDtE2vq/G8OEQTainXBllk2q+QvPpmMV62mjR6t30Zg8vjRE6xP5ftLqNzkzL5wEyNXSQn0vacHBEPWMy5pHnX0BMR+lNfbvfj1JMPeUqMf9RGlKTAmH0qFbuE3Tmfbk/h0bl0wAA842PNeNLqKSMPy6g0qVigsXExa9Z0PctDarxQhk8mqOAeGmYznbX0WM29FeraQGTfhnPfMzyJ0TLq+RjSZGYMHuogKjQgYYIJlMFa/MQL5eNp0J0/NJhenhNDc2V6tmAK6qm02qb+xrUtKBJ+3wvppJS/sje48vEBACAeaewwfjShVTLHmpLF8vxWUwGsrKWWA5ZXjisfE0E7o8PhNnXU4D4dMxCpSHxGC4NVGnArDZC/afYQ8NW2p7ioi7cLIPe07Wz+PxLBO+NFFaTAmFZGdWwh5rn5XscAGC+8zVnvKR0Afu7kEoKWsuaLZmqsbyT6GSnrPmWwzL6TqRyzG3+HDNVe1ZVRiVyAkDGEAQGS4k4HrPwrhcAQI78Js6o/wNgjDrqbtBeNea0mPq7X6M1akzgOc0fPVAjTPWL9LixXI2YePrJ+qgaYWoj6+js5iVyhOd3R+5RjxxzKn+a7qoaa14jLgPx16neY0Aq1n3bXIaFx+2X7OXjLA+xLmLL+N2/LPu0f18d7VnJ/8ugjNMw/Mkq2v5lFf3lu8P0hirefOF55Suir9Ctz4vp5OpOalHTa9paLDWanubjeaw7ifouldGhTReolyqo79pWuvN+O+0aYM83RNJKZ5DpEGrERfuJw9RUoUY4sX7t3n6S9Yl9adWST/T5eIqA2PYkqrawMqhmYY9/0jpmrSHrMeBc94G3KTCXReLYudUGy/mGbOvS2Y+b4zgxiWNgO0bJpnvndT/Udo4nOZ7282DG485ztrXyZXMdv9RquXMg1kVsn96ZsCxXL5u0z3cAADDxYDyIfvnmq/gTW/viV9W4GznPV/HTMTUhfjN+YOu5+BNHbqpx6eoRNs22rKtH9NeZxLx7BuO/qHGryfjpPTM9727mZRrUsm3bnhAbjL/B9u2NbybVhGT7xadZpzvLSfJSxukZie/7bWX8WTa8c25KTcufiQsfxxeueo8NH8e7jNWNHBHTPh1R44w5nzbdPp8Y/zhev/tIfDA+HP+UPVe/m41f+EW9nk/PwNTFeL1te+zk8rV9UOtf2DGsxiXnfHKa27IHO9jrd1+MT6jxoPB0LBh9Pn4MJJdyUeVrzqP2PXG8fol37ZbLcR+s5ZmQ4rjJdWivVfPbj5lnqgysr2f7m2R5Xo/vzPM5y9PtHJP7ygfzPeA2n+DhfAcAAKtZ3LXhGH3R+YhqIy9rNdTltGffYqLoz9Q1qSbRFN25zR6ql1lqe9c0eq/ZTpi8TV1jRLUbywqe1z147h71lD9NfzVq85k1jS/SfnpABy9OqSmGBXSy06zdLn6piGrpEY0nyiRfKqjmLf5YRf/XusLdc24/odXkVayldvYwNO5sgmupnavYSseriFqiek8aMXaebE3URPbSK/RZogY1Rnfy0pPLCJ1sjVFNW0SrjaykphNsQ0+dt/Qec+cm276qV2iDVrSh2tZZWeOY+lhIfD6zFruS1vOGi+zYGvcGho5doN6qLdpx4vneEXYOjNIh0RNKMW3/XDXUvMany1r4ROPNa9ZaYK/CzS1sm2O0q5U3kp2gM61yO25lVCPOXt856lKjzs6DjJbnTaznPLXw2ndtHaHaiNyvY/ZjwWvMzVr6EDsPa9ie372vJgAAQMZmbzB+/T7tZUFn/Uu2XAjR4FAPPFUPINEbqnu+2WiMvou6XQQsptJyop5xLc2FKy+iDT7l4a/64zD99GP+U1RMFbTeUzBqn0/loWuBHQ84tlVpJVxanOTWfg6Nfs8CItt6OdHIzRrsiNzagQu0Ytb3kuLlWHDOHjZEw8pEyoVskFlTXWk7TrL3nV5+8ZI3LMhv20I1/His5mkeLFhtyzAFaHqEzg6wCw+2H4UzQZejrHwa1trSYJIcC9tFIAAA5M6sDcYn/vkr+/uIdkT0Hk3Y4JL7vaaxju5GFsiAXM23zVGbHGCT/xL9BPd0XrHua90V2jH324zOabFxHvLEaNcm2ddyYnDJ/ea14A95jbkIANV8Ln1k55zRL7Q+uFwQ8Lxh+3x57ad7ekK8L3pb223r1XOg86iomj5rk+G39c5Gmu7fZse60F37sQs9XkanOm1lN3PuNwAA5N6sDcaLn1nI/vJ0DL1HE3OQjRVNxZtfV8+to5O8NpkFtmkH5EufErVIPX23s++HPB1qvbzRqX0/xZC0wScEnezC0dbvtTY4UlAqGhPPib6meTCV74BcW2dicGkQaHQHqA/JGkrmRFGxeF9Y0060IY8pHgK7SOENNtsbKsQFQcZ9ybvcBck/1Xc/T41xK7ukDT4BACDXAhuMy2D7V7qTLM/ZkY7i1RKqP6ACcnt6ByO67htj61XjVuX0Kv8Bn7Fpupz3/GtdknSULKUs4wzw3lSee2E3/T3wNx6SpTjkmAoY3XLYhSwCMR78ioDckd5hpLTcTnIeB02mx6IQ6SjJjNAh3vsNC2abmlXO+84Mf+lSnSNuOfP5kyw1KEupzvcMyM+UVfSHbvz8LgDMTcGtGVfB9o5zSfIwloapmQXGez/6Wmus6WaMOuy/qGk0xHT5IRsZoLo1ipRko0meHmNfL1tP3nLS2QXEW7xh6o3cptekKuO0jVLvl/xxgL66EuwvzqGDvAu5CmrKZ82toALG1vPugVpRNTWxgLplZ6qf+udd0NmDPfUjNi657bLG3WjEGGyZH4ti2h6pEHcHCvuz9fxYyG2WjR9V/jgr740Z3aWopB083cWxHyzgz+Ndj/A7Kuc9p+tIcb6nbZr+mzfAZ/r/dIyG5b8AAHNKwPoZt7H3we3SB7bs9/uRGlO0fsEFl37EzX63nRzLtC+Psfdbbt821+1S9D7OncsxObbRtT90nqpj9gzj2qe5el3YbZ89lHE6Ct7PuOiLWu+L2dmXdKL/Z52972XRz3dM9bGs+ntWvVvI15Oj/2Xv7P1H23oTYTxto8ty7P1z6xzLnLG/6cLwtp/GfB7L3LV/dWd/2W7nhpWzfE1mn99Gn9rufaOzfcu0n3F7X/PaOjnXslP0bfE6n+S+z/r56dqnuSrzsO08llKf72kZOUjP/c//YP/8ns782Eyr5FQAgDkj2ME4QA7I4MQetIMfcCwgfaO0/4W36cS6dhr4Wy0VrKMmAIACmb1dGwIAwJw3/AkLxKmK/vJnBOIAMDchGAcAgODh6Skv8LQ3np5SyN8uAAAoLATjAAAQPJXN9NOP/EfEkCcOAHMbcsYBAAAAAHyCmnEAAAAAAJ8gGAcAAAAA8AmCcQAAAAAAnyAYBwAAAADwCYJxAAAAAACfIBgHAAAAAPAJgnEAAAAAAJ8gGAcAAAAA8AmCcQAAAAAAnyAYBwAAAADwCYJxAAAAAACfIBgHAAAAAPBJYYPx69/Sk3Xd9OTRMTYyRV0fsv/ZeMd1+fTsYGz319Q1yUaNffpwiCbkDHkyQodW76ZFq4/SEBuL9bSx/9n4wRH5NBTO6FFZ9saQ7Bh4nQ+cfCrjoYPasthwaFQ9ATCbpPm+MM77N3vy+y2WLuN7Tm6X8R3YRmem5fMAc4WPNeNLqKSMPy6g0qVigsXExa9ZkPstDarxQhk8mmZgvXQh1fLHsqeoWEwojFBpSDzWPC8foYAqGunhtcNsaKHjVWqaG6/zgZNPZRxu5stiw6UtVKOmZUsEOu9HKabGC0MGLkELrmYLX47ZdJTeZMcsJxeAs+CzJ/0yDtFysS8hKikSEwDmjMIG4ypwrS1dLMdnJeMiYiGVuFxE5I/6IKoqoxI5AQAgOyoANGtRUes4G9jv4GR74WBchJ6uLWSVUmpGpVO4NFjbBZBrvuaMl5QuYH8LHdTm2NKnKMweCn6BsaxM1NzhQwoAMsJTGTZdIGprUbWofIgQtcpUOAgiecdj46kK6kscMza0EZ2c83dBilnMwB5QIQVz0G/ijPo/AMaoo+4G7VVjToupv/s1WqPGBJ6z/dEDNcJUv0iPG8vViImnn6yPqhGmNrKOzm5eIkcmh2hb5B71yDGn8qfp7oFwhmkoo7T/hbfpxLp2GvhbLak15g2vMdlIEXr4zgS9yb5oe9X09hOHqalCjYgP9E4iNm3HeButaDXqVPgHfKO4uOCMZd16/rycp8G6XOsyvZDrHWJf/qdLz9Oineb9WMuyeG0dW0fYtnyxPeNb6Nbn1cTrS3g+4YroK2y8mE6y5bbI2aiGLz/TGh4eoGjbZS8Tqwk683477Spl5dJcqaa58TpfAYkyvkrbLrVSyTH+5a6mV5nla1LbP6BGGUcZi3KL0XH78tzKTx1f49zkd33467a73nrOYRnbjy0/n5PNm+Qc9MyxjzYu5SzO58R7Mdl5LN9DxrluLzv7MuzMZaryIrfj7ca+XudxlesOselb6Y5+vmj7Kt7DIpC0v6fU8u3HJOUx04677TMv7c+BtI+Z/X2R7Dye+ZjJMpH/u9E/G5OXXzIzvy/s657xMz3VsfDymZLB+wJgXuDBeBD98s1X8Se29sWvqnE3cp6v4qdjakL8ZvzA1nPxJ47cVOPS1SNsmm1ZV4/orzOJefcMxn9R41kb7og/+9tKNrwXPzuppuXRYMd78YWr+HAkPqimTVz4mI1/HO+aUhPiw/FPxTxs2H0xPiGm/RLv2q2Pq2Xt/jhe3zEcj48cEcuoZ+NdU2pePj0t2npn2r6pi/F6Ns+nI2pckdtjbp98HV+W9lqxnc7XesLXa9kntZ/atlp5LYdMyyuPVBmL8ktslzo+tu0c7NDPHUaVcf0F7V2iplmX5zynxDos48Y5a1tHQm7KOOl7INlyk5yDmbCft25kGWjnmVq/pYxdt9lZnpKc1/p6nSqvpOe2xmVbHNvLmO9HfV7bNid7f6rPF/0c8HbMjP3ggzZvNp8DTOpj5twW5/ZybtvMprktO+U557asVDy+f1Ks29OxUMuY8fhrvLwvAOaLWdy14Rh90fmIaiMvU30izaWc9uxbTBT9WfZ0IkzRndvsoXqZpUZ9TePr2uvyqLKadvLHdZtpQ76rxRN4zYtZcxKqeoVqKEZ376sJBkstRDFtj1QQDVyly3rO6ADRtneM2o8YK8eIWfMzPpFZniJfr1azk3T7PGo/odVGVayldvYwxLYtbUXVdNpSe6TKhEapX68sn0sstVuVtKONnQ2nvrekKYSbbbV9FVtFo7De6Ijj+PPaSHN5xbShmi1v4DbdUVP4OppsNV/hd3hjyRidHcjXbfYROtkaY9umnbt8O06wY3vqvP850tNROnSKn8dabSc7Fz9jx6K39bx5LKYnxP/t1fo56ixPb8xzeyPPOZ6ht42hYxeol71nP9NqmcPNEfY+G6VDLqkRvHbVrJGupPUN7MH4rFDvzxZ27uiGouwNxj4HNiSOT7rHjNcW5+hzwINYz3lq4evUPi9CtRH2vojRrmPavuXymI1+L2rXrcsqhDSPBftMSXr8AcDV7A3Gr9+nvbSA6l+yRbiikegjGk8E46rBZfSG6lKx0Cpo74/D9FMBUlQSLF9qydWwD3XLF4LIQ7cFxbZl5SRHnS3Dsl4eBF/LMB2Ale/6jF7nkcrNn6vsX+yywVSM7swYoKrcTRf28yNU20oPU91SLyr2eMs9QyKICdG2Ktu563a++yDGLoB7Xc5jx7FQ5dSyM5c9bqjeNk51qsaA9nzxEepnFwqOzwo2xhuU9960h1hs+jL1ryIaByaCT7cLPpd1pHvMHHnELFhknylppal4NkGXo2y/G9bazlv1vtADz1wfMz+keSwKf7EAMPvN2mB84p+/sr+PaEdE9lWeGFxyv9c01tHdyAIZkKv5tl2cUs9CTvBcQKNlf2IITkMwnhtp3Tb3bt8c882U31hoXsuY53ba58umtwWX9c6U45qK0XewOej5tLkXG+d7HqNdm/R1siEgx/aOCGhVDbU+WNoucDzAlMEzD+7kfNn2flJM2z9XjQB5TafajkTgqGp2e1vbrdu2Ws+VTo+8E6bdbRLBXgU1aYFzsI8ZC0D5vicuYMzB+b7IxzErrKC/fwDmglkbjBc/s5D9XUAnO+vocbdz2LNSzmco3vy6em4dnSwn6um8goA8l1TtttkrAx+8NjLKv0T/0dpgrzWTjZl4io82Xw77m86a1zJO9DGsDRmlMjBGgyuezqItr4/fes6A0cCQpzKYy+MpD/kja5htx1UbMrsjkzsl4rcCeJqF2/bZGwRqwbM4N3mQlKPgTpw38li0dKqLN1WzK9KPHNvGBktal0dFlbSNB6cqVUWkqNhqmYN9zFQ3s7b3RGJwvNdydMzUXTp7ik++Bf39AzAXBDYYl8H2r3QnkW5i40hH8WoJ1R9QAfm41guLIrpbHGPrVePZ472prKLn3u2hoIf+yW6XB4O8lZ0/avkNW23Bz/xiz92V5wT7Ik60G8iGur1ftYV2FPIc8zkdRQTblrx5K2+pQS74xZkK7pz7liyNJF25Wo5O5auLVBX5vnOkNgT6mLmko3g10zFTFz5J89zVRYy9TUfe5elYpHpfAMwnwa0ZV8H2jnNJ8ryXhqm5mmjvR+pn6ZMaow77L2pO3qYutli3vsHlRcADOpirWvORKJ3gj1cu0uUgR+PTUfpANNLZ6n9ttpFnmagBsncNlg+qtkv/ouPpHvPpVizbX36bvT1i1uwZgaLZuJJ3lZZpmooKYvRGwiIFJs/HlgVATQ08TcCf9ABZhu6NHQXRIJbXlqZI62LHx55aZVws2fO0E2WdtIEqe0+5pC7Jhon6OWAEzp25/TVP0cBylPoPfk8tbhdnAT9motHxwAVakeJn5tM7ZurCR2+0a8GORRsP5Hkqke1cYe+jpOdXtvJ0LFK+LwDmkYD1M25j70PcpZ9x/rP5yzsfqTHF3i+4Sz/i+/c5U1kMjmXOtn7Gtb64BZVqYPaZ7B7c2vuYtSyLB6Y7R9U86fZRbEjSl7AbIz1CjfL1ij7RRb/icp1mv8Z6qoZch+jLPO3GW7Zy4b2+tBF9YCk7VS5JglG9DL3O5wtb+Ur8VrQ9LcIoZzNs49u+Pmo7zyznh5gtCXvfzDw9Yy31245ZPsrYvh8CP8aJc9j9fSGl07ezk2PdlvVKrvtie68492Gm7bKXtUw3SbwvXM+BJMvzcL7IbSPXc8iNsb8z9Qee+phl+lmUWupj5u1zNL1j5lym8z3lPK72bfP2vkjvfE95LBzfM5LYFvt3kpK6jAHmh2AH45An8kM4s4AV5oQkX5wAAABQWLO3a0MAAAAAgFkOwTgAAAAAgE8QjAMAAAAA+AQ54wAAAAAAPkHNOAAAAACATxCMAwAAAAD4BME4AAAAAIBPEIwDAAAAAPgEwTgAAAAAgE8QjAMAAAAA+ATBOAAAAACATxCMAwAAAAD4BME4AAAAAIBPEIwDAAAAAPgEwTgAAAAAgE8QjAMAAAAA+GTmYHyqh/7wwip6jg1/6J5WEwEAAAAAIBd+E2fU/8nxoPzVFqI//xf9e12RmggAAAAAANnwlqaypJY+eIuo//93X00AAAAAAIBspZczfnucptS/AAAAAACQHTTgBAAAAADwCYJxAAAAAACfeA7Gn/5/Vqn/AAAAAAAge0T/f1D/IR1F9IHdAAAAAElFTkSuQmCC;" vertex="1" parent="1">
          <mxGeometry x="520" y="450" width="311.81" height="200" as="geometry" />
        </mxCell>
        <mxCell id="gXnHDSjm7eshs8PWAosT-17" value="最外层json" style="rounded=1;whiteSpace=wrap;html=1;" vertex="1" parent="1">
          <mxGeometry x="390" y="590" width="120" height="60" as="geometry" />
        </mxCell>
        <mxCell id="gXnHDSjm7eshs8PWAosT-24" value="" style="edgeStyle=orthogonalEdgeStyle;rounded=0;orthogonalLoop=1;jettySize=auto;html=1;" edge="1" parent="1" source="gXnHDSjm7eshs8PWAosT-18" target="gXnHDSjm7eshs8PWAosT-22">
          <mxGeometry relative="1" as="geometry" />
        </mxCell>
        <mxCell id="gXnHDSjm7eshs8PWAosT-18" value="yml文件" style="whiteSpace=wrap;html=1;aspect=fixed;" vertex="1" parent="1">
          <mxGeometry x="210" y="30" width="80" height="80" as="geometry" />
        </mxCell>
        <mxCell id="gXnHDSjm7eshs8PWAosT-22" value="" style="shape=image;verticalLabelPosition=bottom;labelBackgroundColor=default;verticalAlign=top;aspect=fixed;imageAspect=0;image=data:image/png,iVBORw0KGgoAAAANSUhEUgAAArAAAAD3CAYAAADlhmdLAAAAAXNSR0IArs4c6QAAAARnQU1BAACxjwv8YQUAAAAJcEhZcwAADsMAAA7DAcdvqGQAAD6ySURBVHhe7d1/kFXlnefxr7sTncLUAlv0j9EUYNaQWpAfY1eaSUoEt0zR0aETZgxuWQLOyIpJpoYtLTWjxkQkjuJojVUziTgyGyA1CYwjY6Ome9YdUSky3Vut0EhvSdgRqEG7b1MrVE2sxT+29/k+z3Pufc6559wf/Ys+9PtVdeGec8899/y6fT/3e57z3EuGDQEAAABy4t/4/wEAAIBcIMACAAAgVwiwAAAAyBUCLAAAAHKFAAsAAIBcIcACAAAgVwiwAAAAyBUCLAAAAHKFAAsAAIBcIcACAAAgVwiwAAAAyBUCLAAAAHKFAAsAAIBcIcACAAAgVwiwAAAAyJUJCrDHZOvqvXJp8faa7Cn4h7yBztfk0gd6ZCAx7S2dQ36KhKEO+cP5S+QLf9rnRwAAAGAqGP8A+95+E0SPSs/G6+TTvavt7dRGkds37pWt7/lpIsdOy+zVx2XuNjfdp4/NlI5tB8qnM4YOdMrbemdXlxyyYwAAADAVjHOAHZI9uz4WWblAXmxr8ONEmtu+JD+dJ/LwLq24xm157CZZ0+gHrrlCtpj/ev6lvArbcF2bLNM7a1fKEjsGAAAAU8H4BtjCB7LnmEj73Jl+RKRBrr/hMpFjn8hJP8aZKcuv8XeraWiXv+4/JL/6k0V+BAAAAKaCCWkD2/q5UvU1zgTYRFtYAAAAoJIJuogryzSZEzUXAAAAAGowvgG28SpZo21dDxzzIyJD8tYb50VWXiFL/Zi60QsBAADAlDTOFdgGWbN2pkjX0VhPAgOd/1NuP3aZ/PT3TLodIXohAAAAmJrGvwnBNStsd1gPf6/Ut+vsbdPk7b1BbwMjQC8EAAAAU9Mlw4a/DwAAAEx6F/giLgAAAKA+BFgAAADkCgEWAAAAuUKABQAAQK4QYAEAAJArBFgAAADkCgEWAAAAuUKABQAAQK4QYAEAAJArBFgAAADkCgEWAAAAuUKABQAAQK4QYAEAAJArBFgAAADkCgEWAAAAuUKABQAAQK4QYGtyTLau3iu3dA75YQAAAFwoBFgAAADkCgEWAAAAuUKABQAAQK7kLsB2P7dXLn3umEihR25Zbe7729b3/ASene6BHhnww5Z/TnLagc7XivOxN51/hvi0+6Xbj08a2vtt+cL8JbLlsB8BAACAMZHPCmzXUbl04xlZs221fLp3tZzaeJk8/L3XZE/BP14HDaSzt4n81M/Lzm/u8bKQqzq2HZDZb8ySU3a66+Sn8z6WZalh94y89YuD9t6O1/rs/wAAABgbOW1CcJkJnDfJmkY31Nx2tWyR87Lnnfp7CTh54rzIvFlyvZ+Xam67Se6/xg+E5l0pp55slWY70CDX33CZCdMfplRhzfy+9hV7b/1Ni+z/AAAAGBv5DLCJwCkyU+bOE+k48bEfrt2cuSaEHjsts5PNDVK033CVD6/VNaz+kfyq/5A8vNiPAAAAwJiY8hdxabX108dmuhBbQxtYAAAAXFhTPsBa16wotn99e6UZ1ja2hFgAAIBJ6eIIsIUPZI/Jm1uum+dHpBt454x0+PtZlt7tQ+wHZ6s2KaiEXggAAADGx0UQYIdkz9OnpWPelbIuuPDKtW09I2/5nglcbwPn3UCRee4Dya6wjsmbXea/q2bU3N61HL0QAAAAjJd8BtiwverqA3L7VQvk02LvAI62bX175Xm5faObznV/tUC2+MedBlnz5BXyZnFeejsqPRuvk0/vrlzNrYxeCAAAAMbLJcOGv58L+gMFyz4Iu7MCAADAVMJFXAAAAMgVAiwAAAByhQALAACAXMldG1gAAABMbVRgAQAAkCsEWAAAAOQKARYAAAC5QoAFAABArhBgAQAAkCsEWAAAAOQKARYAAAC5QoAFAABArhBgAQAAkCsEWAAAAOQKARYAAAC5QoAFAABArkzxAHtMtq7eK7d0DvnhfBrofE0uXb1fuv1wng12PCqX//a3S7fvdMmgfwxjo+epYPvq7anD/hEAAPKBCiwmoUXyxrs/kl/r7S9XSpMfmx+H5WkTDG/tGPDDk0vrfX7bvvuI/OQrfiQAADlCgAUAAECuEGABAACQKwRYz7Uj3etvyfakQ7LnATP+uWMihR65pThdevvZ7udKj9ubPi9k5/Ga7Ckkpn2gR9JPOru2uqV5ZrV3jU+X3rbXr0txOrccZRLrWbGN7VCH/OH8JfKFP+3zIy60Afnb77hT+FF7T3s6v+853+7zUfnbM35Sy00ftgvNOv2fbD8aTldqv7tNHjHDr3x/c+a0TvJ1k8sVzfM50SMjNi1tgwEAU9nwlPb+8JPfeGn49+9/dfgz93cPf2THFYZ33/9SMKz8ODPtZ77x6vDuQT/6yBt23JNH/LDx0S9ejQ0PD3YP/74+78fv+xFGNE5f+xcFP9ItS2w65V8jPt5MGwzra7plC5bFPi9YVqv8NdxzE9P55Sstm6HjksvmFV761vDV/3GxuW0dftePG6mBl38wPG3Jj4e7/fDIfDS859vfGl7z7R8Mr3n5IzdPvW/ne2j4z5aYx8z4SPfWHwzvGfID6vCPzTLEp1HdW79Vtmxlz7XKX6Ocm2ba1kN+OFr3+PzcOH3dcH7lzx0Zt51GPx8AACYWFVijQ2bJqSdbpdkONciatTNFjp2Wne/ZEYGZ8vbem2RNox+85grZYv7r+ZdSpbO57Sa5/xo/oBpb5b6V5v+uD8srmCsXyIttDX5gnizX6T44G1Rhh2TPro/tdJ/ePc+PU/Pk/tiws+Wx1aXXtst2Xva8U1q2gc7j8rCuQ/Dc5rYvyU/nnZfbXwqqxIVPzDa5TNZcGy2bYdbjxZTXVA3XtckyvbN2pSyxYyaHVw42yb3tbq/KwUFp3XG3tLoheeX9Uv2y9b7vyzdn+QG16Bv24qZXug4HVc4BOXnC/Hfbl4vzUGXPrdFgx9/LI3qx2n2L/RiRpvaN5nUH5Y7/Vt4rwOYdP5Ld0brIYll2m/nvxABVWADAlESANdpvuMqHV69xmrSb/8Jgas2bJnP8XccEyb2rgxCabs7cy/y9uC3XpQfCosIHssfkyqrTWTNleRicywzJW2+cN2H4ClnqxzgNMucq818YnO36m1C7MaN5QVJDu/x1/yH51Z8s8iMmiVjYbJLZV/i7VTWbfebvFvlxf7NtDLqdGpC3ukz0TITh4muUBdPyZbc9CeSyhwYAAEaPAJumcUYiWNQj2V51r8zeZoLjSPhK6Nyo4jsqH8sJLbJ2HY0tm96WdbkpirTauneBreDevjGa7uLoZzbVmS65tdgO1d1u+Bv/WEBD4z8/aiKjhlg/XVZb2coG5dRB818wn+iW9roAACCOAJumcFZ6zH+tn6tcWS2n4fWoPDzvSjm1d7V86m+nNqZXYKvyldATtVRBq5opc7WQq80RgmUr3opNKCKuumwfe2ymGf5Yll2MIVbD61dflldu2+j7RnW3N/QUfYqm9u/H+lDVC7XqD7FNMlv7X028ZvFGZRUAgIoIsCkG3jkzssrnex/Kw+a/LWuTYXCEfCX44QOJXgxGJKWpQK2uWeFD7CdyMi1MT7peCGo3ePCf5BUTF3/yB6W2qLVplm/+pQ+xQXtaxwXU8vGRrKYCAACgFgTYpEKP/NG289K+8Uuli7Vq5dvOhoFTu8kacRMCmSfrtHrbdTTRJdYx2ZrsmqsGS3/vSmk/dlpmV3mudim2NXEBW/eBj82/02ROyjYZOtApb+udXV1yyI7Jj6a5WusclBcPRrHedVdVfir/sDyd7LrqzGHzPJHf/WKyXhq1l/37sm6xIq1/8HX53YMvy+f5GVcAAOo2xQOsu/K/Y9uBUpvQjael9bHqF2al0rajWqkM2pk+Nfe6kTchMLRXA61+xpZx9YeyPKNHgIqitq0p7WDDwKqvufxA/PFlH2iziBWJC8CcydoLQU0W3W3btZb6bN1s9ldaE4LFcu+jIn8ctln96svSGusdoKT1Pq3ODsodXy1NH2tqMGul7H53o2xOaQf7dP4K2QAATKhLtC8tfx+44LTj/s9/v0neeLfU5RXGi1abN8sdczfKr4PuvAAAmOxoQgAAAIBcIcACAAAgVwiwmIT65IaoTSi/+T/mep6K2ttulju0P1oAAHKGNrAAAADIFSqwAAAAyBUCLAAAAHKFAAsAAIBcIcACAAAgVwiwAAAAyBUCLAAAAHKFAAsAAIBcIcACAAAgVwiwAAAAyBUCLAAAAHKFAIu69O3cLJt2HvJDF4HCq/LD726WH+4f8CNCh+QF89hYr2/FbXh0h2z67g7p84Njyq9rPfMf3P/suCxP+XwH5PWns/aD0scrL4ed59OvyqAfrlu0fS6m4xsALlIEWKTSkPXCUT9QCw1eOfzg7+vslUJDi2xY0ezHBI4eliMyXVa1LfEjxt/g0FmRhlnS5IeVDbw2eKbdnpXXC37CSjScPaPrOl0a5aRsr2lfHZJ9neeksW2lLPJj0rmgn3m8+GAYPj546lzZei5saxHpfD5jnQbkxFANyz10XI7Usj3KmIC8y2wfvdv/Zm3bFABwwVwybPj7gDcgg/u75PHOk7Jw7SOyYYEfbWiY2i7t8uy6INRF4UjmyJ1PrK8SdsabhqkOGWy7Sx5KC6WeVuseN+GsnAms92ySGxu14ve87BvyoxMa/fyz5hM9niZ1G1ruNbtb7pJVp57PmCagXxo6Z8mD994cC4Jlov0zP5qf20ZHisPpUtfNhP3y13Pzk8SxEnHzmREcG37bNqS/fub2setxXJba/ePHJehz982uvO/TuGUUs+9vFdlllk3S1nMyqO34jim+PyPRMW7uJh9L3b8AMPlQgUWKZmlasV4ebJsuR3ZVq/CZD9QoHF3w8Fon/bB+4hGz3P52T4sUc9HRLhNeNZAHj9tbuyz0kxTF5mPCZ4MfX69Cr3QPTZel82sLJn29J81rX1kxbGgw22T2j5jAUwqES2SDrkd/R4VT7q76ql9gwm2zsK3ecJNWxdVqqgn5s9PXc9E683ppwbrxZlk1/5zs22WW2Ta1KK9Ib+83m9FWcROPVWpaYOalQb2x7VYT6prlxnvNthnqlRcymzPkSPjlpXiMBl8AzDZ9yI+/c74fBwA5kM8KbKISY6snp5ZXrCZhZGw1rL9UWY1Xx3wlb1JVbWqrUNljpvfq+HIXjytXhdNKaPk84vMvn09URW2Xpb0dmRXcklI1zFUBXaVS/Ha+UzpsKKsuWf2OKshBtS2F278mmFastJcqw6Xt4fe9H0oqVqA1aO4yQXvEEuul+2iXyIaxOt788pVVzH3wa8qoKl84tR3fEXdMaWU5+xiI2H0+RAUWQD7kOMCekVWpoQpjy3xgPv2mzG0zH4Dmgzy2rWs9hT2hxiDAts2QfeZDPx4II7UG2OzXTz9eo0DoAlsUYMMAmXXKPcmFlnMiVZoIFPmwVmwCUhzOYOcrdnldswG37O5+9fVP3fbjwL5OpS+2WeE1MilDbG3Hd8QdC2HzjWwEWAB5ks8mBENnpFC8AGRAChVOR2K0lsiGe114LbNgvTxb4cNOPzzdqVv90C2dzk1eaa4fnGWneDU8mGnLLgzy40unh7OvTLevX8N0Zeab9bIhMrv5RFPD2B5vg/vfzKxmuqYFIgtbqoVRDY+bXTjU08I2ZIbbKuOmFU2dfq3Idh3uvFIesk0lNNDq+DnFZhLarGR0BuRI7zlpbGmpIyTFj5/SMaHrm7WPXNMFGTqd2nTAHnMmvGrluRgENdCG89fT6/e0yOAuM2148VjWsem54y5+vNnXC9ahvLcFt452vF+O6Jb1OkXBe6LqtKNR8b3njr3MCzmrbDMAqFe+KrC+YlJJ8lQo6ueqNmkXOFUXbv9wPsXxfh+G06VWfvQDL1n98uO0PWcxdOg4DVzFKpurUNkwWGzaUF7BtMuWVYG1p1sHzHLtlu39yeqVm390wVLWtnJVPbGve6ItWAfDrm+sAuvnOX+OHOl3ld9SBbbZLXuVpghjf9zrMh2WVl133We+0i66vraqOcIKbA3vYSfZJELFt70UzPAus6/1C2yiIun2S1rl0c0jqnTHHks5Nh1//Ng20focN4+sKmj82PKvFzaz8cdx6aI6FS2XKi2bW4+wCUDitaN5hfOvto0zKvOp70MvOs7L3rf9pSYqlZ4ff2/5cQAwCvmqwGrFL6oCFS9KcBfV6B9WHR7bD/GpqWnFJr9t67mlXNzkxQLBgpX2IqcjvSPocksr75K4yEmrZCkfxvGrqZtlYYs5ZvoPx6uwQ73yeFhR0iDgH9LnLFp3q1nWGrpu8tVJtx3iF3E1NuiFcFWqv4XTMmiO5w0tfjhkLybTkODnby+mCob9bXyOe7Puul00DPltNdIvNhF74ZkJ6gtT1iG62YuJEl1spWrUswPmOWvnuAu3ov1kwtILZjnLuv/SEOXDX30XHOqFXfo6rkL9wtFmmRteqKeBMej6y3UR5i6uc5V1E0jDUGeO2Q36Nyytuy57LJWWrWn+1WZ/n7MXvZUzYTYZXpX/O6k3VzHXQFzavplNKjJFF+LdFTvOFq3T9/w585jb7k2zw+q8Bu2g0mzfuzOkkfAKYIzksgmB/YCI6Ie/+TCMfaBgEpkjrbFw1WxCnfkv49RuRSbU6If5vmeq9YxgMkItp6hjwdPcwl4ILBNc1ppx/R0jPPVZYwjOCuHKhpELVbXywadCE4IjenrdVw7d/QrVYhMg9+kFYy3rZVWbSHd/ylX+fpq6mhjoNtJ9p70qRF9EzBeCsuqov+I+tTJcCx8MNyxwx3DhlFt+23evOS7d+rgmTY5rLpEWxjODabJXCb/M5V9Qessru+PF9oec1mxmibTqlw3/Xm5qmGGDqn1f27/L5r/eXvu/20YAMHZy240WbV6nIPth7qs+z2hY0lsdbVtHwrzmKvMhfaSzQjdMFUUhOFH9rZGeli1WiKNwFlv/6OZDva0GJh+r51bf9nRnPuJnQfSWFhKjH41YZcJY04rl0tTZVfZadhoTnFfVGzKLx4aaPu4/PmGrjTa4aUgV83pzioFWxf4+VejqbHAoJcTXoGC2k2smU7kbtbFToUgQhVb7BfOsFMxxONh/XKStRRZGj6laquoAUKMcBVh/kYD5kI319Rh+oI/mZyQRcKf/4sGm2i1qvzfetA9TH5S0MmhPc49viLWnSqNfeBpJxd+Gq3pOWZfYPlGj9TW3qAKqp3PD8cUqbXD6OLy50/KJinPqLVzOSk0I3H6ouemCrayaYLk2qhaa5+sp+fA9a8K369JrBNvKNw/QX05rbHB/D7J/lnaM2HA2ICfkalk434Q3+yXF9XFb60V+I70Y0O5/Pf616lytict4iwVTV1UePCWydH6LeZ+clJ6jOlxqVgEAYyFHAda3Q0tUe+wHevTBPN6n0qaMICTWfIuqX9Uckp4aThFrBadKKwEX1myIdVWf8aPbY2JP46d25m9CmrbtXLi2PbV6mckGw0Q7TA18lb7w2aBevQlBnPuSWR4czXj9mdb5y+Pb0Oy/B1uOy+MawHR5NChrW+BaQ7Fnq9RRW1Cznx4yfyc0sMfaxY4xe7pc6el1DWaNLbLUh7VStTKj7bXhju9k85o66fbT/WFC7LiG9QWL7VmP8iYfifdyYxRQdby2d3XrH7V356wZgLGU0yYEiQoY3+xzo2+nVsnip4jd6djSb9hnXdmv45NtUe1FQRf64pDYxWDVewwYEQ14JqRpDwwbFphAfc8s2VdT5fmQvLDrrKy6J1nVbJFVGh4rzaPuU76uuYQkwnXfTrNN9KdZU9r52ragWkWMAmilC4x8u8pI1Lwi+iGG8AusfgGIwt24nJmxp8tPynbttcB2b+bDmvaKEByP2lRioU4XBmn/RaTsIrMR0Asuo7A+fl1ULZFVZlsWOnfH2p6Xv5fdxW12G8xfbNct2r+6j8a66zkAU1v+AmziQyx2QRcmIX8a2t9sNzuJ0+nuQ7jUrtP1Y1pe0dXpWntL88qa37hKu5o6dmq+2k/Jhhf51MI3nbFdEAVtS7VZQvGqeDeqnD73TZkbdF1UbFP7zPOy3X5JSG+CYSuEdX4xtBdx2SY9J2Wfrwjqlw7b1VKx6UAkWi+tzGqPItpMo8LPt/oAr/nJtkf2zQ2iphRpVVs9XjTENpr1GHPFamOpiuouzDJiwV+r92bdNEhHx61ZD+0ebsQXkyUsWueOOd3+9VZidf8U30tme4ZfxsJ5uW0psbbX5e89f4GmUeyz2Fam9Q4X2gIYW/n8JS6MI9fP5Ejbs4ZdZrlKam2/AjTRsqq89gKgCn1VVuzrMoN9joaDIj01n7JN9AKsXaVfAIueF27TchoEXdU3OV356zrJPlPd62qVNlpvN89k/7XKbrdTV8sqE3RKlebE+kTroVXiZN+fQRBN64+0uF/Cx6Ln2HFRv7iV99OI2OVO6wcWADDZEGAxRlzwLXYyb0z6AFvxhwyiYR+2isYhOI0DDa/7Zmf8mEAKnb6nxe87XW/9da7itimF5NrWv/xYCLdlTQHRh0kXjldKYWevLFxX2lfZX0CyZHxpCBFgASA3CLAYN5M5wAIAgPzKbT+wAAAAmJqowAIAACBXqMACAAAgVwiwAAAAyBUCLAAAAHKFAAsAAIBcIcACAAAgVwiwAAAAyBUCLAAAAHKFAAsAAIBcIcACAAAgVwiwmKIOyQvffVZeL/jBSgqvyg93HvIDGXSap1+VQT8IAADGDwH2QsgIO4P7n5UXjvqBmAF5/ekqYUvn+d3N8sP9A37E2NBl2lQtvEWO7qh5Wjtfs7yl2w7p848l9e0MprPz1+0R3feP17qMEd2WDedkX2eNz+vvqL5th3rl8arLYYJzct9X2G7ZxwQAAFPXJcOGv4+JUjAhZleHHJEWefDem6XJj9aw8ninyKp7NsmNjX6k4cafk8a2u+ShFc1+bJybZobc+cR6WeTHjYVBE65e2HVSCvPb5dl1S/zYdOXTatB8XvYNucdjMueX8pyyaf00DTq+WQYLA7LvGd2e08u2XSVZ2zuVfkF4plea1j4iGxb4cUkaRHdJ5X0Q7Xu77NE6aTW4QyQ5bzu/kxW21Sj49amlAJ2pIX78AgAwUQiwF4wLLUcS4USriduHgmBQS3CK5uWHahGGYfua/fbuiCwMl82HruywnRHWMthlk0oBtsK2M6LwPyKJfWPndWq5PNt2ur7wlwx6afu0LPy67TRY4UvLuKnpmBuN0peU2LEDAECtNMDiAnnvJ8Nb/uyV4cN+0Hl3+K8e+PPh/z6o9z8a/u9/9ujwH+941z6S5fCO6tOUuHlueeMjP1zv80O6rI8O/9V7ftAbeOPPh7eY+Q344bj052TJWrZal1mX5Y8f+EliG48lv4/Mfkxf33R2uWLL7+ZT3C7m2BjZPhkDg68Mb6ljH9XPb7OKr+GOk/A4BQAgks82sFohCi7A0cpY3W0gJ4MF6+Whe2+2FTe7Dradp1ZSz8m+Z/S+P5Xe31FsA1rWDtNsi339c+TOMTrFnL4ttWJWezvTphWb5CGzPJP71LJbp9G2GR7cv9vso+myam38VLpWg5NtV3VctB9tVTjYr9G+PrLLD2vTgdjj5fPLr2a58d5H5NknqL4CAEYmn00I7CnOM7LKn25NP82cL/b0dO/VFdoUutOu3S3hKeW0cdVUe457fF+sfa4flzhlX5l/Tlr71ywNLXJXy3F5fqSn/ItKbWHtdtW2wffMMl8K4qfF05ocRKfPJTp1H7VDtcwXhVj71ozT/PY5Z2Xh2lvNa5XGj/w4ra/ZxaiNexOCWlzAJhQAgEkvnwFWA0LnLB88RhLiLhwXqHxAC9pGjiTARgHsThP6tlcKfbG2nLVtr3i4qyHAxoJepYupxqINbC3byykG2CdWSiGx3qXHSqHUjUu5sKusjWrWNskOXnkLsNIwXQpD52psp+q3R8oXllJ76OQ05ceJ2/7Zx3KlCxkBAFNHvgJsLCSly8tFIckAlhwulwieNmQcl6UmACzsz35ueWjKCFgpVTd97r7ZOp1UD7CRYLnGPcAme13Q46N3cWzacDrReRVDuVG2zj5gJXqHsBIB1i5X1oVv0ReGlOVx3Dao5aK7suO5hvdAdVV6a4gCrB4jDV3+9ZLV51D5douCaOb70a7H2apfdKjAAgDS5KsN7IL1tt3cg23TXUgw9599ol0Wmof0g3JKtalrvFkeeqJCCKmiqSERCuz82kVsG0zXJ+uidY/48DAgJ4bMJLMvYJDQUOXbgmq71aaGGWbkWSlEXQHo4yZoNQ6dzuxPdlHLHJGh43Ikek7jlS5sDUXtYP16trSUfRGI0+nNMWhEx110HNqqug2sJoBp8Os/nLI8S2SDfU767c75fjIzr1XJ49m/B0Z3q+24sceIfb27ZFXDSdnut32ZQq90m+22sK0U+ptWLLfb40hvDtumAwAmvVxexDV4KjjFWDgtgyZMzG3ww3mmHeH7kFZ+Sz89O7Z8sForJqxk/7DAhNAKnVlvW+XUi5l2STH02VDdMEsa5ZwNnFHFUPufjS6KSxU+x2q2x03hlA9lRw/bvmSXzq8W1JtNuN9kl8V+YbLhWvt2DZtcaIW1UtUyhQ/p2/u1QmrWNVkFvmD8RVdr50ih83nZlPwhhqEzmV2KXdAvPQCAi1Zuf4nrovxg1AAUqyhr5cusa9tdxfsTwlbdguBlvySkVG1romEuDOLu1Hnxant/K15h74OrPfVuAqKtRmq1PRnmoupp57OyyYfXtOYN9suOCa72uf45papgszTqNh1y69fXe9JMe7UsrKOqrafKi6/vl7Fvp37Z0BBaR3jViq0/bV9rhXTCRdVYSfzi2IKV9tg80lkKtoP736zxywAAAPXLURtY386uUhUyuChqsstu8xq2EXXrXO2Cq+x5pbUhDedfGq7nRxDKhNvdVkPDNrDV1iG5PHFZbWBV1A41dmGPbVuZaKsaPN8OB+1gS21kF0uPWY7MNpeJ+RarvuZu+PrRMpW1/QymH7GJOr79stbeC0HaMVSlnS1tYAEAo5DDXgjigadSeJvMYsttAsML/S2yQT+oYwGwjgBbcy8ElQNjGRs0TmZfjJMUW34dMR4BNh6YYssWC5rlr+22VVYvAxUCVcp8kxd7ReFV1by9iurcL+OpzgBb+hJQR8W5aoD127iurtsAAFNFTpsQJNq8NrhTw3mkH/6bnjkjrT5g9XX2SqHSaWz94E+2QVS2+YFrI1p2CwNAPW2GbchwV7xHp/zr6kxfg/kofyggTkONLocJrxrKzbppE4PYqeuhsyawL/ZVUr24KH4a2138FbaDdWpvPmCWYWevLNQ2ocXwquFTw6tru6oXGer2unh+eKCysgvqxoRv3tH/ZvEHSwAAiOQvwPr2mJHYBV15M9Qr2/W39cPT3Xr6ObiaO8kGtAT95auaL/ixF9zMkMaKQc0FsqjyGgXhKJjVEmS7dbpdIqsqVI7rolVBvZBNK3JBKF+0rl0W6sVvtk3mgBzpPVdsHz3Yf7z8y4C/ij9eWTwkPdoUoWrvA3olvlmG/jNBW0/9BTWtBusFW66aqPuj7hCbOK5zxWzTO+dHvx6XuIVtZe0+9OPtF6PgOSlfyhat03bf8fmO9pfTAAAXh3z+kEHuJU5tB5XO5Knn5Cn09FPqtUo/9R0JmyJU7DC+uLwp7Ryjx4rNFvxrVulBIVzv8FR81baUVvga0ZX/wSn5BndKvO5CXtDmtLhM0Xr50+x2nrEmGiXuOdnLH25va7K04a6zCUHmevpjgR8fAACMNQLsBefbc2aFlyDcRmpqXxkGrFDydYLp6g4a/rnFn101bCjTqnIx0CXCepnxaftpl2PM2kYPmJC2W/bNvtWvQxSYq3eTNbovHBdIXQG2wpeilOMDAICxQIAFMCrpFdgo5NdSQQcAoD4EWACjVmxiEZosTSIAABcdAiwAAAByJbe/xAUAAICpiQALAACAXCHAAgAAIFcIsAAAAMgVAiwAAAByhQALAACAXCHAAgAAIFcIsAAAAMgVAiwAAAByhQALAACAXCHAAgAAIFcIsAAAAMiVS4YNf39K6n5uryzr8gPGlsdWy/3X+IFArdMBAABgfE35CuzSu1fLp3vNbduV0u7Hpal1OmQo9Mgtq/fK1vf8MAAAwAjRhAAAAAC5QoAFAABAruQuwGpb1EufO1Y8JX2pvyVPTdvpHuiRAT9sTZrT2Mdkq1mOWzqHRN7bX1yHtPVQA52vxaaxzyvj5hlOp7dwfm4++6XbDzvBssQk55d8npfYD8np7H7Q8RtPS4cZfvh74bTp6zu099vyhflLZMthPwIAACCQzwps11ETiM7Imm2uXeqpjZeZYPSa7Cn4x3OiY9sBufR7Im9r29qM9dAAOHvbtOI02gZXzPNigdOGyKPSs/E6N42fbsRtdVPm9/bKj2VZMsTqdCaYSux1p8lT+gXDS7Yd1ovfitOaW/mFcGfkrV8ctPd2vNZn/wcAAAjltAnBZfLTbTfJmkY31Nx2tWyR87LnnbTK5CQ270o5tXeFLPWDzdfOMiHvvJyIAqwJiE91aegrTSONrfIXJuh2bDtaDJPdL52WDjOvv2hr8GNGJ21+S+9eYLbxx/JULDh/Ih1mX6y5Nnhds3wv3j3PD4zELLn+a1+x99bftMj+DwAAEMpngJ1nQo4Pr85MmWsyU8eJj/1wTlw1Q5r9XUvDX1CVHHjnjAmIM2V5okrZ/Llp5t9P5KQNusfkTRNy22+4Kj6vEcuaX8o2bpxmA/ftG8e2+t2w+kfyq/5D8vBiPwIAACDARVyT2MkT582/euo+3m700u+NY1AvnJUe859t3hB73QNye6llgGMDt1ZmNcRG02W0lQUAABgjBNhJbM7cy8y/M0vtX2O3UhOKMdU4Q1rNf+1hu9bwVtY8YJ7cHz322EwznNJWFgAAYAxdHAG28IHsOSay5brKbS/dKfn8iDcVyJLefMK2Y/X3K3rvQ3nY33VG0RzjmhU+xKYssw/GPf9SvZ0yvRAAAIBKLoIAOyR7nnYXHa0L2ora6uWxM/KWD1LahdTsbXpKPkeuWSA/naen5ytVNBvk+hvMunYdL7ZD1XVd9sFlZb0QuED8sbwZdV2lXXiVNUdokDVrTQjtOprRXVeJvk5Z92UHdH7TZE5ZddgH4+Dis3T0QgAAACq7ZNjw93NBu5Va1uUHIisXpJzaTkyrV/w/OUN2rj4q8lh0oZT2dXo0UYGM6Kn76Or/WqerlZ9fxnIn1bLOsWn0sd87a7u4ai2uqxMP8rrsC+TkAwdkzw3XyYthLwa+i6x4FTfe+4MqWza7nVszLigr347arVayKy2twH7loYOy/mdcyAUAAMrlM8B+UCkkwfIBNBlgAQAA8o6LuAAAAJArBFgAAADkCgF2jGjb0ni/qem3tN/+BwAAQO1y1wYWAAAAUxsVWAAAAOQKARYAAAC5QoAFAABArhBgAQAAkCsEWAAAAOQKARYAAAC5QoAFAABArhBgAQAAkCsEWAAAAOQKARYAAAC5QoAFAABArhBgAQAAkCtTPMAek62r98otnUN+OJ8GOl+TS1fvl24/nGeDHY/K5b/97dLtO10y6B/D2Oh5Kti+envqsH8EAIB8oAKLSWiRvPHuj+TXevvLldLkx+bHYXnaBMNbOwb88OTSep/ftu8+Ij/5ih8JAECOEGABAACQKwRYAAAA5AoB1nPtSPf6W7I96ZDsecCMf+6YSKFHbilOl95+tvu50uP2ps8L2Xm8JnsKiWkf6JH0k86urW5pnlntXePTpbft9etSnM4tR5nEelZsYzvUIX84f4l84U/7/IgLbUD+9jvuFH7U3tOezu97zrf7fFT+9oyf1HLTh+1Cs07/J9uPhtOV2u9uk0fM8Cvf35w5rZN83eRyRfN8TvTIiE1L22AAwFQ2PKW9P/zkN14a/v37Xx3+zP3dwx/ZcYXh3fe/FAwrP85M+5lvvDq8e9CPPvKGHffkET9sfPSLV2PDw4Pdw7+vz/vx+36EEY3T1/5FwY90yxKbTvnXiI830wbD+ppu2YJlsc8LltUqfw333MR0fvlKy2bouOSyeYWXvjV89X9cbG5bh9/140Zq4OUfDE9b8uPhbj88Mh8N7/n2t4bXfPsHw2te/sjNU+/b+R4a/rMl5jEzPtK99QfDe4b8gDr8Y7MM8WlU99ZvlS1b2XOt8tco56aZtvWQH47WPT4/N05fN5xf+XNHxm2n0c8HAICJRQXW6JBZcurJVmm2Qw2yZu1MkWOnZed7dkRgpry99yZZ0+gHr7lCtpj/ev6lVOlsbrtJ7r/GD6jGVrlvpfm/68PyCubKBfJiW4MfmCfLdboPzgZV2CHZs+tjO92nd8/z49Q8uT827Gx5bHXpte2ynZc975SWbaDzuDys6xA8t7ntS/LTeefl9peCKnHhE7NNLpM110bLZpj1eDHlNVXDdW2yTO+sXSlL7JjJ4ZWDTXJvu9urcnBQWnfcLa1uSF55v1S/bL3v+/LNWX5ALfqGvbjpla7DQZVzQE6eMP/d9uXiPFTZc2s02PH38oherHbfYj9GpKl9o3ndQbnjv5X3CrB5x49kd7QusliW3Wb+OzFAFRYAMCURYI32G67y4dVrnCbt5r8wmFrzpskcf9cxQXLv6iCEppsz9zJ/L27LdemBsKjwgewxubLqdNZMWR4G5zJD8tYb500YvkKW+jFOg8y5yvwXBme7/ibUbsxoXpDU0C5/3X9IfvUni/yISSIWNptk9hX+blXNZp/5u0V+3N9sG4NupwbkrS4TPRNhuPgaZcG0fNltTwK57KEBAIDRI8CmaZyRCBb1SLZX3Suzt5ngOBK+Ejo3qviOysdyQousXUdjy6a3ZV1uiiKttu5dYCu4t2+Mprs4+plNdaZLbi22Q3W3G/7GPxbQ0PjPj5rIqCHWT5fVVrayQTl10PwXzCe6pb0uAACII8CmKZyVHvNf6+cqV1bLaXg9Kg/Pu1JO7V0tn/rbqY3pFdiqfCX0RC1V0Kpmylwt5GpzhGDZirdiE4qIqy7bxx6baYY/lmUXY4jV8PrVl+WV2zb6vlHd7Q09RZ+iqf37sT5U9UKt+kNsk8zW/lcTr1m8UVkFAKAiAmyKgXfOjKzy+d6H8rD5b8vaZBgcIV8JfvhAoheDEUlpKlCra1b4EPuJnEwL05OuF4LaDR78J3nFxMWf/EGpLWptmuWbf+lDbNCe1nEBtXx8JKupAAAAqAUBNqnQI3+07by0b/xS6WKtWvm2s2Hg1G6yRtyEQObJOq3edh1NdIl1TLYmu+aqwdLfu1Laj52W2VWeq12KbU1cwNZ94GPz7zSZk7JNhg50ytt6Z1eXHLJj8qNprtY6B+XFg1Gsd91VlZ/KPyxPJ7uuOnPYPE/kd7+YrJdG7WX/vqxbrEjrH3xdfvfgy/J5fsYVAIC6TfEA667879h2oNQmdONpaX2s+oVZqbTtqFYqg3amT829buRNCAzt1UCrn7FlXP2hLM/oEaCiqG1rSjvYMLDqay4/EH982QfaLGJF4gIwZ7L2QlCTRXfbdq2lPls3m/2V1oRgsdz7qMgfh21Wv/qytMZ6ByhpvU+rs4Nyx1dL08eaGsxaKbvf3SibU9rBPp2/QjYAABPqEu1Ly98HLjjtuP/z32+SN94tdXmF8aLV5s1yx9yN8uugOy8AACY7mhAAAAAgVwiwAAAAyBUCLCahPrkhahPKb/6PuZ6nova2m+UO7Y8WAICcoQ0sAAAAcoUKLAAAAHKFAAsAAIBcIcACAAAgVwiwAAAAyBUCLAAAAHKFAAsAAIBcIcACAAAgVwiwAAAAyBUCLAAAAHKFAAsAAIBcIcBe5Pp2bpZNOw/5IUxtA/L60+Z4ePpVGfRjQvZY+e4O6fPDY+LojgrzPCQvfHezvHDUD44pv671zL/wqvxwPJYnZb6D+5/N3A9KH6+4HHaez8rrBT9ct2j7jPH+BoAJQoC9SGj4qOuDV4MFwXZqOdol+4amy6q1N0uTH1VySHr6RRrbVsoiP2bcFU6bADdd5jb4YWUDrwueabcf7h/wE1ai4ex5u66NZt5HdtUW0vo6e6XQ0CKrFvgRGSp/KfTBMHx86IwUkus5f7mskl55PGOdBk+dq2G5z0l3fy3bo9zg/t1m++i9k7Kvpm0KAJPLJcOGv4/cGjAfSF3yeOdJWbj2EdkQfADrh+12aZdn1y3xYwyt3jxjPqxljtz5xPrxCywaRnad9APG/MRyRGqdDiNT3N/lGtvukodWNNuK3+Od5/zYBBPqHrzXhN6s+USP+8EYu28l9Tizr9l7tTzYdkYez5imRKu1b8rcezbJjY1+VKoovJaObfse6K9yrKeumwn7Ka+X+p6K+Pk0Be9Dt21npL9+5vZx69Hd4vZPKn1u56zsbZ/FL6OYfb9Bdptlk9T1vPD8vmyo7++B299+QBX/nkTHhhudtX8B5MO//YHh7yO3PiufnbtErv2NQ/J3L3XLZxb9jnz+cvfI4OE35V35onxtcfQhaILAY/vlA/2jfm9bfR989WpcIl+7cbm5fVE+c7hXjl0eLkeg1umQQcPd8/KL3/iiXD/3s35c4Ne/krd/+Yn8p3sekO98XbdzaVufvqLFPOe4/Py5Phu6HrotetzdrvzQHD+fXCHLvjJPPpsyHz3m3v7o37vH/cvFDB2Wzj6Ra29ckjjWBuSf/u6gnG1ZJV+7/H9nTBM42iU7+n5Tln29wjQazB57Rd693ATqR74p/8GPblqs69Eh2392KPbeCPX93c/lgAale28tbptjc1fKd75SfhyWv6dK7HykRTZ8vbQ9/vmtfzDTXy1fS9tG9thPW6fPyuennzDv516zzL8p//jY87Lj9TelM7z1mS8cn3wkbyfHv569nsX3v/nSsem2a6Vp7u+YbfMP8vNf/qtcm7UPL5h/lX/+ZX1/D1x41WAaHOvF55pt+hU/7rdOmO33f+WLX87aTgAmuwmqwOoHbIdIVJUYaeUAVSWrTfFqkdsPRypVzMZFrZWUkVVc4PbroK+mlrEVt+OyNFZtKlX4bBVOK6Epx4Q9fobCCmx8PlEV9c6W47I9q4IbiCq+sUql+CrkWpHtYSW+guSZhqiCXJx/mqjSn6zwJ6qgxcpwsD3Kqnqh4vvJv7/86JGIr5fuo93m7+ZYVQmz3v+T9X1X73L59avlDI7d52epwAI5NoFtYEttwAaHzro7GHOL1rXLwoazUkhrD3v08AUIr5jcemWfCX4L20Z3TDSt2CTPPvFI+W3tHPOofqFyw1G4tO1N7b3AgvV2mgfbppuB0nPSbsWQp0H4u5v9KfrS/FPZ+d8lq4Y6bHta12bchKRODc0nZbtvZ2ubUgy59qmxi5w0GJnXuHN+6b5b1sgS2eCXr3i7p0Ua7anqxPiMWxjKRZrlxntrDFh2O1RqM1vpy6u+jt8uF0G7+MbZFY4BABeNiQmw9mKNGdIYVW1OmQ+IhisJUePCfIjqh17sg9DTD/AK4VUrT+7KaP2wcx/maRfO2OnKPizdc2q7yGY8adXGX0Tjw03WelhaiQmmyfoA1wpcbLrktP61khfS2eelXG3utmFpXunbLb4fNiWuOi/Nw1X9Cp3PB9PWui9abOjSKmjm9GP9XjXbal9WNdPsvyO95u/D/MXZ7VU9u/62Iqzhb71I2j4qu2lFU6dvF9mlw13SeK8LpVr91PELo8Bpw+foDPYfl0LD1bKwjhnFjrXgGNP1zdpH7guB+eKa1tDZHuO+Mll8//tjqzj/IMTG3tvB+ylN2nGfeN+l9XRQ+hvi5x9NW6FnBqf0nqjt+B655Hs+fL2s97UzWf4WAhe38W1CoH/I0i76CFQ85Yea6IdB5gU4VYSnLMP5FMf7067l0yUvStE/2lmnsWs9FVjrdJX4edgLNYKLNDLXI7yAxa1D/BSkn58JeqXKVcpy+mM9vHhH6Qdd8RR8OC68qMg/Vy+qKW27tGUx454+LavKvoRU2vaGnX92EwJ9zqDZPi+Y7ZO6/FETlKz3s6/qiW7PU8vj+85u9/hFSm6ec2Rh/0nXrChqQmCmaarlWI5tk7Ghy9TTouuu29JfLCa6vmdklQ/H0XYIt4k9hjKaXxT3oR+qJDwuI7Ftb/ZX387d5rjRL/+JKmrGsafsPMyXhfL5px1fTvR3IHqOnUfiGC5KHFvJ5yq3DPELpqLpVOkzILlMyfdZtD3DC/LC93ua+OsW2eMyqwmBf51wO0fHvl82t/wZF+b55xebzAEYF+NbgW28WR7SU2N6GlH/GNjTZOZbfoP7o6WnzFI/cFGXzNO3FW9aaUoX+7BbsNLuryO9GRWYSUs/5IIPpwWL7foODkVVkUP21Hlj263BB9gS2aDHav+bpUpnxa6nRsB8EGr1ceHa4IPPvE82tE2XQmdXqVJlz1qY6VrCcKHV9ZEuxznZ90xYUYp/6DctWG+XoXrXTb466Y+j2Cn0hhnS2N9RpTu3ASloDwHrFvvhULRP3N+G5N+K4i0RuMbKEVuR1YDkt1VaWK+HNtnRoD4/ZR2im21ikehiK1WzLFqn73PzvrXNG6L9ZALcLrOc5u9rvPsvDXY+eJrXqSdIub8nvkK985A0zQ6bSWg4C6qLtouw6Oxaaf+Fr2ebNek27Sz/G6J/a0qfAUukVZtnDLljP07XJxlelVaOo+3p/qbFt3VaQK1scP+b7nXC95p/j0Z/G5rMsV7itnWxSp3WPRyAMTchTQjibV4H5IT54GxqILhOTnOkNfZh12z70kz/UJnEGmYlgp5rn1j8sLThYrosnZ84Ds3zGs2HrR6jqq/3pBlX3yngSuwp5bJtHH0gBqeAG91pew1VdfXvmykePKNwGGpacasZd1K2Z50urqK2EKyBI61qpRL7aIJpmKrYhMCEcw3/9mIufz+7WmxCjbatnb/YbJMWkd7e9FCm09R1fOk20n0XtdnVLyKJsGX5YDfiLzxuX+iXBXtsmqBql99/sSr49Yn9bbfvqbS/7VnBtDzkLVqXtsynfZU1GV7Hg2/CUvb3w6zX/KtLfxvs34no/eo+06T/sDvubagHMN4m7iIu2rxiEnEfvMmqpLmNtupWhW3/HVwwVLyVXX0fBZWoMqi30fzyUi1M6GlLVKDrFIXgnpGEbj2tG9surkqcbNurN1cBdNXA5GP13Or6cqCnj02oCy/isre0kBhV7tuW2OrdqoZe2Zd8LTuNCc51X0DnwqldDmPcf3wiCGv6BUxMIF8YBVoVC3sVKo/hc+rRb7adD40T9hlS4fPKnsWxXzB9mNXgPr/F7OOwDXLpmg8A42NcA6y2fdIPCVul8BWL6IIT96Fc7XQlajOSD3K3H6YqV/FMViVLt/Fqu+ZOx2olKe11k6c7g9OjthqogXucQ+yC9SYYRb/wpKf7zWd1XVd1u2Ue0fbTiwzD7RFVQIvNj0o3V6X1VcLkzZ+Wz9q34S1czkpNCGxlsOamC66yGjZP0dPosivcd+Y967v0qn9buVPWWglubNCmJybgV734abRcWBs8JbLUhLW5/ktKXRfkjjSA6pcFPRa06cS4r2d1YYVZw6x+GV7YcrPZF+59Y78cT2TYBqaocQ2w9o9+sh1brFud8T4dNFVkfJBXvGW3gY3zPzHa0lL5D7I/fZgbtqpUaiqQxQbOZOXIV86qc9suVNZUoFbantyH2PJlbrZVr8KpqH3v6Oj7dkJP49vgmvxbYEKatu004eXOtOplJhcMF8b6TtXAVyn4u6BetQlBgl7Ik97DhP5M6xxZFduG5j16z9XS/Ux05b1vz1lve15bpdbKtFvGh+7d5P6mxtrFjjHfnMUdz1pZbDaBbXqxXXzxC45tZ57287Y1/g2pRI//aD1H2MSlNm7dis0BAvHmP+49p8fOkV6x9xe1zCk2reCMIzD+JqwJQaxdFN9Oc6Nvp/ugDT+MXQgLThPbK3qTp8AnOT2tO1+rbpUrmq7dW/B78Xo18q6zrl1wKGqzWrzYTaviKVVue1GcVviqhA2zTZPd8LgP0LRTtL6d8ihO/dcu3uwiuw3oaGjAMyFNe34wAW/Rurtkbmdtp/v1eNXeGJJVzYVtGh4rzaP+i25scwntRzecp9lvrmeLlC/njS2y1LZdjQJopS/wLlQXRc0rfNU2Vq3XLwA2bOu8x6NC78LakV3mePbdm9n3RX+HrQKX/rYvkVX2YsTdsWVI+xsyImY97UWD5nXHs4uqphXLTRBPtAU37/sX7AVqUXMN954rdHaY49S3YdYAbwK2/qAHfdEC428Cfkr2uPxjx/sii5fLteZNPmg+ZCv+9CQmyIC883ppv6hfn+iWt48PyrvBz1K+qyEi+FlOqzH62dp/cNP1aXcyt8rnij9N6vasNiF5/Gc6n1459okZMfR+cb6nf6v0urVOVxv/85Pif/7Uj02jPzF67W90y/Zdfj2i2+HgZzUvnyfX/5b+pOc/usd+ean85ye+LjPLfuKyWa5d9K/yTsd++Ts7n/ddt0ZXJH9q1f2cpftp0+A19fbh9NL8zDb+4ont8tBzpWV7+3iz2c4b5cspP33ZtFh//vSg7Psfpfm9E/20rP0J2P8jn4v9bKbbTuH+Kufeu5/98s1uH4zgp2Tt+/34b6b+lGzy+FNa1XzouYNy9vq75PHbrg222XR555nnZUe4jRL0uT+fvj64UM+Evmc6zLbolbf7PpJfm1GFvpRjqvCm/Ox//D+51v5MrS7XSZmh20rc+n4xsez2p2T79Rh1x2vhI3+86Jebbf9LLm9bL3csiG+NaL2OfaJnnzbJtRV/vtUHeA2wQwPup2S39dieBh585L/ILWnrr8epHn/HzXosNstb9edR3fYvNNTyM62flX89btZZq9Rtt7ptd/m/k0/153Y/mS5LbywdV5+d+ztl76m0vyHub41U+SnX8p+S1fnrzxsfMONj7xfLrdOvr844pnX/PPZz9/7Un+GV83Lsl/79Er7n9b1843Q5/bOO0s/3/vIj+bx5P//X1mC+H5tj//h5abx+lXzNvl6z/Ib+9LLZTp+P3jMAxs0E/ZQsxk9Gpa9GYZdZlfs2RIkPGKPqr3YC6Qd3xsVp2rQns7mArazX+XOb9jnxanysW7Yid9zGfl46qi5W2KbuGDXhIzldyutaYV+elnvdsM9cO89k/7XKbrczsrTtrO0eKhJfn2g9tEpc6lfXCYKobTaVeF8V90v4WPQcNy7qF7fifhoR/3ejyvYGgMmKADtlJQKEQYCtVR4DbOUfMoiHrZKxD07jQMNr56yMHxNIodP3Lvb7Ttdbf52rtG2KIdmoZf1tR/3FHxxQwbasKSD6MGnuaTheNbTDBMv1pX1V4QtIlvQvDSECLIB8I8CiiABbq5wFWAAALjIEWBRN2gBbawVqwqpJBFgAAC4kAiwAAAByZeJ+iQsAAAAYAwRYAAAA5AoBFgAAALlCgAUAAECuEGABAACQKwRYAAAA5AoBFgAAADki8v8BiG4kKb5NGpEAAAAASUVORK5CYII=;" vertex="1" parent="1">
          <mxGeometry x="340" y="15" width="306.39" height="110" as="geometry" />
        </mxCell>
      </root>
    </mxGraphModel>
  </diagram>
</mxfile>
